<svg width="104" height="115" viewBox="0 0 104 115" fill="none" xmlns="http://www.w3.org/2000/svg">
<path d="M72.9365 100.06H71.1396V103.622C71.1396 104.528 71.4562 104.981 72.0908 104.981C72.3822 104.981 72.6238 104.956 72.8149 104.905L72.8601 106.143C72.5389 106.263 72.1161 106.324 71.5923 106.324C70.9484 106.324 70.4453 106.127 70.0821 105.735C69.7204 105.342 69.5384 104.683 69.5384 103.757V100.058H68.4679V98.8348H69.5384V97.4913L71.1396 97.0081V98.8348H72.9365V100.06Z" fill="white"/>
<path d="M81.0435 102.445C81.0435 103.573 80.7208 104.499 80.077 105.223C79.4018 105.968 78.5057 106.34 77.3885 106.34C76.3119 106.34 75.4547 105.983 74.8155 105.269C74.1762 104.555 73.8566 103.653 73.8566 102.567C73.8566 101.43 74.1854 100.498 74.8453 99.7741C75.5037 99.0492 76.3922 98.6868 77.5093 98.6868C78.5859 98.6868 79.4523 99.0439 80.106 99.7588C80.7315 100.452 81.0435 101.348 81.0435 102.445ZM79.3521 102.498C79.3521 101.821 79.2076 101.241 78.9147 100.757C78.5729 100.171 78.0843 99.8788 77.4512 99.8788C76.7959 99.8788 76.2981 100.172 75.9563 100.757C75.6635 101.241 75.519 101.831 75.519 102.528C75.519 103.205 75.6635 103.785 75.9563 104.269C76.3088 104.854 76.8013 105.146 77.4367 105.146C78.0591 105.146 78.5477 104.848 78.9002 104.253C79.2007 103.76 79.3521 103.174 79.3521 102.498Z" fill="white"/>
<path d="M86.3439 100.271C86.1826 100.241 86.0106 100.226 85.8301 100.226C85.2566 100.226 84.8131 100.442 84.5011 100.876C84.2297 101.258 84.0936 101.742 84.0936 102.325V106.175H82.4641L82.4794 101.148C82.4794 100.302 82.4588 99.5325 82.4183 98.8382H83.8382L83.8978 100.242H83.943C84.115 99.7596 84.3865 99.3711 84.7581 99.0798C85.1213 98.8175 85.5135 98.6868 85.9364 98.6868C86.087 98.6868 86.2231 98.6975 86.3439 98.7166V100.271Z" fill="white"/>
<path d="M93.6342 102.158C93.6342 102.45 93.6151 102.696 93.5746 102.897H88.6839C88.703 103.622 88.9393 104.177 89.3935 104.559C89.8056 104.901 90.3386 105.072 90.9931 105.072C91.7172 105.072 92.3779 104.956 92.972 104.725L93.2274 105.856C92.5331 106.159 91.7134 106.31 90.7675 106.31C89.6298 106.31 88.7367 105.975 88.0867 105.306C87.4383 104.637 87.1133 103.738 87.1133 102.611C87.1133 101.505 87.4153 100.583 88.0202 99.8487C88.6533 99.0641 89.5089 98.6719 90.5856 98.6719C91.6431 98.6719 92.4436 99.0641 92.9873 99.8487C93.4178 100.472 93.6342 101.243 93.6342 102.158ZM92.0797 101.735C92.0904 101.252 91.9841 100.834 91.7631 100.482C91.481 100.028 91.0474 99.802 90.464 99.802C89.931 99.802 89.4975 100.023 89.1664 100.466C88.8949 100.819 88.7336 101.242 88.6839 101.734L92.0797 101.735Z" fill="white"/>
<path d="M5.625 20.0002H1.58523V6.90933H5.80398C7.07386 6.90933 8.16051 7.17141 9.06392 7.69556C9.96733 8.21544 10.6598 8.96331 11.1413 9.93916C11.6229 10.9108 11.8636 12.0741 11.8636 13.4292C11.8636 14.7929 11.6207 15.9669 11.1349 16.9512C10.6491 17.9314 9.94176 18.6856 9.01278 19.214C8.08381 19.7382 6.95455 20.0002 5.625 20.0002ZM3.17045 18.594H5.52273C6.60511 18.594 7.50213 18.3852 8.21378 17.9676C8.92543 17.55 9.45597 16.9555 9.8054 16.1842C10.1548 15.4129 10.3295 14.4946 10.3295 13.4292C10.3295 12.3724 10.157 11.4626 9.81179 10.6998C9.46662 9.93277 8.95099 9.3447 8.26491 8.93561C7.57884 8.52226 6.72443 8.31558 5.7017 8.31558H3.17045V18.594ZM18.3068 20.2048C17.4205 20.2048 16.6428 19.9939 15.9737 19.572C15.3089 19.1501 14.7891 18.5599 14.4141 17.8014C14.0433 17.0429 13.858 16.1565 13.858 15.1423C13.858 14.1196 14.0433 13.2268 14.4141 12.464C14.7891 11.7012 15.3089 11.1089 15.9737 10.687C16.6428 10.2652 17.4205 10.0542 18.3068 10.0542C19.1932 10.0542 19.9688 10.2652 20.6335 10.687C21.3026 11.1089 21.8224 11.7012 22.1932 12.464C22.5682 13.2268 22.7557 14.1196 22.7557 15.1423C22.7557 16.1565 22.5682 17.0429 22.1932 17.8014C21.8224 18.5599 21.3026 19.1501 20.6335 19.572C19.9688 19.9939 19.1932 20.2048 18.3068 20.2048ZM18.3068 18.8497C18.9801 18.8497 19.5341 18.6771 19.9688 18.3319C20.4034 17.9867 20.7251 17.5329 20.9339 16.9704C21.1428 16.4079 21.2472 15.7985 21.2472 15.1423C21.2472 14.486 21.1428 13.8745 20.9339 13.3078C20.7251 12.741 20.4034 12.2829 19.9688 11.9335C19.5341 11.5841 18.9801 11.4093 18.3068 11.4093C17.6335 11.4093 17.0795 11.5841 16.6449 11.9335C16.2102 12.2829 15.8885 12.741 15.6797 13.3078C15.4709 13.8745 15.3665 14.486 15.3665 15.1423C15.3665 15.7985 15.4709 16.4079 15.6797 16.9704C15.8885 17.5329 16.2102 17.9867 16.6449 18.3319C17.0795 18.6771 17.6335 18.8497 18.3068 18.8497ZM26.9489 20.0002L23.9574 10.1821H25.5426L27.6648 17.6991H27.767L29.8636 10.1821H31.4744L33.5455 17.6735H33.6477L35.7699 10.1821H37.3551L34.3636 20.0002H32.8807L30.733 12.4576H30.5795L28.4318 20.0002H26.9489ZM40.858 14.094V20.0002H39.3494V10.1821H40.8068V11.7162H40.9347C41.1648 11.2176 41.5142 10.817 41.983 10.5144C42.4517 10.2076 43.0568 10.0542 43.7983 10.0542C44.4631 10.0542 45.0447 10.1906 45.5433 10.4633C46.0419 10.7318 46.4297 11.1409 46.7067 11.6906C46.9837 12.236 47.1222 12.9264 47.1222 13.7616V20.0002H45.6136V13.8639C45.6136 13.0926 45.4134 12.4917 45.0128 12.0613C44.6122 11.6267 44.0625 11.4093 43.3636 11.4093C42.8821 11.4093 42.4517 11.5137 42.0724 11.7225C41.6974 11.9314 41.4013 12.236 41.1839 12.6366C40.9666 13.0372 40.858 13.523 40.858 14.094ZM51.3873 6.90933V20.0002H49.8787V6.90933H51.3873ZM58.1388 20.2048C57.2525 20.2048 56.4748 19.9939 55.8058 19.572C55.141 19.1501 54.6211 18.5599 54.2461 17.8014C53.8754 17.0429 53.69 16.1565 53.69 15.1423C53.69 14.1196 53.8754 13.2268 54.2461 12.464C54.6211 11.7012 55.141 11.1089 55.8058 10.687C56.4748 10.2652 57.2525 10.0542 58.1388 10.0542C59.0252 10.0542 59.8008 10.2652 60.4656 10.687C61.1346 11.1089 61.6545 11.7012 62.0252 12.464C62.4002 13.2268 62.5877 14.1196 62.5877 15.1423C62.5877 16.1565 62.4002 17.0429 62.0252 17.8014C61.6545 18.5599 61.1346 19.1501 60.4656 19.572C59.8008 19.9939 59.0252 20.2048 58.1388 20.2048ZM58.1388 18.8497C58.8121 18.8497 59.3661 18.6771 59.8008 18.3319C60.2354 17.9867 60.5572 17.5329 60.766 16.9704C60.9748 16.4079 61.0792 15.7985 61.0792 15.1423C61.0792 14.486 60.9748 13.8745 60.766 13.3078C60.5572 12.741 60.2354 12.2829 59.8008 11.9335C59.3661 11.5841 58.8121 11.4093 58.1388 11.4093C57.4656 11.4093 56.9116 11.5841 56.4769 11.9335C56.0423 12.2829 55.7205 12.741 55.5117 13.3078C55.3029 13.8745 55.1985 14.486 55.1985 15.1423C55.1985 15.7985 55.3029 16.4079 55.5117 16.9704C55.7205 17.5329 56.0423 17.9867 56.4769 18.3319C56.9116 18.6771 57.4656 18.8497 58.1388 18.8497ZM67.7797 20.2304C67.1575 20.2304 66.5929 20.1132 66.0858 19.8788C65.5787 19.6402 65.176 19.2971 64.8777 18.8497C64.5794 18.398 64.4302 17.8525 64.4302 17.2133C64.4302 16.6508 64.541 16.1948 64.7626 15.8454C64.9842 15.4917 65.2804 15.2147 65.6511 15.0144C66.0218 14.8142 66.4309 14.665 66.8784 14.567C67.3301 14.4647 67.7839 14.3838 68.2399 14.3241C68.8365 14.2474 69.3201 14.1899 69.6909 14.1515C70.0659 14.1089 70.3386 14.0386 70.5091 13.9406C70.6838 13.8426 70.7711 13.6721 70.7711 13.4292V13.3781C70.7711 12.7474 70.5985 12.2573 70.2534 11.9079C69.9125 11.5585 69.3947 11.3838 68.7001 11.3838C67.9799 11.3838 67.4153 11.5414 67.0062 11.8568C66.5971 12.1721 66.3095 12.5088 66.1433 12.8667L64.7115 12.3554C64.9672 11.7588 65.3081 11.2943 65.7342 10.9619C66.1646 10.6252 66.6333 10.3909 67.1404 10.2588C67.6518 10.1224 68.1547 10.0542 68.649 10.0542C68.9643 10.0542 69.3265 10.0926 69.7356 10.1693C70.149 10.2417 70.5474 10.393 70.9309 10.6231C71.3187 10.8532 71.6404 11.2005 71.8961 11.665C72.1518 12.1295 72.2797 12.7517 72.2797 13.5315V20.0002H70.7711V18.6707H70.6944C70.5922 18.8838 70.4217 19.1117 70.1831 19.3546C69.9444 19.5975 69.627 19.8042 69.2306 19.9747C68.8343 20.1451 68.3507 20.2304 67.7797 20.2304ZM68.0098 18.8752C68.6064 18.8752 69.1092 18.7581 69.5183 18.5237C69.9316 18.2893 70.2427 17.9867 70.4515 17.616C70.6646 17.2453 70.7711 16.8554 70.7711 16.4463V15.0656C70.7072 15.1423 70.5666 15.2126 70.3493 15.2765C70.1362 15.3362 69.889 15.3894 69.6078 15.4363C69.3308 15.4789 69.0602 15.5173 68.796 15.5514C68.536 15.5812 68.3251 15.6068 68.1632 15.6281C67.7711 15.6792 67.4047 15.7623 67.0637 15.8774C66.7271 15.9882 66.4544 16.1565 66.2456 16.3823C66.041 16.6039 65.9387 16.9065 65.9387 17.29C65.9387 17.8142 66.1326 18.2105 66.5204 18.4789C66.9125 18.7431 67.4089 18.8752 68.0098 18.8752ZM78.7404 20.2048C77.9222 20.2048 77.1999 19.9981 76.5735 19.5848C75.9471 19.1671 75.457 18.5791 75.1033 17.8206C74.7496 17.0578 74.5728 16.1565 74.5728 15.1167C74.5728 14.0855 74.7496 13.1906 75.1033 12.4321C75.457 11.6735 75.9492 11.0876 76.5799 10.6742C77.2106 10.2609 77.9393 10.0542 78.766 10.0542C79.4052 10.0542 79.9102 10.1608 80.2809 10.3738C80.6559 10.5826 80.9414 10.8213 81.1374 11.0897C81.3377 11.3539 81.4933 11.5713 81.604 11.7417H81.7319V6.90933H83.2404V20.0002H81.783V18.4917H81.604C81.4933 18.6707 81.3356 18.8966 81.131 19.1693C80.9265 19.4377 80.6346 19.6785 80.2553 19.8916C79.8761 20.1004 79.3711 20.2048 78.7404 20.2048ZM78.945 18.8497C79.5501 18.8497 80.0614 18.692 80.479 18.3767C80.8967 18.0571 81.2141 17.616 81.4315 17.0535C81.6488 16.4867 81.7575 15.8326 81.7575 15.0912C81.7575 14.3582 81.6509 13.7169 81.4379 13.1671C81.2248 12.6132 80.9094 12.1828 80.4918 11.876C80.0742 11.5649 79.5586 11.4093 78.945 11.4093C78.3058 11.4093 77.7731 11.5734 77.3469 11.9015C76.9251 12.2254 76.6076 12.6664 76.3945 13.2247C76.1857 13.7787 76.0813 14.4008 76.0813 15.0912C76.0813 15.79 76.1879 16.425 76.4009 16.996C76.6183 17.5627 76.9379 18.0144 77.3597 18.3511C77.7859 18.6835 78.3143 18.8497 78.945 18.8497Z" fill="#CDD4F0"/>
<path d="M103.467 71.3421V71.3848C103.444 73.7591 101.513 75.6774 99.1335 75.6774H4.58483C2.19124 75.6776 0.25 73.7362 0.25 71.3421V46.5851C0.25 44.1915 2.19121 42.2502 4.58483 42.2502H99.1333C101.527 42.2502 103.467 44.1914 103.467 46.5851V71.3421Z" stroke="white" stroke-width="0.5"/>
<mask id="mask0_1_3057" style="mask-type:luminance" maskUnits="userSpaceOnUse" x="6" y="47" width="20" height="24">
<path d="M20.7832 55.8638L16.1065 53.1638C16.1065 53.1638 7.58654 48.2441 7.08566 47.955C6.58479 47.6658 6.08575 47.841 6.08575 48.4453V69.6663C6.08575 70.1193 6.44243 70.3146 6.87759 70.0636C7.31255 69.8121 16.1065 64.7347 16.1065 64.7347L20.783 62.0349C20.783 62.0349 24.7509 59.7442 25.2784 59.4398C25.8058 59.135 25.7551 58.7173 25.31 58.4776C24.8651 58.2377 20.7832 55.8638 20.7832 55.8638Z" fill="white"/>
</mask>
<g mask="url(#mask0_1_3057)">
<path d="M6.08572 47.4617V70.4371L17.6713 58.9495L6.08572 47.4617Z" fill="url(#paint0_linear_1_3057)"/>
</g>
<mask id="mask1_1_3057" style="mask-type:luminance" maskUnits="userSpaceOnUse" x="6" y="47" width="20" height="24">
<path d="M20.7832 55.8638L16.1065 53.1638C16.1065 53.1638 7.58654 48.2441 7.08566 47.955C6.58479 47.6658 6.08575 47.841 6.08575 48.4453V69.6663C6.08575 70.1193 6.44243 70.3146 6.87759 70.0636C7.31255 69.8121 16.1065 64.7347 16.1065 64.7347L20.783 62.0349C20.783 62.0349 24.7509 59.7442 25.2784 59.4398C25.8058 59.135 25.7551 58.7173 25.31 58.4776C24.8651 58.2377 20.7832 55.8638 20.7832 55.8638Z" fill="white"/>
</mask>
<g mask="url(#mask1_1_3057)">
<path d="M20.7829 55.8634L16.1062 53.1634L6.08572 47.3777V47.4612L17.6713 58.9491L20.7829 55.8634Z" fill="url(#paint1_linear_1_3057)"/>
</g>
<mask id="mask2_1_3057" style="mask-type:luminance" maskUnits="userSpaceOnUse" x="6" y="47" width="20" height="24">
<path d="M20.7832 55.8638L16.1065 53.1638C16.1065 53.1638 7.58654 48.2441 7.08566 47.955C6.58479 47.6658 6.08575 47.841 6.08575 48.4453V69.6663C6.08575 70.1193 6.44243 70.3146 6.87759 70.0636C7.31255 69.8121 16.1065 64.7347 16.1065 64.7347L20.783 62.0349C20.783 62.0349 24.7509 59.7442 25.2784 59.4398C25.8058 59.135 25.7551 58.7173 25.31 58.4776C24.8651 58.2377 20.7832 55.8638 20.7832 55.8638Z" fill="white"/>
</mask>
<g mask="url(#mask2_1_3057)">
<path d="M6.08572 70.4364V70.5199L16.1062 64.734L20.7827 62.034L17.6713 58.9487L6.08572 70.4364Z" fill="url(#paint2_linear_1_3057)"/>
</g>
<mask id="mask3_1_3057" style="mask-type:luminance" maskUnits="userSpaceOnUse" x="6" y="47" width="20" height="24">
<path d="M20.7832 55.8638L16.1065 53.1638C16.1065 53.1638 7.58654 48.2441 7.08566 47.955C6.58479 47.6658 6.08575 47.841 6.08575 48.4453V69.6663C6.08575 70.1193 6.44243 70.3146 6.87759 70.0636C7.31255 69.8121 16.1065 64.7347 16.1065 64.7347L20.783 62.0349C20.783 62.0349 24.7509 59.7442 25.2784 59.4398C25.8058 59.135 25.7551 58.7173 25.31 58.4776C24.8651 58.2377 20.7832 55.8638 20.7832 55.8638Z" fill="white"/>
</mask>
<g mask="url(#mask3_1_3057)">
<path d="M20.7824 55.8635L17.6707 58.9492L20.7822 62.0345L26.1268 58.949L20.7824 55.8635Z" fill="url(#paint3_linear_1_3057)"/>
</g>
<path d="M79.0246 63.4403C78.5894 63.4403 78.1924 63.36 77.8329 63.1996C77.4734 63.039 77.1712 62.792 76.9273 62.459H76.8543C76.9029 62.8492 76.9273 63.2191 76.9273 63.5684V66.3179H75.9158V56.6367H76.7387L76.8786 57.5512H76.9273C77.1876 57.1852 77.4906 56.9214 77.8359 56.7587C78.1812 56.5961 78.5777 56.5148 79.0244 56.5148C79.9105 56.5148 80.5945 56.8177 81.0759 57.4232C81.5575 58.0287 81.7984 58.8784 81.7984 59.9713C81.7984 61.0688 81.5534 61.9211 81.0641 62.5292C80.5744 63.1367 79.8947 63.4403 79.0246 63.4403ZM78.8782 57.3744C78.1954 57.3744 77.7017 57.5636 77.3969 57.9413C77.0921 58.3193 76.9356 58.921 76.9273 59.7461V59.9714C76.9273 60.9104 77.0838 61.582 77.3969 61.9866C77.71 62.3911 78.2121 62.5929 78.9025 62.5929C79.48 62.5929 79.9323 62.3595 80.2596 61.8921C80.5864 61.4249 80.7501 60.7807 80.7501 59.9592C80.7501 59.1264 80.5864 58.4868 80.2596 58.0419C79.9325 57.5966 79.4717 57.3744 78.8782 57.3744ZM84.1417 63.3182H83.1299V53.8322H84.1417V63.3182ZM89.9601 63.3182L89.7587 62.3672H89.71C89.3767 62.7861 89.0445 63.0698 88.7132 63.2176C88.382 63.3663 87.9684 63.4403 87.4728 63.4403C86.8103 63.4403 86.2912 63.2696 85.915 62.9283C85.5389 62.587 85.3511 62.1015 85.3511 61.4713C85.3511 60.1222 86.4303 59.4149 88.5883 59.3496L89.7226 59.3129V58.8984C89.7226 58.3741 89.6096 57.9868 89.384 57.7371C89.1587 57.4869 88.7973 57.362 88.3019 57.362C87.7449 57.362 87.1149 57.5327 86.412 57.874L86.101 57.0998C86.4305 56.9209 86.7908 56.7808 87.1834 56.6792C87.5756 56.5776 87.9686 56.5268 88.363 56.5268C89.1595 56.5268 89.7498 56.7034 90.1341 57.057C90.5179 57.4107 90.71 57.9776 90.71 58.7581V63.318H89.9601L89.9601 63.3182ZM87.6739 62.6052C88.3036 62.6052 88.7983 62.4325 89.1583 62.0871C89.5176 61.7418 89.6979 61.258 89.6979 60.6359V60.0324L88.6854 60.0748C87.8808 60.1038 87.301 60.2283 86.945 60.4503C86.5895 60.6717 86.4116 61.0163 86.4116 61.4837C86.4116 61.8493 86.5222 62.1279 86.744 62.3185C86.9656 62.5097 87.2753 62.6052 87.6739 62.6052ZM91.2974 56.6367H92.3823L93.8455 60.4471C94.1665 61.317 94.3658 61.9448 94.4433 62.3311H94.492C94.5449 62.1234 94.6558 61.7692 94.8241 61.2667C94.9928 60.7646 95.5448 59.2217 96.4792 56.6367H97.5649L94.6931 64.2451C94.4088 64.997 94.0765 65.5305 93.6961 65.846C93.3163 66.1607 92.8497 66.3179 92.2975 66.3179C91.9885 66.3179 91.6837 66.2834 91.3826 66.2145V65.4038C91.606 65.4524 91.8562 65.477 92.1326 65.477C92.8278 65.477 93.3232 65.0868 93.6202 64.3064L93.9919 63.3555L91.2974 56.6367ZM60.2779 57.2576C60.5991 57.5234 61.2699 58.0818 61.2699 59.1446C61.2699 60.1782 60.6829 60.6683 60.0958 61.1288C59.9141 61.3103 59.7044 61.5066 59.7044 61.8144C59.7044 62.1212 59.9139 62.2891 60.0682 62.415L60.5715 62.8056C61.1864 63.3229 61.7448 63.7984 61.7448 64.763C61.7448 66.0766 60.473 67.4038 58.0696 67.4038C56.0429 67.4038 55.0651 66.4398 55.0651 65.405C55.0651 64.9021 55.3155 64.1897 56.1412 63.7C57.0071 63.169 58.1818 63.0998 58.8104 63.0568C58.6141 62.8056 58.3911 62.5399 58.3911 62.1074C58.3911 61.8702 58.4612 61.7303 58.5308 61.5617C58.3765 61.5759 58.223 61.5899 58.0831 61.5899C56.6021 61.5899 55.7637 60.4858 55.7637 59.3963C55.7637 58.7533 56.0575 58.0401 56.6577 57.5236C57.4546 56.8668 58.4049 56.7547 59.1602 56.7547H62.0385L61.144 57.2578H60.2779L60.2779 57.2576ZM59.2853 63.463C59.1736 63.4484 59.1034 63.4484 58.9643 63.4484C58.8386 63.4484 58.0828 63.477 57.4966 63.6731C57.1892 63.784 56.2945 64.1194 56.2945 65.1122C56.2945 66.104 57.2593 66.8178 58.7548 66.8178C60.0956 66.8178 60.8092 66.1736 60.8092 65.3079C60.8092 64.5937 60.3479 64.2179 59.2853 63.463ZM59.6908 60.8072C60.0118 60.4854 60.0394 60.0387 60.0394 59.7868C60.0394 58.7808 59.4388 57.2156 58.2791 57.2156C57.9153 57.2156 57.5244 57.3971 57.3007 57.6769C57.0634 57.9703 56.9929 58.3473 56.9929 58.7111C56.9929 59.6473 57.5379 61.1988 58.7404 61.1988C59.0898 61.1988 59.4664 61.0311 59.6908 60.8072ZM51.4795 63.2393C49.2613 63.2393 48.0753 61.509 48.0753 59.946C48.0753 58.1179 49.568 56.5559 51.6896 56.5559C53.7397 56.5559 55.0235 58.1599 55.0235 59.8486C55.0237 61.4944 53.7545 63.2393 51.4795 63.2393ZM53.2234 62.1092C53.5588 61.6623 53.6426 61.1045 53.6426 60.5598C53.6426 59.3316 53.0565 56.9879 51.3262 56.9879C50.8659 56.9879 50.4056 57.1696 50.0708 57.4632C49.5266 57.9509 49.4284 58.5651 49.4284 59.1657C49.4284 60.546 50.1122 62.8198 51.8009 62.8198C52.345 62.8198 52.9032 62.5552 53.2234 62.1092ZM43.9169 63.2393C41.6983 63.2393 40.512 61.509 40.512 59.946C40.512 58.1179 42.0053 56.5559 44.1264 56.5559C46.1771 56.5559 47.4606 58.1599 47.4606 59.8486C47.4609 61.4944 46.1915 63.2393 43.9169 63.2393ZM45.6612 62.1092C45.996 61.6623 46.0799 61.1045 46.0799 60.5598C46.0799 59.3316 45.4935 56.9879 43.7632 56.9879C43.3031 56.9879 42.8424 57.1696 42.5078 57.4632C41.9635 57.9509 41.866 58.5651 41.866 59.1657C41.866 60.546 42.5493 62.8198 44.2383 62.8198C44.7826 62.8198 45.3404 62.5552 45.6612 62.1092ZM39.4462 63.0205L37.4399 63.4835C36.626 63.61 35.8968 63.7213 35.1256 63.7213C31.2534 63.7213 29.781 60.8735 29.781 58.6429C29.781 55.9219 31.8708 53.3975 35.4484 53.3975C36.2062 53.3975 36.935 53.5094 37.5942 53.6919C38.6463 53.9866 39.1372 54.3509 39.446 54.5616L38.2813 55.6698L37.7905 55.7815L38.1411 55.2202C37.6644 54.7577 36.7939 53.9022 35.1392 53.9022C32.9226 53.9022 31.253 55.5863 31.253 58.0409C31.253 60.6774 33.1611 63.1604 36.2186 63.1604C37.1173 63.1604 37.5793 62.9784 38.0004 62.8096V60.5517L35.8826 60.6638L37.0044 60.06H39.9785L39.6141 60.4106C39.5152 60.4951 39.5016 60.5235 39.4736 60.6347C39.459 60.7612 39.4458 61.1684 39.4458 61.3085V63.0206H39.4462V63.0205Z" fill="#F9F9F9"/>
<path d="M64.7111 62.6171C64.2479 62.5749 64.151 62.4912 64.151 61.9435V54.0039C64.1538 53.9737 64.1557 53.9426 64.1585 53.9134C64.2151 53.4227 64.3552 53.3385 64.7905 53.0857H62.7839L61.7315 53.5908H62.804V53.5971L62.8032 53.592V62.2525C62.8032 62.5325 62.7478 62.5751 62.4248 62.9955H64.908L65.4271 62.6877C65.1888 62.6587 64.95 62.6451 64.7111 62.6171ZM70.4193 62.7461C70.2666 62.8298 70.1133 62.9278 69.9606 62.9969C69.5001 63.2058 69.0266 63.2617 68.6079 63.2617C68.1632 63.2617 67.466 63.2329 66.7549 62.7181C65.7666 62.0209 65.3346 60.8229 65.3346 59.7784C65.3346 57.6194 67.0899 56.5607 68.5247 56.5607C69.0264 56.5607 69.5425 56.6858 69.9604 56.9511C70.6564 57.41 70.8374 58.009 70.9344 58.3296L67.6613 59.6535L66.5884 59.737C66.9362 61.5063 68.1342 62.5364 69.4581 62.5364C70.1685 62.5364 70.6841 62.2862 71.1576 62.0497L70.4193 62.7461ZM69.1102 58.594C69.3744 58.4968 69.5137 58.4129 69.5137 58.218C69.5137 57.6612 68.8871 57.02 68.1342 57.02C67.5763 57.02 66.5322 57.4521 66.5322 58.9564C66.5322 59.1932 66.5602 59.4438 66.5746 59.6955L69.1102 58.594ZM71.7639 56.656V57.5752H71.6522V56.656H71.348V56.5607H72.0679V56.656H71.7639ZM73.0171 57.5752V56.6475H73.012L72.729 57.5752H72.6416L72.3561 56.6475H72.3524V57.5752H72.251V56.5607H72.4248L72.6831 57.3808H72.6868L72.9413 56.5607H73.1175V57.5752H73.0171Z" fill="#F9F9F9"/>
<path d="M32.5658 50.6663H31.8687C31.8687 50.5704 31.8026 50.2988 31.6703 49.8515H30.6639C30.5275 50.2915 30.4591 50.563 30.4591 50.6663H29.8036C29.8036 50.6097 29.9731 50.1449 30.3121 49.2722C30.6512 48.3994 30.8207 47.9186 30.8207 47.8302H31.6442C31.6442 47.9129 31.7977 48.3866 32.1049 49.2515C32.4121 50.1163 32.5658 50.5878 32.5658 50.6663ZM31.5594 49.4354C31.311 48.6861 31.1869 48.281 31.1869 48.2199H31.152C31.152 48.2765 31.0235 48.6817 30.7666 49.4354H31.5594ZM35.3747 50.6663H34.8367C34.8367 50.6067 34.637 50.2923 34.2377 49.7231C33.8196 49.1233 33.5813 48.7133 33.5233 48.4925H33.4885C33.5248 48.8104 33.543 49.098 33.543 49.3551C33.543 49.7138 33.5532 50.151 33.5735 50.6665H33.0375C33.0592 50.2163 33.0702 49.7219 33.0702 49.1832C33.0702 48.6531 33.0592 48.2021 33.0375 47.8304H33.6844C33.6844 47.9075 33.8636 48.2147 34.2223 48.7519C34.6042 49.3225 34.8236 49.7096 34.8802 49.913H34.9128C34.8779 49.5891 34.8605 49.2987 34.8605 49.0416C34.8605 48.6482 34.8503 48.2443 34.8301 47.8304H35.3747C35.3542 48.1906 35.3443 48.6415 35.3443 49.1832C35.3441 49.7288 35.3542 50.2232 35.3747 50.6663ZM38.5318 49.1501C38.5318 49.5625 38.3996 49.9227 38.1353 50.2305C37.8709 50.5385 37.5006 50.6922 37.0243 50.6922C36.8094 50.6922 36.5131 50.6835 36.1355 50.6661C36.1544 50.2275 36.1639 49.7329 36.1639 49.1828C36.1639 48.6543 36.1544 48.2033 36.1355 47.83H36.5168C36.5792 47.83 36.6721 47.8278 36.7956 47.8235C36.9189 47.8193 36.9996 47.817 37.0373 47.817C37.5615 47.817 37.9415 47.9478 38.1777 48.2092C38.4138 48.4706 38.5318 48.7841 38.5318 49.1501ZM37.9372 49.2438C37.9372 48.9649 37.8559 48.7301 37.6933 48.5389C37.5306 48.3481 37.2822 48.2526 36.9482 48.2526C36.8858 48.2526 36.8002 48.2591 36.6911 48.2723C36.7055 48.5628 36.7128 48.8662 36.7128 49.1827C36.7128 49.5299 36.7201 49.874 36.7345 50.2153C36.8277 50.2341 36.9225 50.2436 37.0176 50.2437C37.3299 50.2437 37.561 50.1466 37.7113 49.9527C37.8616 49.7588 37.9372 49.5226 37.9372 49.2438ZM41.4431 50.6663H40.7982C40.6297 50.1522 40.5006 49.8349 40.4105 49.7144C40.3205 49.5938 40.1753 49.5335 39.975 49.5335C39.8906 49.5335 39.8101 49.5344 39.7332 49.5358C39.7332 49.9091 39.7397 50.2859 39.7529 50.6663H39.1474C39.1663 50.2277 39.1758 49.7331 39.1758 49.1829C39.1758 48.6545 39.1663 48.2035 39.1474 47.8302H39.5242C39.5678 47.8302 39.6588 47.828 39.7975 47.8237C39.9362 47.8195 40.0644 47.8172 40.182 47.8172C40.8485 47.8172 41.1819 48.0451 41.1819 48.5012C41.1819 48.8628 40.9917 49.1146 40.6113 49.2572V49.2898C40.7579 49.3304 40.8865 49.4449 40.9968 49.6327C41.1069 49.8207 41.2557 50.1652 41.4431 50.6663ZM40.6263 48.6622C40.6263 48.3732 40.4403 48.2287 40.0686 48.2287C39.9322 48.2287 39.8115 48.2388 39.7071 48.2591C39.7231 48.4842 39.731 48.7776 39.731 49.1391C39.8109 49.1422 39.8784 49.1434 39.9336 49.1434C40.3953 49.1436 40.6263 48.9832 40.6263 48.6622ZM44.5654 49.1959C44.5654 49.6416 44.429 50.0113 44.1558 50.3047C43.8827 50.5979 43.5451 50.7447 43.143 50.7447C42.7595 50.7447 42.4385 50.6101 42.1802 50.3406C41.9216 50.0713 41.7925 49.7288 41.7925 49.3137C41.7925 48.868 41.9289 48.4983 42.2021 48.2049C42.475 47.9117 42.8126 47.7649 43.2149 47.7649C43.5984 47.7649 43.9192 47.8991 44.1777 48.1678C44.4363 48.4365 44.5654 48.779 44.5654 49.1959ZM43.9644 49.259C43.9644 48.9554 43.8867 48.7093 43.7314 48.5205C43.5759 48.3317 43.3843 48.2374 43.1563 48.2374C42.9442 48.2374 42.7642 48.3325 42.6161 48.5227C42.4681 48.7129 42.3937 48.9532 42.3937 49.2438C42.3937 49.5457 42.4718 49.7915 42.6279 49.9811C42.784 50.1707 42.9753 50.2654 43.202 50.2654C43.4139 50.2654 43.5941 50.1699 43.7422 49.9788C43.8902 49.788 43.9644 49.5479 43.9644 49.259ZM45.7971 50.6663H45.1807C45.1995 50.2161 45.2091 49.7217 45.2091 49.1829C45.2091 48.6529 45.1996 48.2019 45.1807 47.8302H45.7971C45.7783 48.1962 45.7687 48.647 45.7687 49.1829C45.7687 49.7302 45.7783 50.2248 45.7971 50.6663ZM48.9544 49.1501C48.9544 49.5625 48.8222 49.9227 48.558 50.2305C48.2936 50.5385 47.9233 50.6922 47.4469 50.6922C47.232 50.6922 46.9357 50.6835 46.5581 50.6661C46.577 50.2275 46.5865 49.7329 46.5865 49.1828C46.5865 48.6543 46.577 48.2033 46.5581 47.83H46.9394C47.0018 47.83 47.0947 47.8278 47.2182 47.8235C47.3415 47.8193 47.4222 47.817 47.4599 47.817C47.9841 47.817 48.3641 47.9478 48.6003 48.2092C48.8364 48.4706 48.9544 48.7841 48.9544 49.1501ZM48.3599 49.2438C48.3599 48.9649 48.2785 48.7301 48.1159 48.5389C47.9533 48.3481 47.7049 48.2526 47.3709 48.2526C47.3084 48.2526 47.2229 48.2591 47.1138 48.2723C47.1282 48.5628 47.1354 48.8662 47.1354 49.1827C47.1354 49.5299 47.1428 49.874 47.1571 50.2153C47.2503 50.2341 47.3451 50.2436 47.4402 50.2437C47.7525 50.2437 47.9837 50.1466 48.1339 49.9527C48.2842 49.7588 48.3599 49.5226 48.3599 49.2438ZM53.143 50.6663H52.4458C52.4458 50.5704 52.3797 50.2988 52.2473 49.8515H51.2409C51.1045 50.2915 51.0361 50.563 51.0361 50.6663H50.3807C50.3807 50.6097 50.5503 50.1449 50.8893 49.2722C51.2284 48.3994 51.3979 47.9186 51.3979 47.8302H52.2214C52.2214 47.9129 52.3751 48.3866 52.6821 49.2515C52.9891 50.1163 53.143 50.5878 53.143 50.6663ZM52.1366 49.4354C51.8882 48.6861 51.7639 48.281 51.7639 48.2199H51.729C51.729 48.2765 51.6006 48.6817 51.3437 49.4354H52.1366ZM55.6838 48.5728C55.6838 48.9199 55.5548 49.1762 55.2971 49.3417C55.0394 49.5072 54.7232 49.5901 54.3485 49.5901C54.2802 49.5901 54.2317 49.5887 54.2025 49.5858C54.2025 49.859 54.2104 50.2189 54.2264 50.6663H53.6142C53.6331 50.2467 53.6426 49.7521 53.6426 49.1829C53.6426 48.6602 53.6331 48.2092 53.6142 47.8302H53.9932C54.047 47.8302 54.1499 47.828 54.3025 47.8237C54.455 47.8195 54.587 47.8172 54.6989 47.8172C54.9747 47.8172 55.2079 47.8797 55.3981 48.0046C55.5883 48.1295 55.6838 48.3187 55.6838 48.5728ZM55.1219 48.6926C55.1219 48.3819 54.9157 48.2264 54.5032 48.2264C54.4 48.2264 54.2911 48.2374 54.1766 48.2591C54.1926 48.5336 54.2005 48.8443 54.2005 49.1915C54.2368 49.1945 54.279 49.1957 54.3268 49.1957C54.8569 49.1959 55.1219 49.0282 55.1219 48.6926ZM58.2964 48.5728C58.2964 48.9199 58.1675 49.1762 57.9099 49.3417C57.6522 49.5072 57.3359 49.5901 56.9611 49.5901C56.8928 49.5901 56.8443 49.5887 56.8151 49.5858C56.8151 49.859 56.823 50.2189 56.839 50.6663H56.2269C56.2457 50.2467 56.2553 49.7521 56.2553 49.1829C56.2553 48.6602 56.2457 48.2092 56.2269 47.8302H56.6059C56.6596 47.8302 56.7626 47.828 56.9151 47.8237C57.0676 47.8195 57.1996 47.8172 57.3115 47.8172C57.5873 47.8172 57.8205 47.8797 58.0107 48.0046C58.2009 48.1295 58.2964 48.3187 58.2964 48.5728ZM57.7345 48.6926C57.7345 48.3819 57.5283 48.2264 57.1159 48.2264C57.0126 48.2264 56.9037 48.2374 56.7892 48.2591C56.8052 48.5336 56.8131 48.8443 56.8131 49.1915C56.8494 49.1945 56.8916 49.1957 56.9394 49.1957C57.4695 49.1959 57.7345 49.0282 57.7345 48.6926ZM62.568 49.1959C62.568 49.6416 62.4315 50.0113 62.1583 50.3047C61.8852 50.5981 61.5476 50.7447 61.1455 50.7447C60.762 50.7447 60.441 50.6101 60.1827 50.3406C59.9243 50.0713 59.795 49.7288 59.795 49.3137C59.795 48.868 59.9314 48.4983 60.2046 48.2049C60.4777 47.9115 60.8154 47.7649 61.2174 47.7649C61.6009 47.7649 61.9219 47.8991 62.1802 48.1678C62.4386 48.4365 62.568 48.779 62.568 49.1959ZM61.9667 49.259C61.9667 48.9554 61.889 48.7093 61.7337 48.5205C61.5784 48.3317 61.3866 48.2374 61.1587 48.2374C60.9465 48.2374 60.7665 48.3325 60.6184 48.5227C60.4704 48.7129 60.3962 48.9532 60.3962 49.2438C60.3962 49.5457 60.4743 49.7915 60.6304 49.9811C60.7865 50.1707 60.9778 50.2654 61.2043 50.2654C61.4164 50.2654 61.5964 50.1699 61.7445 49.9789C61.8927 49.788 61.9667 49.5479 61.9667 49.259ZM65.5204 50.6663H64.9824C64.9824 50.6067 64.7829 50.2923 64.3834 49.7231C63.9653 49.1233 63.727 48.7133 63.669 48.4925H63.6342C63.6705 48.8104 63.6887 49.098 63.6887 49.3551C63.6887 49.7138 63.6989 50.151 63.7192 50.6665H63.1832C63.2049 50.2163 63.2159 49.7219 63.2159 49.1832C63.2159 48.6531 63.2049 48.2021 63.1832 47.8304H63.8301C63.8301 47.9075 64.0095 48.2147 64.368 48.7519C64.7501 49.3225 64.9693 49.7096 65.0259 49.913H65.0585C65.0236 49.5891 65.0062 49.2987 65.0062 49.0416C65.0062 48.6482 64.9961 48.2443 64.9758 47.8304H65.5204C65.5 48.1906 65.49 48.6415 65.49 49.1832C65.49 49.7288 65.5001 50.2232 65.5204 50.6663Z" fill="#F9F9FA"/>
<path d="M103.467 110.415V110.458C103.444 112.832 101.513 114.75 99.1335 114.75H4.58483C2.19124 114.75 0.25 112.809 0.25 110.415V85.6578C0.25 83.2642 2.19121 81.323 4.58483 81.323H99.1333C101.527 81.323 103.467 83.2641 103.467 85.6578V110.415Z" stroke="white" stroke-width="0.5"/>
<path d="M23.2637 97.2133C23.2415 94.7489 25.2816 93.5499 25.3749 93.4941C24.2195 91.8096 22.4287 91.5794 21.7994 91.5611C20.2954 91.4028 18.8364 92.461 18.0702 92.461C17.2888 92.461 16.1089 91.5764 14.8373 91.6023C13.201 91.6276 11.6702 92.575 10.8306 94.0462C9.09791 97.0458 10.3902 101.454 12.0502 103.879C12.8806 105.066 13.8509 106.392 15.121 106.345C16.3636 106.294 16.8277 105.553 18.3272 105.553C19.8129 105.553 20.2487 106.345 21.544 106.316C22.8776 106.294 23.7171 105.123 24.5185 103.925C25.4781 102.564 25.8635 101.223 25.8788 101.154C25.8474 101.144 23.2889 100.167 23.2637 97.2133Z" fill="white"/>
<path d="M20.8177 89.9657C21.486 89.13 21.9432 87.993 21.8163 86.8391C20.849 86.8819 19.6394 87.5082 18.9428 88.3256C18.3265 89.0459 17.7759 90.2265 17.9181 91.3367C19.0047 91.4178 20.1203 90.7885 20.8177 89.9657Z" fill="white"/>
<path d="M41.248 106.175H39.5115L38.5603 103.186H35.254L34.3479 106.175H32.6572L35.933 95.9988H37.9562L41.248 106.175ZM38.2735 101.932L37.4133 99.2745C37.3223 99.0031 37.1518 98.3638 36.9002 97.3576H36.8696C36.7695 97.7903 36.6081 98.4296 36.3864 99.2745L35.5415 101.932H38.2735Z" fill="white"/>
<path d="M49.6725 102.416C49.6725 103.664 49.3353 104.65 48.6609 105.375C48.0568 106.019 47.3067 106.341 46.4113 106.341C45.4448 106.341 44.7505 105.994 44.3277 105.3H44.2971V109.165H42.6669V101.253C42.6669 100.469 42.6462 99.6635 42.6064 98.8376H44.0402L44.1311 100.001H44.1617C44.7054 99.1244 45.5304 98.687 46.6376 98.687C47.5032 98.687 48.2258 99.0288 48.8039 99.7132C49.3835 100.398 49.6725 101.299 49.6725 102.416ZM48.0117 102.476C48.0117 101.762 47.8511 101.173 47.5285 100.709C47.176 100.226 46.7026 99.9846 46.1093 99.9846C45.7071 99.9846 45.3416 100.119 45.0151 100.385C44.6878 100.652 44.4737 101.002 44.3735 101.434C44.3231 101.636 44.2978 101.801 44.2978 101.931V103.155C44.2978 103.689 44.4615 104.139 44.7887 104.507C45.116 104.875 45.5411 105.058 46.0642 105.058C46.6782 105.058 47.1561 104.821 47.4979 104.348C47.8404 103.875 48.0117 103.251 48.0117 102.476Z" fill="white"/>
<path d="M58.1112 102.416C58.1112 103.664 57.774 104.65 57.0988 105.375C56.4955 106.019 55.7454 106.341 54.85 106.341C53.8835 106.341 53.1892 105.994 52.7671 105.3H52.7365V109.165H51.1063V101.253C51.1063 100.469 51.0857 99.6635 51.0459 98.8376H52.4796L52.5706 100.001H52.6012C53.1441 99.1244 53.9691 98.687 55.0771 98.687C55.9419 98.687 56.6645 99.0288 57.2441 99.7132C57.8214 100.398 58.1112 101.299 58.1112 102.416ZM56.4504 102.476C56.4504 101.762 56.2891 101.173 55.9664 100.709C55.6139 100.226 55.1421 99.9846 54.548 99.9846C54.145 99.9846 53.7803 100.119 53.453 100.385C53.1257 100.652 52.9124 101.002 52.8122 101.434C52.7625 101.636 52.7365 101.801 52.7365 101.931V103.155C52.7365 103.689 52.9002 104.139 53.2259 104.507C53.5532 104.874 53.9783 105.058 54.5029 105.058C55.1169 105.058 55.5948 104.821 55.9366 104.348C56.2791 103.875 56.4504 103.251 56.4504 102.476Z" fill="white"/>
<path d="M67.5473 103.321C67.5473 104.186 67.2468 104.891 66.6435 105.434C65.9805 106.028 65.0576 106.325 63.8716 106.325C62.7767 106.325 61.8989 106.114 61.2344 105.691L61.6121 104.332C62.3278 104.765 63.1131 104.982 63.9687 104.982C64.5828 104.982 65.0607 104.843 65.404 104.566C65.7458 104.29 65.9163 103.918 65.9163 103.455C65.9163 103.042 65.7756 102.694 65.4934 102.412C65.2128 102.129 64.7441 101.867 64.0896 101.625C62.3079 100.96 61.4179 99.9869 61.4179 98.7068C61.4179 97.8703 61.7299 97.1844 62.3546 96.6507C62.977 96.1162 63.8074 95.8494 64.8458 95.8494C65.7718 95.8494 66.541 96.0107 67.155 96.3326L66.7475 97.6616C66.174 97.3496 65.5256 97.1936 64.7999 97.1936C64.2264 97.1936 63.7783 97.3351 63.4572 97.6165C63.1858 97.868 63.0496 98.1746 63.0496 98.5379C63.0496 98.9401 63.2049 99.2727 63.5168 99.5342C63.7883 99.7758 64.2815 100.037 64.9972 100.319C65.8727 100.672 66.5158 101.084 66.9294 101.557C67.3416 102.028 67.5473 102.617 67.5473 103.321Z" fill="white"/>
<path d="M37.7332 89.7367C37.7332 90.6367 37.4633 91.3141 36.9242 91.7691C36.4249 92.1889 35.7153 92.3992 34.7962 92.3992C34.3405 92.3992 33.9505 92.3793 33.624 92.3395V87.4221C34.0499 87.3533 34.5087 87.3181 35.0042 87.3181C35.8797 87.3181 36.5396 87.5085 36.9846 87.8893C37.4832 88.3198 37.7332 88.9353 37.7332 89.7367ZM36.8883 89.7589C36.8883 89.1754 36.7338 88.7281 36.4249 88.4161C36.116 88.1049 35.6649 87.9489 35.0707 87.9489C34.8184 87.9489 34.6035 87.9658 34.4254 88.0009V91.7393C34.524 91.7546 34.7045 91.7615 34.9667 91.7615C35.58 91.7615 36.0533 91.5909 36.3867 91.2499C36.7201 90.9089 36.8883 90.4119 36.8883 89.7589Z" fill="white"/>
<path d="M42.214 90.5231C42.214 91.0775 42.0557 91.5317 41.7391 91.888C41.4073 92.2542 40.9676 92.437 40.4186 92.437C39.8894 92.437 39.4681 92.2619 39.1539 91.9102C38.8403 91.5592 38.6836 91.1165 38.6836 90.5827C38.6836 90.0245 38.8449 89.5665 39.1691 89.211C39.4934 88.8554 39.9292 88.6772 40.4782 88.6772C41.0073 88.6772 41.4325 88.8523 41.7544 89.2033C42.0603 89.5444 42.214 89.9848 42.214 90.5231ZM41.3828 90.5491C41.3828 90.2165 41.3109 89.9313 41.1679 89.6935C40.9997 89.406 40.7604 89.2622 40.4492 89.2622C40.1272 89.2622 39.8826 89.406 39.7143 89.6935C39.5706 89.9313 39.4995 90.2211 39.4995 90.5636C39.4995 90.8962 39.5713 91.1815 39.7143 91.4193C39.8879 91.7068 40.1295 91.8505 40.4415 91.8505C40.7474 91.8505 40.9875 91.7045 41.1603 91.4116C41.3086 91.1692 41.3828 90.8817 41.3828 90.5491Z" fill="white"/>
<path d="M48.2196 88.75L47.0917 92.3545H46.3577L45.8905 90.7893C45.772 90.3986 45.6756 90.0101 45.6007 89.6248H45.5862C45.5166 90.0208 45.4202 90.4085 45.2964 90.7893L44.8001 92.3545H44.0576L42.9971 88.75H43.8206L44.2281 90.4636C44.3268 90.8688 44.4078 91.255 44.4728 91.6205H44.4874C44.547 91.3192 44.6456 90.9354 44.7848 90.4712L45.2964 88.7508H45.9494L46.4395 90.4345C46.558 90.8451 46.6544 91.2404 46.7285 91.6212H46.7507C46.805 91.2504 46.8868 90.8551 46.9954 90.4345L47.4328 88.7508H48.2196V88.75Z" fill="white"/>
<path d="M52.3743 92.3555H51.573V90.291C51.573 89.6548 51.3314 89.3367 50.8466 89.3367C50.6088 89.3367 50.4169 89.4239 50.2678 89.599C50.1202 89.7741 50.0452 89.9805 50.0452 90.2168V92.3548H49.2439V89.781C49.2439 89.4644 49.234 89.1211 49.2148 88.7495H49.9191L49.9565 89.313H49.9787C50.072 89.1379 50.2112 88.9934 50.3939 88.8779C50.6111 88.7433 50.8542 88.6753 51.1203 88.6753C51.4568 88.6753 51.7366 88.7839 51.9591 89.0018C52.2359 89.2687 52.3743 89.667 52.3743 90.1962V92.3555Z" fill="white"/>
<path d="M54.5848 92.3554H53.7842V87.0969H54.5848V92.3554Z" fill="white"/>
<path d="M59.3028 90.5231C59.3028 91.0775 59.1445 91.5317 58.828 91.888C58.4961 92.2542 58.0557 92.437 57.5074 92.437C56.9775 92.437 56.5562 92.2619 56.2427 91.9102C55.9292 91.5592 55.7725 91.1165 55.7725 90.5827C55.7725 90.0245 55.9338 89.5665 56.258 89.211C56.5822 88.8554 57.0181 88.6772 57.5663 88.6772C58.0962 88.6772 58.5206 88.8523 58.8433 89.2033C59.1491 89.5444 59.3028 89.9848 59.3028 90.5231ZM58.4709 90.5491C58.4709 90.2165 58.399 89.9313 58.256 89.6935C58.0886 89.406 57.8485 89.2622 57.538 89.2622C57.2153 89.2622 56.9707 89.406 56.8032 89.6935C56.6594 89.9313 56.5883 90.2211 56.5883 90.5636C56.5883 90.8962 56.6602 91.1815 56.8032 91.4193C56.9768 91.7068 57.2184 91.8505 57.5304 91.8505C57.8362 91.8505 58.0756 91.7045 58.2484 91.4116C58.3975 91.1692 58.4709 90.8817 58.4709 90.5491Z" fill="white"/>
<path d="M63.1809 92.3552H62.4613L62.4017 91.94H62.3795C62.1333 92.2711 61.7823 92.437 61.3266 92.437C60.9863 92.437 60.7111 92.3277 60.5038 92.1105C60.3157 91.9132 60.2217 91.6678 60.2217 91.3764C60.2217 90.936 60.4052 90.6003 60.7745 90.3679C61.1431 90.1354 61.6615 90.0215 62.329 90.0268V89.9596C62.329 89.4847 62.0798 89.2477 61.5805 89.2477C61.2249 89.2477 60.9114 89.3371 60.6407 89.5145L60.4778 88.9885C60.8127 88.7812 61.2264 88.6772 61.7143 88.6772C62.6563 88.6772 63.1289 89.1743 63.1289 90.1683V91.4957C63.1289 91.8559 63.1464 92.1426 63.1809 92.3552ZM62.3489 91.1165V90.5606C61.465 90.5453 61.023 90.7877 61.023 91.287C61.023 91.4751 61.0735 91.6158 61.1767 91.7098C61.2799 91.8039 61.4115 91.8505 61.5682 91.8505C61.7441 91.8505 61.9085 91.7947 62.0584 91.6838C62.209 91.5722 62.3015 91.4307 62.3359 91.2572C62.3443 91.2182 62.3489 91.1707 62.3489 91.1165Z" fill="white"/>
<path d="M67.7339 92.3554H67.0228L66.9853 91.7765H66.9631C66.736 92.217 66.3491 92.4372 65.8054 92.4372C65.3711 92.4372 65.0095 92.2667 64.7227 91.9256C64.436 91.5846 64.293 91.1419 64.293 90.5982C64.293 90.0148 64.4482 89.5423 64.7602 89.1813C65.0622 88.8449 65.4323 88.6767 65.8727 88.6767C66.3568 88.6767 66.6955 88.8395 66.8882 89.166H66.9035V87.0969H67.7056V91.3843C67.7056 91.7353 67.7148 92.0587 67.7339 92.3554ZM66.9035 90.8353V90.2343C66.9035 90.1303 66.8958 90.0462 66.8813 89.9819C66.8362 89.7892 66.7391 89.6271 66.5915 89.4964C66.4424 89.3656 66.2627 89.2999 66.0555 89.2999C65.7565 89.2999 65.5225 89.4184 65.3505 89.6562C65.18 89.894 65.0936 90.1976 65.0936 90.5684C65.0936 90.9247 65.1754 91.2138 65.3398 91.4363C65.5134 91.6733 65.7473 91.7918 66.0402 91.7918C66.3032 91.7918 66.5135 91.6932 66.6733 91.4952C66.8278 91.3124 66.9035 91.0922 66.9035 90.8353Z" fill="white"/>
<path d="M74.587 90.5231C74.587 91.0775 74.4287 91.5317 74.1122 91.888C73.7803 92.2542 73.3414 92.437 72.7916 92.437C72.2633 92.437 71.8419 92.2619 71.5269 91.9102C71.2134 91.5592 71.0566 91.1165 71.0566 90.5827C71.0566 90.0245 71.218 89.5665 71.5422 89.211C71.8664 88.8554 72.3022 88.6772 72.852 88.6772C73.3804 88.6772 73.8063 88.8523 74.1275 89.2033C74.4333 89.5444 74.587 89.9848 74.587 90.5231ZM73.7566 90.5491C73.7566 90.2165 73.6847 89.9313 73.5417 89.6935C73.3727 89.406 73.1342 89.2622 72.8222 89.2622C72.5011 89.2622 72.2564 89.406 72.0874 89.6935C71.9436 89.9313 71.8725 90.2211 71.8725 90.5636C71.8725 90.8962 71.9444 91.1815 72.0874 91.4193C72.261 91.7068 72.5026 91.8505 72.8146 91.8505C73.1204 91.8505 73.3613 91.7045 73.5341 91.4116C73.6817 91.1692 73.7566 90.8817 73.7566 90.5491Z" fill="white"/>
<path d="M78.8961 92.3555H78.0955V90.291C78.0955 89.6548 77.8538 89.3367 77.3683 89.3367C77.1305 89.3367 76.9386 89.4239 76.7902 89.599C76.6419 89.7741 76.5677 89.9805 76.5677 90.2168V92.3548H75.7656V89.781C75.7656 89.4644 75.7564 89.1211 75.7373 88.7495H76.4408L76.4782 89.313H76.5004C76.5945 89.1379 76.7336 88.9934 76.9156 88.8779C77.1335 88.7433 77.3759 88.6753 77.6428 88.6753C77.9785 88.6753 78.2583 88.7839 78.4808 89.0018C78.7584 89.2687 78.8961 89.667 78.8961 90.1962V92.3555Z" fill="white"/>
<path d="M84.2888 89.3507H83.4064V91.1018C83.4064 91.5468 83.5632 91.7693 83.8736 91.7693C84.0174 91.7693 84.1367 91.7571 84.2307 91.7318L84.2514 92.3397C84.0931 92.3994 83.8851 92.4292 83.629 92.4292C83.3124 92.4292 83.0662 92.3328 82.888 92.1401C82.7091 91.9475 82.6204 91.6232 82.6204 91.1683V89.3507H82.0936V88.7505H82.6204V88.0898L83.4057 87.8528V88.7497H84.2881L84.2888 89.3507Z" fill="white"/>
<path d="M88.5308 92.3554H87.7287V90.3061C87.7287 89.66 87.4871 89.3366 87.0031 89.3366C86.6315 89.3366 86.3776 89.5239 86.2384 89.8986C86.2147 89.9773 86.201 90.0737 86.201 90.1868V92.3546H85.4004V87.0969H86.201V89.2693H86.2163C86.4686 88.874 86.8303 88.6767 87.299 88.6767C87.6309 88.6767 87.9054 88.7853 88.1233 89.0032C88.3947 89.2746 88.5308 89.6784 88.5308 90.2121V92.3554Z" fill="white"/>
<path d="M92.9087 90.3829C92.9087 90.5267 92.898 90.6475 92.8789 90.7461H90.4756C90.4863 91.1025 90.601 91.3739 90.8235 91.562C91.0269 91.7302 91.2892 91.8143 91.6104 91.8143C91.9659 91.8143 92.2901 91.7578 92.5822 91.6438L92.7076 92.2005C92.3658 92.3488 91.9636 92.423 91.498 92.423C90.9398 92.423 90.5001 92.2586 90.182 91.9298C89.8624 91.601 89.7041 91.1598 89.7041 90.6062C89.7041 90.0626 89.8517 89.6099 90.1491 89.249C90.4596 88.8636 90.8794 88.6709 91.4093 88.6709C91.9277 88.6709 92.3215 88.8636 92.5876 89.249C92.8024 89.5548 92.9087 89.9333 92.9087 90.3829ZM92.1441 90.1757C92.1502 89.9379 92.0974 89.733 91.9889 89.5602C91.8497 89.3377 91.6379 89.226 91.3511 89.226C91.0896 89.226 90.8763 89.3346 90.7134 89.5525C90.5804 89.7261 90.5016 89.9333 90.4756 90.1757H92.1441Z" fill="white"/>
<defs>
<linearGradient id="paint0_linear_1_3057" x1="11.8785" y1="47.4617" x2="11.8785" y2="70.4372" gradientUnits="userSpaceOnUse">
<stop stop-color="#257CB0"/>
<stop offset="0.286" stop-color="#4A93B5"/>
<stop offset="0.767" stop-color="#78BCBB"/>
<stop offset="1" stop-color="#89CFBD"/>
</linearGradient>
<linearGradient id="paint1_linear_1_3057" x1="6.08591" y1="53.1632" x2="20.7831" y2="53.1632" gradientUnits="userSpaceOnUse">
<stop stop-color="#52C1AD"/>
<stop offset="1" stop-color="#DEE89A"/>
</linearGradient>
<linearGradient id="paint2_linear_1_3057" x1="13.4342" y1="58.9488" x2="13.4342" y2="70.5199" gradientUnits="userSpaceOnUse">
<stop stop-color="#EC413D"/>
<stop offset="0.167" stop-color="#DA4452"/>
<stop offset="0.575" stop-color="#B0487A"/>
<stop offset="0.862" stop-color="#954A92"/>
<stop offset="1" stop-color="#8A4A9D"/>
</linearGradient>
<linearGradient id="paint3_linear_1_3057" x1="21.8988" y1="55.8636" x2="21.8988" y2="62.0343" gradientUnits="userSpaceOnUse">
<stop stop-color="#F58879"/>
<stop offset="0.119" stop-color="#F69079"/>
<stop offset="0.713" stop-color="#FCB877"/>
<stop offset="1" stop-color="#FEC874"/>
</linearGradient>
</defs>
</svg>
