<svg width="104" height="34" viewBox="0 0 104 34" fill="none" xmlns="http://www.w3.org/2000/svg">
<path d="M103.467 29.3421V29.3848C103.444 31.7591 101.513 33.6774 99.1335 33.6774H4.58483C2.19124 33.6776 0.25 31.7362 0.25 29.3421V4.58507C0.25 2.19145 2.19121 0.250244 4.58483 0.250244H99.1333C101.527 0.250244 103.467 2.19139 103.467 4.58507V29.3421Z" stroke="white" stroke-width="0.5"/>
<mask id="mask0_1_3429" style="mask-type:luminance" maskUnits="userSpaceOnUse" x="6" y="5" width="20" height="24">
<path d="M20.7832 13.8639L16.1065 11.1639C16.1065 11.1639 7.5866 6.24426 7.08572 5.9551C6.58485 5.66594 6.08582 5.84114 6.08582 6.44542V27.6664C6.08582 28.1195 6.44249 28.3147 6.87765 28.0637C7.31261 27.8122 16.1065 22.7349 16.1065 22.7349L20.783 20.035C20.783 20.035 24.751 17.7443 25.2784 17.4399C25.8059 17.1351 25.7552 16.7174 25.3101 16.4777C24.8652 16.2378 20.7832 13.8639 20.7832 13.8639Z" fill="white"/>
</mask>
<g mask="url(#mask0_1_3429)">
<path d="M6.08582 5.4619V28.4373L17.6714 16.9497L6.08582 5.4619Z" fill="url(#paint0_linear_1_3429)"/>
</g>
<mask id="mask1_1_3429" style="mask-type:luminance" maskUnits="userSpaceOnUse" x="6" y="5" width="20" height="24">
<path d="M20.7832 13.8639L16.1065 11.1639C16.1065 11.1639 7.5866 6.24426 7.08572 5.9551C6.58485 5.66594 6.08582 5.84114 6.08582 6.44542V27.6664C6.08582 28.1195 6.44249 28.3147 6.87765 28.0637C7.31261 27.8122 16.1065 22.7349 16.1065 22.7349L20.783 20.035C20.783 20.035 24.751 17.7443 25.2784 17.4399C25.8059 17.1351 25.7552 16.7174 25.3101 16.4777C24.8652 16.2378 20.7832 13.8639 20.7832 13.8639Z" fill="white"/>
</mask>
<g mask="url(#mask1_1_3429)">
<path d="M20.783 13.8635L16.1063 11.1635L6.08582 5.37782V5.46137L17.6714 16.9492L20.783 13.8635Z" fill="url(#paint1_linear_1_3429)"/>
</g>
<mask id="mask2_1_3429" style="mask-type:luminance" maskUnits="userSpaceOnUse" x="6" y="5" width="20" height="24">
<path d="M20.7832 13.8639L16.1065 11.1639C16.1065 11.1639 7.5866 6.24426 7.08572 5.9551C6.58485 5.66594 6.08582 5.84114 6.08582 6.44542V27.6664C6.08582 28.1195 6.44249 28.3147 6.87765 28.0637C7.31261 27.8122 16.1065 22.7349 16.1065 22.7349L20.783 20.035C20.783 20.035 24.751 17.7443 25.2784 17.4399C25.8059 17.1351 25.7552 16.7174 25.3101 16.4777C24.8652 16.2378 20.7832 13.8639 20.7832 13.8639Z" fill="white"/>
</mask>
<g mask="url(#mask2_1_3429)">
<path d="M6.08582 28.4366V28.5201L16.1063 22.7342L20.7828 20.0342L17.6714 16.9489L6.08582 28.4366Z" fill="url(#paint2_linear_1_3429)"/>
</g>
<mask id="mask3_1_3429" style="mask-type:luminance" maskUnits="userSpaceOnUse" x="6" y="5" width="20" height="24">
<path d="M20.7832 13.8639L16.1065 11.1639C16.1065 11.1639 7.5866 6.24426 7.08572 5.9551C6.58485 5.66594 6.08582 5.84114 6.08582 6.44542V27.6664C6.08582 28.1195 6.44249 28.3147 6.87765 28.0637C7.31261 27.8122 16.1065 22.7349 16.1065 22.7349L20.783 20.035C20.783 20.035 24.751 17.7443 25.2784 17.4399C25.8059 17.1351 25.7552 16.7174 25.3101 16.4777C24.8652 16.2378 20.7832 13.8639 20.7832 13.8639Z" fill="white"/>
</mask>
<g mask="url(#mask3_1_3429)">
<path d="M20.7824 13.8636L17.6708 16.9493L20.7822 20.0346L26.1268 16.9491L20.7824 13.8636Z" fill="url(#paint3_linear_1_3429)"/>
</g>
<path d="M79.0246 21.4404C78.5895 21.4404 78.1924 21.3601 77.8329 21.1997C77.4734 21.0391 77.1713 20.7921 76.9273 20.4591H76.8543C76.903 20.8493 76.9273 21.2191 76.9273 21.5685V24.318H75.9158V14.6367H76.7387L76.8786 15.5513H76.9273C77.1876 15.1852 77.4906 14.9214 77.8359 14.7588C78.1813 14.5962 78.5777 14.5149 79.0244 14.5149C79.9106 14.5149 80.5945 14.8178 81.0759 15.4233C81.5575 16.0288 81.7984 16.8784 81.7984 17.9714C81.7984 19.0689 81.5535 19.9211 81.0642 20.5293C80.5745 21.1368 79.8948 21.4404 79.0246 21.4404ZM78.8782 15.3744C78.1955 15.3744 77.7017 15.5636 77.3969 15.9414C77.0922 16.3194 76.9356 16.921 76.9273 17.7462V17.9714C76.9273 18.9105 77.0838 19.5821 77.3969 19.9867C77.71 20.3912 78.2121 20.593 78.9026 20.593C79.4801 20.593 79.9323 20.3596 80.2596 19.8922C80.5865 19.425 80.7501 18.7807 80.7501 17.9593C80.7501 17.1265 80.5864 16.4869 80.2596 16.042C79.9325 15.5967 79.4718 15.3744 78.8782 15.3744ZM84.1418 21.3183H83.1299V11.8323H84.1418V21.3183ZM89.9601 21.3183L89.7587 20.3673H89.7101C89.3767 20.7862 89.0445 21.0699 88.7132 21.2177C88.3821 21.3663 87.9684 21.4404 87.4728 21.4404C86.8103 21.4404 86.2912 21.2696 85.9151 20.9283C85.5389 20.5871 85.3511 20.1016 85.3511 19.4714C85.3511 18.1223 86.4303 17.415 88.5883 17.3497L89.7226 17.313V16.8985C89.7226 16.3741 89.6097 15.9868 89.384 15.7372C89.1587 15.487 88.7973 15.3621 88.302 15.3621C87.7449 15.3621 87.1149 15.5328 86.4121 15.8741L86.101 15.0999C86.4305 14.921 86.7909 14.7809 87.1834 14.6793C87.5756 14.5777 87.9686 14.5268 88.363 14.5268C89.1595 14.5268 89.7498 14.7035 90.1341 15.0571C90.518 15.4107 90.71 15.9777 90.71 16.7582V21.3181H89.9601L89.9601 21.3183ZM87.674 20.6053C88.3036 20.6053 88.7984 20.4325 89.1583 20.0872C89.5177 19.7419 89.6979 19.2581 89.6979 18.6359V18.0325L88.6854 18.0748C87.8808 18.1038 87.3011 18.2283 86.945 18.4504C86.5895 18.6718 86.4117 19.0163 86.4117 19.4837C86.4117 19.8494 86.5222 20.128 86.744 20.3186C86.9657 20.5098 87.2753 20.6053 87.674 20.6053ZM91.2974 14.6367H92.3823L93.8456 18.4471C94.1666 19.317 94.3659 19.9449 94.4433 20.3311H94.492C94.5449 20.1235 94.6558 19.7692 94.8242 19.2668C94.9929 18.7647 95.5448 17.2217 96.4792 14.6367H97.5649L94.6932 22.2452C94.4089 22.9971 94.0765 23.5306 93.6961 23.8461C93.3163 24.1608 92.8497 24.318 92.2975 24.318C91.9885 24.318 91.6837 24.2835 91.3826 24.2146V23.4039C91.606 23.4525 91.8563 23.4771 92.1327 23.4771C92.8278 23.4771 93.3232 23.0869 93.6203 22.3064L93.992 21.3556L91.2974 14.6367ZM60.2779 15.2576C60.5991 15.5235 61.2699 16.0819 61.2699 17.1447C61.2699 18.1783 60.6829 18.6684 60.0958 19.1289C59.9142 19.3104 59.7045 19.5066 59.7045 19.8145C59.7045 20.1213 59.9139 20.2892 60.0683 20.4151L60.5716 20.8056C61.1864 21.3229 61.7448 21.7985 61.7448 22.7631C61.7448 24.0767 60.473 25.4039 58.0697 25.4039C56.0429 25.4039 55.0651 24.4398 55.0651 23.4051C55.0651 22.9022 55.3155 22.1898 56.1413 21.7001C57.0071 21.169 58.1818 21.0999 58.8104 21.0569C58.6141 20.8057 58.3911 20.54 58.3911 20.1075C58.3911 19.8702 58.4613 19.7303 58.5308 19.5618C58.3765 19.576 58.223 19.59 58.0831 19.59C56.6022 19.59 55.7637 18.4859 55.7637 17.3963C55.7637 16.7533 56.0575 16.0402 56.6578 15.5237C57.4547 14.8669 58.4049 14.7547 59.1602 14.7547H62.0385L61.144 15.2578H60.2779L60.2779 15.2576ZM59.2853 21.4631C59.1736 21.4485 59.1034 21.4485 58.9643 21.4485C58.8386 21.4485 58.0829 21.4771 57.4966 21.6732C57.1892 21.7841 56.2945 22.1195 56.2945 23.1123C56.2945 24.1041 57.2594 24.8179 58.7549 24.8179C60.0956 24.8179 60.8092 24.1736 60.8092 23.308C60.8092 22.5938 60.3479 22.218 59.2853 21.4631ZM59.6909 18.8073C60.0119 18.4855 60.0395 18.0387 60.0395 17.7869C60.0395 16.7809 59.4388 15.2157 58.2791 15.2157C57.9153 15.2157 57.5244 15.3971 57.3007 15.677C57.0635 15.9704 56.9929 16.3474 56.9929 16.7112C56.9929 17.6474 57.538 19.1988 58.7404 19.1988C59.0899 19.1988 59.4664 19.0311 59.6909 18.8073ZM51.4796 21.2394C49.2614 21.2394 48.0753 19.5091 48.0753 17.9461C48.0753 16.118 49.568 14.556 51.6897 14.556C53.7397 14.556 55.0235 16.16 55.0235 17.8487C55.0237 19.4945 53.7545 21.2394 51.4796 21.2394ZM53.2235 20.1093C53.5589 19.6624 53.6426 19.1046 53.6426 18.5599C53.6426 17.3317 53.0566 14.988 51.3263 14.988C50.866 14.988 50.4057 15.1696 50.0709 15.4633C49.5266 15.9509 49.4285 16.5652 49.4285 17.1658C49.4285 18.5461 50.1122 20.8199 51.801 20.8199C52.345 20.8199 52.9033 20.5552 53.2235 20.1093ZM43.9169 21.2394C41.6983 21.2394 40.5121 19.5091 40.5121 17.9461C40.5121 16.118 42.0053 14.556 44.1264 14.556C46.1771 14.556 47.4607 16.16 47.4607 17.8487C47.4609 19.4945 46.1915 21.2394 43.9169 21.2394ZM45.6612 20.1093C45.996 19.6624 46.08 19.1046 46.08 18.5599C46.08 17.3317 45.4935 14.988 43.7632 14.988C43.3031 14.988 42.8424 15.1696 42.5078 15.4633C41.9635 15.9509 41.866 16.5652 41.866 17.1658C41.866 18.5461 42.5494 20.8199 44.2383 20.8199C44.7826 20.8199 45.3405 20.5552 45.6612 20.1093ZM39.4463 21.0206L37.4399 21.4836C36.626 21.6101 35.8968 21.7214 35.1256 21.7214C31.2534 21.7214 29.781 18.8736 29.781 16.643C29.781 13.9219 31.8708 11.3975 35.4485 11.3975C36.2063 11.3975 36.9351 11.5095 37.5943 11.692C38.6463 11.9866 39.1372 12.351 39.4461 12.5617L38.2813 13.6699L37.7906 13.7816L38.1412 13.2203C37.6644 12.7578 36.7939 11.9023 35.1392 11.9023C32.9227 11.9023 31.253 13.5863 31.253 16.041C31.253 18.6775 33.1611 21.1605 36.2186 21.1605C37.1173 21.1605 37.5793 20.9784 38.0004 20.8097V18.5518L35.8826 18.6639L37.0044 18.0601H39.9786L39.6142 18.4107C39.5152 18.4952 39.5016 18.5236 39.4737 18.6347C39.4591 18.7613 39.4459 19.1684 39.4459 19.3086V21.0206H39.4463V21.0206Z" fill="#F9F9F9"/>
<path d="M64.7112 20.6172C64.248 20.575 64.1511 20.4912 64.1511 19.9435V12.0039C64.1539 11.9737 64.1558 11.9427 64.1586 11.9135C64.2152 11.4228 64.3553 11.3386 64.7906 11.0858H62.784L61.7316 11.5909H62.8041V11.5972L62.8033 11.5921V20.2526C62.8033 20.5326 62.7479 20.5752 62.4249 20.9956H64.9081L65.4272 20.6877C65.1889 20.6587 64.9501 20.6452 64.7112 20.6172ZM70.4194 20.7461C70.2667 20.8299 70.1134 20.9278 69.9607 20.997C69.5002 21.2058 69.0267 21.2618 68.608 21.2618C68.1633 21.2618 67.4661 21.233 66.755 20.7182C65.7666 20.021 65.3347 18.823 65.3347 17.7785C65.3347 15.6195 67.09 14.5608 68.5248 14.5608C69.0265 14.5608 69.5426 14.6859 69.9605 14.9511C70.6565 15.41 70.8375 16.009 70.9345 16.3296L67.6614 17.6536L66.5885 17.7371C66.9363 19.5063 68.1343 20.5365 69.4582 20.5365C70.1686 20.5365 70.6842 20.2862 71.1577 20.0498L70.4194 20.7461ZM69.1103 16.594C69.3745 16.4969 69.5138 16.413 69.5138 16.2181C69.5138 15.6613 68.8872 15.0201 68.1343 15.0201C67.5764 15.0201 66.5323 15.4522 66.5323 16.9564C66.5323 17.1933 66.5603 17.4439 66.5747 17.6955L69.1103 16.594ZM71.764 14.6561V15.5753H71.6523V14.6561H71.3481V14.5608H72.068V14.6561H71.764ZM73.0172 15.5753V14.6476H73.0121L72.7291 15.5753H72.6417L72.3561 14.6476H72.3525V15.5753H72.2511V14.5608H72.4249L72.6832 15.3808H72.6869L72.9413 14.5608H73.1176V15.5753H73.0172Z" fill="#F9F9F9"/>
<path d="M32.5658 8.6663H31.8687C31.8687 8.57039 31.8026 8.29886 31.6704 7.85153H30.664C30.5275 8.29156 30.4592 8.56307 30.4592 8.6663H29.8036C29.8036 8.60971 29.9731 8.14494 30.3122 7.27219C30.6512 6.39943 30.8207 5.91863 30.8207 5.83023H31.6442C31.6442 5.91297 31.7977 6.38666 32.1049 7.25151C32.4121 8.11636 32.5658 8.58782 32.5658 8.6663ZM31.5594 7.43543C31.311 6.68615 31.1869 6.28101 31.1869 6.21996H31.1521C31.1521 6.27655 31.0235 6.68169 30.7666 7.43543H31.5594ZM35.3747 8.6663H34.8368C34.8368 8.60668 34.637 8.29238 34.2378 7.72318C33.8196 7.12336 33.5814 6.71334 33.5234 6.49253H33.4885C33.5248 6.81047 33.5431 7.09801 33.5431 7.35515C33.5431 7.71386 33.5532 8.15106 33.5735 8.66652H33.0375C33.0592 8.21635 33.0702 7.72198 33.0702 7.18319C33.0702 6.65314 33.0592 6.20215 33.0375 5.83045H33.6844C33.6844 5.90751 33.8636 6.21472 34.2224 6.75188C34.6042 7.3225 34.8236 7.70961 34.8802 7.91299H34.9128C34.878 7.58915 34.8605 7.29876 34.8605 7.04165C34.8605 6.64828 34.8504 6.24433 34.8301 5.83045H35.3748C35.3543 6.19059 35.3443 6.64157 35.3443 7.18319C35.3441 7.72885 35.3543 8.22323 35.3747 8.6663ZM38.5318 7.15014C38.5318 7.56257 38.3996 7.92273 38.1354 8.23054C37.8709 8.53857 37.5007 8.69227 37.0243 8.69227C36.8094 8.69227 36.5131 8.68354 36.1356 8.6661C36.1544 8.2275 36.164 7.73291 36.164 7.18279C36.164 6.65434 36.1544 6.20336 36.1356 5.83003H36.5168C36.5792 5.83003 36.6721 5.8278 36.7956 5.82354C36.9189 5.81928 36.9996 5.81705 37.0373 5.81705C37.5615 5.81705 37.9415 5.94785 38.1777 6.20923C38.4138 6.47061 38.5318 6.78411 38.5318 7.15014ZM37.9372 7.24379C37.9372 6.96497 37.8559 6.73015 37.6933 6.53893C37.5307 6.34812 37.2823 6.25262 36.9483 6.25262C36.8858 6.25262 36.8003 6.25911 36.6912 6.27229C36.7056 6.56286 36.7129 6.86621 36.7129 7.18277C36.7129 7.52993 36.7202 7.87404 36.7345 8.21532C36.8277 8.2341 36.9225 8.2436 37.0176 8.24371C37.3299 8.24371 37.5611 8.14659 37.7113 7.95272C37.8616 7.75886 37.9372 7.52261 37.9372 7.24379ZM41.4431 8.6663H40.7983C40.6297 8.15226 40.5006 7.83491 40.4106 7.71446C40.3205 7.5938 40.1753 7.53358 39.975 7.53358C39.8906 7.53358 39.8101 7.53439 39.7333 7.53581C39.7333 7.90914 39.7398 8.28589 39.7529 8.6663H39.1475C39.1663 8.22769 39.1758 7.73311 39.1758 7.18297C39.1758 6.65455 39.1663 6.20355 39.1475 5.83023H39.5242C39.5678 5.83023 39.6589 5.828 39.7976 5.82375C39.9363 5.81949 40.0644 5.81724 40.182 5.81724C40.8486 5.81724 41.1819 6.04516 41.1819 6.50123C41.1819 6.86278 40.9917 7.11464 40.6113 7.25719V7.28984C40.7579 7.33039 40.8865 7.44496 40.9968 7.63274C41.1069 7.82071 41.2557 8.16523 41.4431 8.6663ZM40.6263 6.66222C40.6263 6.37326 40.4404 6.2287 40.0687 6.2287C39.9322 6.2287 39.8115 6.23883 39.7071 6.25911C39.7231 6.4842 39.731 6.77762 39.731 7.13917C39.8109 7.14221 39.8785 7.14343 39.9336 7.14343C40.3953 7.14363 40.6263 6.98324 40.6263 6.66222ZM44.5655 7.19593C44.5655 7.64166 44.429 8.01131 44.1559 8.30473C43.8827 8.59796 43.5451 8.74476 43.143 8.74476C42.7596 8.74476 42.4385 8.61011 42.1802 8.34062C41.9217 8.07133 41.7925 7.72885 41.7925 7.31375C41.7925 6.86804 41.929 6.49837 42.2021 6.20495C42.475 5.91174 42.8127 5.76492 43.215 5.76492C43.5984 5.76492 43.9192 5.89916 44.1778 6.16784C44.4363 6.43654 44.5655 6.77904 44.5655 7.19593ZM43.9644 7.25901C43.9644 6.95545 43.8868 6.70928 43.7315 6.52049C43.5759 6.33171 43.3843 6.23741 43.1564 6.23741C42.9443 6.23741 42.7642 6.33252 42.6162 6.52272C42.4681 6.71293 42.3937 6.95324 42.3937 7.24381C42.3937 7.54574 42.4718 7.79151 42.6279 7.98113C42.7841 8.17073 42.9753 8.26542 43.202 8.26542C43.4139 8.26542 43.5942 8.16991 43.7422 7.97888C43.8902 7.78806 43.9644 7.54796 43.9644 7.25901ZM45.7972 8.6663H45.1807C45.1996 8.21613 45.2091 7.72176 45.2091 7.18297C45.2091 6.65291 45.1996 6.20193 45.1807 5.83023H45.7972C45.7783 6.19625 45.7688 6.64703 45.7688 7.18297C45.7688 7.73027 45.7783 8.22485 45.7972 8.6663ZM48.9544 7.15014C48.9544 7.56257 48.8222 7.92273 48.558 8.23054C48.2936 8.53857 47.9233 8.69227 47.447 8.69227C47.232 8.69227 46.9358 8.68354 46.5582 8.6661C46.577 8.2275 46.5866 7.73291 46.5866 7.18279C46.5866 6.65434 46.5771 6.20336 46.5582 5.83003H46.9394C47.0019 5.83003 47.0947 5.8278 47.2182 5.82354C47.3415 5.81928 47.4222 5.81705 47.46 5.81705C47.9841 5.81705 48.3642 5.94785 48.6004 6.20923C48.8364 6.47061 48.9544 6.78411 48.9544 7.15014ZM48.3599 7.24379C48.3599 6.96497 48.2786 6.73015 48.1159 6.53893C47.9533 6.34812 47.7049 6.25262 47.3709 6.25262C47.3085 6.25262 47.2229 6.25911 47.1138 6.27229C47.1282 6.56286 47.1355 6.86621 47.1355 7.18277C47.1355 7.52993 47.1428 7.87404 47.1572 8.21532C47.2504 8.23409 47.3452 8.2436 47.4402 8.24371C47.7525 8.24371 47.9837 8.14659 48.134 7.95272C48.2842 7.75886 48.3599 7.52261 48.3599 7.24379ZM53.143 8.6663H52.4459C52.4459 8.57039 52.3798 8.29886 52.2474 7.85153H51.241C51.1045 8.29156 51.0361 8.56307 51.0361 8.6663H50.3808C50.3808 8.60971 50.5503 8.14494 50.8893 7.27219C51.2284 6.39943 51.3979 5.91863 51.3979 5.83023H52.2214C52.2214 5.91297 52.3751 6.38666 52.6821 7.25151C52.9891 8.11636 53.143 8.58782 53.143 8.6663ZM52.1366 7.43543C51.8882 6.68615 51.7639 6.28101 51.7639 6.21996H51.729C51.729 6.27655 51.6007 6.68169 51.3438 7.43543H52.1366ZM55.6838 6.57281C55.6838 6.91997 55.5549 7.17628 55.2971 7.34175C55.0394 7.50722 54.7233 7.59014 54.3485 7.59014C54.2802 7.59014 54.2317 7.58872 54.2025 7.58588C54.2025 7.85902 54.2104 8.21897 54.2265 8.6663H53.6143C53.6331 8.24675 53.6426 7.75216 53.6426 7.18297C53.6426 6.66021 53.6331 6.20923 53.6143 5.83023H53.9932C54.047 5.83023 54.15 5.828 54.3025 5.82375C54.455 5.81949 54.587 5.81724 54.6989 5.81724C54.9747 5.81724 55.2079 5.8797 55.3981 6.00461C55.5883 6.12954 55.6838 6.31873 55.6838 6.57281ZM55.1219 6.69265C55.1219 6.38198 54.9157 6.22646 54.5033 6.22646C54.4001 6.22646 54.2912 6.2374 54.1766 6.25911C54.1926 6.53367 54.2005 6.84433 54.2005 7.19149C54.2368 7.19453 54.279 7.19575 54.3269 7.19575C54.8569 7.19593 55.1219 7.02825 55.1219 6.69265ZM58.2965 6.57281C58.2965 6.91997 58.1675 7.17628 57.91 7.34175C57.6522 7.50722 57.3359 7.59014 56.9612 7.59014C56.8928 7.59014 56.8444 7.58872 56.8151 7.58588C56.8151 7.85902 56.8231 8.21897 56.8391 8.6663H56.2269C56.2458 8.24675 56.2553 7.75216 56.2553 7.18297C56.2553 6.66021 56.2458 6.20923 56.2269 5.83023H56.6059C56.6596 5.83023 56.7626 5.828 56.9151 5.82375C57.0676 5.81949 57.1996 5.81724 57.3116 5.81724C57.5873 5.81724 57.8205 5.8797 58.0107 6.00461C58.2009 6.12954 58.2965 6.31873 58.2965 6.57281ZM57.7346 6.69265C57.7346 6.38198 57.5283 6.22646 57.1159 6.22646C57.0127 6.22646 56.9038 6.2374 56.7892 6.25911C56.8052 6.53367 56.8131 6.84433 56.8131 7.19149C56.8494 7.19453 56.8916 7.19575 56.9395 7.19575C57.4695 7.19593 57.7346 7.02825 57.7346 6.69265ZM62.568 7.19593C62.568 7.64166 62.4315 8.01131 62.1584 8.30473C61.8853 8.59815 61.5476 8.74476 61.1455 8.74476C60.7621 8.74476 60.441 8.61011 60.1827 8.34062C59.9244 8.07133 59.795 7.72885 59.795 7.31375C59.795 6.86804 59.9315 6.49837 60.2046 6.20495C60.4777 5.91153 60.8154 5.76492 61.2175 5.76492C61.6009 5.76492 61.9219 5.89916 62.1803 6.16784C62.4386 6.43654 62.568 6.77904 62.568 7.19593ZM61.9667 7.25901C61.9667 6.95545 61.8891 6.70928 61.7338 6.52049C61.5784 6.33171 61.3866 6.23741 61.1587 6.23741C60.9466 6.23741 60.7665 6.33252 60.6185 6.52272C60.4704 6.71293 60.3962 6.95324 60.3962 7.24381C60.3962 7.54574 60.4743 7.79151 60.6304 7.98113C60.7866 8.17073 60.9778 8.26542 61.2043 8.26542C61.4164 8.26542 61.5965 8.16991 61.7445 7.9789C61.8927 7.78806 61.9667 7.54796 61.9667 7.25901ZM65.5204 8.6663H64.9825C64.9825 8.60668 64.7829 8.29238 64.3835 7.72318C63.9653 7.12336 63.7271 6.71334 63.6691 6.49253H63.6342C63.6705 6.81047 63.6888 7.09801 63.6888 7.35515C63.6888 7.71386 63.6989 8.15106 63.7192 8.66652H63.1832C63.2049 8.21635 63.2159 7.72198 63.2159 7.18319C63.2159 6.65314 63.205 6.20215 63.1832 5.83045H63.8301C63.8301 5.90751 64.0096 6.21472 64.3681 6.75188C64.7501 7.3225 64.9693 7.70961 65.0259 7.91299H65.0586C65.0237 7.58915 65.0062 7.29876 65.0062 7.04165C65.0062 6.64828 64.9961 6.24433 64.9758 5.83045H65.5205C65.5 6.19059 65.49 6.64157 65.49 7.18319C65.49 7.72885 65.5002 8.22323 65.5204 8.6663Z" fill="#F9F9FA"/>
<defs>
<linearGradient id="paint0_linear_1_3429" x1="11.8786" y1="5.46193" x2="11.8786" y2="28.4374" gradientUnits="userSpaceOnUse">
<stop stop-color="#257CB0"/>
<stop offset="0.286" stop-color="#4A93B5"/>
<stop offset="0.767" stop-color="#78BCBB"/>
<stop offset="1" stop-color="#89CFBD"/>
</linearGradient>
<linearGradient id="paint1_linear_1_3429" x1="6.086" y1="11.1633" x2="20.7832" y2="11.1633" gradientUnits="userSpaceOnUse">
<stop stop-color="#52C1AD"/>
<stop offset="1" stop-color="#DEE89A"/>
</linearGradient>
<linearGradient id="paint2_linear_1_3429" x1="13.4343" y1="16.949" x2="13.4343" y2="28.5201" gradientUnits="userSpaceOnUse">
<stop stop-color="#EC413D"/>
<stop offset="0.167" stop-color="#DA4452"/>
<stop offset="0.575" stop-color="#B0487A"/>
<stop offset="0.862" stop-color="#954A92"/>
<stop offset="1" stop-color="#8A4A9D"/>
</linearGradient>
<linearGradient id="paint3_linear_1_3429" x1="21.8989" y1="13.8637" x2="21.8989" y2="20.0344" gradientUnits="userSpaceOnUse">
<stop stop-color="#F58879"/>
<stop offset="0.119" stop-color="#F69079"/>
<stop offset="0.713" stop-color="#FCB877"/>
<stop offset="1" stop-color="#FEC874"/>
</linearGradient>
</defs>
</svg>
