<svg width="17" height="16" viewBox="0 0 17 16" fill="none" xmlns="http://www.w3.org/2000/svg">
<path d="M1 1H2.05969C2.44962 1 2.78985 1.26225 2.89077 1.63841L3.1836 2.73709M3.1836 2.73709C7.44272 2.61773 11.6977 3.0912 15.8264 4.14389C15.1964 6.02014 14.4479 7.84286 13.5909 9.60136H5.01397M3.1836 2.73709L5.01397 9.60136M5.01397 9.60136C4.40564 9.60136 3.82223 9.84302 3.39208 10.2732C2.96193 10.7033 2.72027 11.2867 2.72027 11.8951H14.7622M3.86712 14.1888C3.86712 14.3408 3.80671 14.4867 3.69917 14.5942C3.59163 14.7018 3.44578 14.7622 3.2937 14.7622C3.14161 14.7622 2.99576 14.7018 2.88822 14.5942C2.78069 14.4867 2.72027 14.3408 2.72027 14.1888C2.72027 14.0367 2.78069 13.8908 2.88822 13.7833C2.99576 13.6757 3.14161 13.6153 3.2937 13.6153C3.44578 13.6153 3.59163 13.6757 3.69917 13.7833C3.80671 13.8908 3.86712 14.0367 3.86712 14.1888ZM13.6153 14.1888C13.6153 14.3408 13.5549 14.4867 13.4474 14.5942C13.3398 14.7018 13.194 14.7622 13.0419 14.7622C12.8898 14.7622 12.744 14.7018 12.6364 14.5942C12.5289 14.4867 12.4685 14.3408 12.4685 14.1888C12.4685 14.0367 12.5289 13.8908 12.6364 13.7833C12.744 13.6757 12.8898 13.6153 13.0419 13.6153C13.194 13.6153 13.3398 13.6757 13.4474 13.7833C13.5549 13.8908 13.6153 14.0367 13.6153 14.1888Z" stroke="#CDD4F0" stroke-width="1.14685" stroke-linecap="round" stroke-linejoin="round"/>
</svg>
