<svg width="104" height="34" viewBox="0 0 104 34" fill="none" xmlns="http://www.w3.org/2000/svg">
<path d="M103.467 29.3421V29.3848C103.444 31.7591 101.513 33.6774 99.1335 33.6774H4.58483C2.19124 33.6776 0.25 31.7362 0.25 29.3421V4.58507C0.25 2.19145 2.19121 0.250244 4.58483 0.250244H99.1333C101.527 0.250244 103.467 2.19139 103.467 4.58507V29.3421Z" stroke="white" stroke-width="0.5"/>
<mask id="mask0_1_3069" style="mask-type:luminance" maskUnits="userSpaceOnUse" x="6" y="5" width="20" height="24">
<path d="M20.7832 13.8638L16.1065 11.1638C16.1065 11.1638 7.58654 6.24414 7.08566 5.95498C6.58479 5.66582 6.08575 5.84102 6.08575 6.4453V27.6663C6.08575 28.1193 6.44243 28.3146 6.87759 28.0636C7.31255 27.8121 16.1065 22.7347 16.1065 22.7347L20.783 20.0349C20.783 20.0349 24.7509 17.7442 25.2784 17.4398C25.8058 17.135 25.7551 16.7173 25.31 16.4776C24.8651 16.2377 20.7832 13.8638 20.7832 13.8638Z" fill="white"/>
</mask>
<g mask="url(#mask0_1_3069)">
<path d="M6.08572 5.46167V28.4371L17.6713 16.9495L6.08572 5.46167Z" fill="url(#paint0_linear_1_3069)"/>
</g>
<mask id="mask1_1_3069" style="mask-type:luminance" maskUnits="userSpaceOnUse" x="6" y="5" width="20" height="24">
<path d="M20.7832 13.8638L16.1065 11.1638C16.1065 11.1638 7.58654 6.24414 7.08566 5.95498C6.58479 5.66582 6.08575 5.84102 6.08575 6.4453V27.6663C6.08575 28.1193 6.44243 28.3146 6.87759 28.0636C7.31255 27.8121 16.1065 22.7347 16.1065 22.7347L20.783 20.0349C20.783 20.0349 24.7509 17.7442 25.2784 17.4398C25.8058 17.135 25.7551 16.7173 25.31 16.4776C24.8651 16.2377 20.7832 13.8638 20.7832 13.8638Z" fill="white"/>
</mask>
<g mask="url(#mask1_1_3069)">
<path d="M20.7829 13.8634L16.1062 11.1634L6.08572 5.37769V5.46123L17.6713 16.9491L20.7829 13.8634Z" fill="url(#paint1_linear_1_3069)"/>
</g>
<mask id="mask2_1_3069" style="mask-type:luminance" maskUnits="userSpaceOnUse" x="6" y="5" width="20" height="24">
<path d="M20.7832 13.8638L16.1065 11.1638C16.1065 11.1638 7.58654 6.24414 7.08566 5.95498C6.58479 5.66582 6.08575 5.84102 6.08575 6.4453V27.6663C6.08575 28.1193 6.44243 28.3146 6.87759 28.0636C7.31255 27.8121 16.1065 22.7347 16.1065 22.7347L20.783 20.0349C20.783 20.0349 24.7509 17.7442 25.2784 17.4398C25.8058 17.135 25.7551 16.7173 25.31 16.4776C24.8651 16.2377 20.7832 13.8638 20.7832 13.8638Z" fill="white"/>
</mask>
<g mask="url(#mask2_1_3069)">
<path d="M6.08572 28.4364V28.5199L16.1062 22.734L20.7827 20.034L17.6713 16.9487L6.08572 28.4364Z" fill="url(#paint2_linear_1_3069)"/>
</g>
<mask id="mask3_1_3069" style="mask-type:luminance" maskUnits="userSpaceOnUse" x="6" y="5" width="20" height="24">
<path d="M20.7832 13.8638L16.1065 11.1638C16.1065 11.1638 7.58654 6.24414 7.08566 5.95498C6.58479 5.66582 6.08575 5.84102 6.08575 6.4453V27.6663C6.08575 28.1193 6.44243 28.3146 6.87759 28.0636C7.31255 27.8121 16.1065 22.7347 16.1065 22.7347L20.783 20.0349C20.783 20.0349 24.7509 17.7442 25.2784 17.4398C25.8058 17.135 25.7551 16.7173 25.31 16.4776C24.8651 16.2377 20.7832 13.8638 20.7832 13.8638Z" fill="white"/>
</mask>
<g mask="url(#mask3_1_3069)">
<path d="M20.7824 13.8635L17.6707 16.9492L20.7822 20.0345L26.1268 16.949L20.7824 13.8635Z" fill="url(#paint3_linear_1_3069)"/>
</g>
<path d="M79.0246 21.4403C78.5894 21.4403 78.1924 21.36 77.8329 21.1996C77.4734 21.039 77.1712 20.792 76.9273 20.459H76.8543C76.9029 20.8492 76.9273 21.2191 76.9273 21.5684V24.3179H75.9158V14.6367H76.7387L76.8786 15.5512H76.9273C77.1876 15.1852 77.4906 14.9214 77.8359 14.7587C78.1812 14.5961 78.5777 14.5148 79.0244 14.5148C79.9105 14.5148 80.5945 14.8177 81.0759 15.4232C81.5575 16.0287 81.7984 16.8784 81.7984 17.9713C81.7984 19.0688 81.5534 19.9211 81.0641 20.5292C80.5744 21.1367 79.8947 21.4403 79.0246 21.4403ZM78.8782 15.3744C78.1954 15.3744 77.7017 15.5636 77.3969 15.9413C77.0921 16.3193 76.9356 16.921 76.9273 17.7461V17.9714C76.9273 18.9104 77.0838 19.582 77.3969 19.9866C77.71 20.3911 78.2121 20.5929 78.9025 20.5929C79.48 20.5929 79.9323 20.3595 80.2596 19.8921C80.5864 19.4249 80.7501 18.7807 80.7501 17.9592C80.7501 17.1264 80.5864 16.4868 80.2596 16.0419C79.9325 15.5966 79.4717 15.3744 78.8782 15.3744ZM84.1417 21.3182H83.1299V11.8322H84.1417V21.3182ZM89.9601 21.3182L89.7587 20.3672H89.71C89.3767 20.7861 89.0445 21.0698 88.7132 21.2176C88.382 21.3663 87.9684 21.4403 87.4728 21.4403C86.8103 21.4403 86.2912 21.2696 85.915 20.9283C85.5389 20.587 85.3511 20.1015 85.3511 19.4713C85.3511 18.1222 86.4303 17.4149 88.5883 17.3496L89.7226 17.3129V16.8984C89.7226 16.3741 89.6096 15.9868 89.384 15.7371C89.1587 15.4869 88.7973 15.362 88.3019 15.362C87.7449 15.362 87.1149 15.5327 86.412 15.874L86.101 15.0998C86.4305 14.9209 86.7908 14.7808 87.1834 14.6792C87.5756 14.5776 87.9686 14.5268 88.363 14.5268C89.1595 14.5268 89.7498 14.7034 90.1341 15.057C90.5179 15.4107 90.71 15.9776 90.71 16.7581V21.318H89.9601L89.9601 21.3182ZM87.6739 20.6052C88.3036 20.6052 88.7983 20.4325 89.1583 20.0871C89.5176 19.7418 89.6979 19.258 89.6979 18.6359V18.0324L88.6854 18.0748C87.8808 18.1038 87.301 18.2283 86.945 18.4503C86.5895 18.6717 86.4116 19.0163 86.4116 19.4837C86.4116 19.8493 86.5222 20.1279 86.744 20.3185C86.9656 20.5097 87.2753 20.6052 87.6739 20.6052ZM91.2974 14.6367H92.3823L93.8455 18.4471C94.1665 19.317 94.3658 19.9448 94.4433 20.3311H94.492C94.5449 20.1234 94.6558 19.7692 94.8241 19.2667C94.9928 18.7646 95.5448 17.2217 96.4792 14.6367H97.5649L94.6931 22.2451C94.4088 22.997 94.0765 23.5305 93.6961 23.846C93.3163 24.1607 92.8497 24.3179 92.2975 24.3179C91.9885 24.3179 91.6837 24.2834 91.3826 24.2145V23.4038C91.606 23.4524 91.8562 23.477 92.1326 23.477C92.8278 23.477 93.3232 23.0868 93.6202 22.3064L93.9919 21.3555L91.2974 14.6367ZM60.2779 15.2576C60.5991 15.5234 61.2699 16.0818 61.2699 17.1446C61.2699 18.1782 60.6829 18.6683 60.0958 19.1288C59.9141 19.3103 59.7044 19.5066 59.7044 19.8144C59.7044 20.1212 59.9139 20.2891 60.0682 20.415L60.5715 20.8056C61.1864 21.3229 61.7448 21.7984 61.7448 22.763C61.7448 24.0766 60.473 25.4038 58.0696 25.4038C56.0429 25.4038 55.0651 24.4398 55.0651 23.405C55.0651 22.9021 55.3155 22.1897 56.1412 21.7C57.0071 21.169 58.1818 21.0998 58.8104 21.0568C58.6141 20.8056 58.3911 20.5399 58.3911 20.1074C58.3911 19.8702 58.4612 19.7303 58.5308 19.5617C58.3765 19.5759 58.223 19.5899 58.0831 19.5899C56.6021 19.5899 55.7637 18.4858 55.7637 17.3963C55.7637 16.7533 56.0575 16.0401 56.6577 15.5236C57.4546 14.8668 58.4049 14.7547 59.1602 14.7547H62.0385L61.144 15.2578H60.2779L60.2779 15.2576ZM59.2853 21.463C59.1736 21.4484 59.1034 21.4484 58.9643 21.4484C58.8386 21.4484 58.0828 21.477 57.4966 21.6731C57.1892 21.784 56.2945 22.1194 56.2945 23.1122C56.2945 24.104 57.2593 24.8178 58.7548 24.8178C60.0956 24.8178 60.8092 24.1736 60.8092 23.3079C60.8092 22.5937 60.3479 22.2179 59.2853 21.463ZM59.6908 18.8072C60.0118 18.4854 60.0394 18.0387 60.0394 17.7868C60.0394 16.7808 59.4388 15.2156 58.2791 15.2156C57.9153 15.2156 57.5244 15.3971 57.3007 15.6769C57.0634 15.9703 56.9929 16.3473 56.9929 16.7111C56.9929 17.6473 57.5379 19.1988 58.7404 19.1988C59.0898 19.1988 59.4664 19.0311 59.6908 18.8072ZM51.4795 21.2393C49.2613 21.2393 48.0753 19.509 48.0753 17.946C48.0753 16.1179 49.568 14.5559 51.6896 14.5559C53.7397 14.5559 55.0235 16.1599 55.0235 17.8486C55.0237 19.4944 53.7545 21.2393 51.4795 21.2393ZM53.2234 20.1092C53.5588 19.6623 53.6426 19.1045 53.6426 18.5598C53.6426 17.3316 53.0565 14.9879 51.3262 14.9879C50.8659 14.9879 50.4056 15.1696 50.0708 15.4632C49.5266 15.9509 49.4284 16.5651 49.4284 17.1657C49.4284 18.546 50.1122 20.8198 51.8009 20.8198C52.345 20.8198 52.9032 20.5552 53.2234 20.1092ZM43.9169 21.2393C41.6983 21.2393 40.512 19.509 40.512 17.946C40.512 16.1179 42.0053 14.5559 44.1264 14.5559C46.1771 14.5559 47.4606 16.1599 47.4606 17.8486C47.4609 19.4944 46.1915 21.2393 43.9169 21.2393ZM45.6612 20.1092C45.996 19.6623 46.0799 19.1045 46.0799 18.5598C46.0799 17.3316 45.4935 14.9879 43.7632 14.9879C43.3031 14.9879 42.8424 15.1696 42.5078 15.4632C41.9635 15.9509 41.866 16.5651 41.866 17.1657C41.866 18.546 42.5493 20.8198 44.2383 20.8198C44.7826 20.8198 45.3404 20.5552 45.6612 20.1092ZM39.4462 21.0205L37.4399 21.4835C36.626 21.61 35.8968 21.7213 35.1256 21.7213C31.2534 21.7213 29.781 18.8735 29.781 16.6429C29.781 13.9219 31.8708 11.3975 35.4484 11.3975C36.2062 11.3975 36.935 11.5094 37.5942 11.6919C38.6463 11.9866 39.1372 12.3509 39.446 12.5616L38.2813 13.6698L37.7905 13.7815L38.1411 13.2202C37.6644 12.7577 36.7939 11.9022 35.1392 11.9022C32.9226 11.9022 31.253 13.5863 31.253 16.0409C31.253 18.6774 33.1611 21.1604 36.2186 21.1604C37.1173 21.1604 37.5793 20.9784 38.0004 20.8096V18.5517L35.8826 18.6638L37.0044 18.06H39.9785L39.6141 18.4106C39.5152 18.4951 39.5016 18.5235 39.4736 18.6347C39.459 18.7612 39.4458 19.1684 39.4458 19.3085V21.0206H39.4462V21.0205Z" fill="#F9F9F9"/>
<path d="M64.7111 20.6171C64.2479 20.5749 64.151 20.4912 64.151 19.9435V12.0039C64.1538 11.9737 64.1557 11.9426 64.1585 11.9134C64.2151 11.4227 64.3552 11.3385 64.7905 11.0857H62.7839L61.7315 11.5908H62.804V11.5971L62.8032 11.592V20.2525C62.8032 20.5325 62.7478 20.5751 62.4248 20.9955H64.908L65.4271 20.6877C65.1888 20.6587 64.95 20.6451 64.7111 20.6171ZM70.4193 20.7461C70.2666 20.8298 70.1133 20.9278 69.9606 20.9969C69.5001 21.2058 69.0266 21.2617 68.6079 21.2617C68.1632 21.2617 67.466 21.2329 66.7549 20.7181C65.7666 20.0209 65.3346 18.8229 65.3346 17.7784C65.3346 15.6194 67.0899 14.5607 68.5247 14.5607C69.0264 14.5607 69.5425 14.6858 69.9604 14.9511C70.6564 15.41 70.8374 16.009 70.9344 16.3296L67.6613 17.6535L66.5884 17.737C66.9362 19.5063 68.1342 20.5364 69.4581 20.5364C70.1685 20.5364 70.6841 20.2862 71.1576 20.0497L70.4193 20.7461ZM69.1102 16.594C69.3744 16.4968 69.5137 16.4129 69.5137 16.218C69.5137 15.6612 68.8871 15.02 68.1342 15.02C67.5763 15.02 66.5322 15.4521 66.5322 16.9564C66.5322 17.1932 66.5602 17.4438 66.5746 17.6955L69.1102 16.594ZM71.7639 14.656V15.5752H71.6522V14.656H71.348V14.5607H72.0679V14.656H71.7639ZM73.0171 15.5752V14.6475H73.012L72.729 15.5752H72.6416L72.3561 14.6475H72.3524V15.5752H72.251V14.5607H72.4248L72.6831 15.3808H72.6868L72.9413 14.5607H73.1175V15.5752H73.0171Z" fill="#F9F9F9"/>
<path d="M32.5658 8.66627H31.8687C31.8687 8.57035 31.8026 8.29883 31.6703 7.8515H30.6639C30.5275 8.29153 30.4591 8.56304 30.4591 8.66627H29.8036C29.8036 8.60968 29.9731 8.14491 30.3121 7.27216C30.6512 6.3994 30.8207 5.9186 30.8207 5.8302H31.6442C31.6442 5.91294 31.7977 6.38663 32.1049 7.25148C32.4121 8.11633 32.5658 8.58779 32.5658 8.66627ZM31.5594 7.4354C31.311 6.68612 31.1869 6.28098 31.1869 6.21993H31.152C31.152 6.27652 31.0235 6.68166 30.7666 7.4354H31.5594ZM35.3747 8.66627H34.8367C34.8367 8.60665 34.637 8.29234 34.2377 7.72314C33.8196 7.12332 33.5813 6.71331 33.5233 6.4925H33.4885C33.5248 6.81044 33.543 7.09798 33.543 7.35512C33.543 7.71383 33.5532 8.15103 33.5735 8.66649H33.0375C33.0592 8.21632 33.0702 7.72194 33.0702 7.18316C33.0702 6.65311 33.0592 6.20212 33.0375 5.83042H33.6844C33.6844 5.90748 33.8636 6.21469 34.2223 6.75185C34.6042 7.32247 34.8236 7.70957 34.8802 7.91296H34.9128C34.8779 7.58912 34.8605 7.29873 34.8605 7.04162C34.8605 6.64825 34.8503 6.2443 34.8301 5.83042H35.3747C35.3542 6.19056 35.3443 6.64154 35.3443 7.18316C35.3441 7.72882 35.3542 8.2232 35.3747 8.66627ZM38.5318 7.15011C38.5318 7.56254 38.3996 7.9227 38.1353 8.23051C37.8709 8.53853 37.5006 8.69224 37.0243 8.69224C36.8094 8.69224 36.5131 8.68351 36.1355 8.66607C36.1544 8.22747 36.1639 7.73288 36.1639 7.18276C36.1639 6.65431 36.1544 6.20333 36.1355 5.83H36.5168C36.5792 5.83 36.6721 5.82777 36.7956 5.82351C36.9189 5.81925 36.9996 5.81702 37.0373 5.81702C37.5615 5.81702 37.9415 5.94782 38.1777 6.2092C38.4138 6.47058 38.5318 6.78408 38.5318 7.15011ZM37.9372 7.24376C37.9372 6.96494 37.8559 6.73012 37.6933 6.5389C37.5306 6.34808 37.2822 6.25259 36.9482 6.25259C36.8858 6.25259 36.8002 6.25908 36.6911 6.27226C36.7055 6.56283 36.7128 6.86618 36.7128 7.18274C36.7128 7.5299 36.7201 7.87401 36.7345 8.21529C36.8277 8.23406 36.9225 8.24357 37.0176 8.24368C37.3299 8.24368 37.561 8.14656 37.7113 7.95269C37.8616 7.75883 37.9372 7.52258 37.9372 7.24376ZM41.4431 8.66627H40.7982C40.6297 8.15223 40.5006 7.83488 40.4105 7.71443C40.3205 7.59377 40.1753 7.53355 39.975 7.53355C39.8906 7.53355 39.8101 7.53436 39.7332 7.53578C39.7332 7.90911 39.7397 8.28586 39.7529 8.66627H39.1474C39.1663 8.22766 39.1758 7.73308 39.1758 7.18294C39.1758 6.65452 39.1663 6.20352 39.1474 5.8302H39.5242C39.5678 5.8302 39.6588 5.82797 39.7975 5.82372C39.9362 5.81946 40.0644 5.81721 40.182 5.81721C40.8485 5.81721 41.1819 6.04513 41.1819 6.5012C41.1819 6.86275 40.9917 7.11461 40.6113 7.25716V7.28981C40.7579 7.33036 40.8865 7.44493 40.9968 7.63271C41.1069 7.82068 41.2557 8.1652 41.4431 8.66627ZM40.6263 6.66219C40.6263 6.37323 40.4403 6.22866 40.0686 6.22866C39.9322 6.22866 39.8115 6.2388 39.7071 6.25908C39.7231 6.48417 39.731 6.77759 39.731 7.13914C39.8109 7.14218 39.8784 7.1434 39.9336 7.1434C40.3953 7.1436 40.6263 6.9832 40.6263 6.66219ZM44.5654 7.1959C44.5654 7.64163 44.429 8.01128 44.1558 8.3047C43.8827 8.59793 43.5451 8.74473 43.143 8.74473C42.7595 8.74473 42.4385 8.61008 42.1802 8.34059C41.9216 8.0713 41.7925 7.72882 41.7925 7.31372C41.7925 6.86801 41.9289 6.49834 42.2021 6.20492C42.475 5.9117 42.8126 5.76489 43.2149 5.76489C43.5984 5.76489 43.9192 5.89913 44.1777 6.16781C44.4363 6.43651 44.5654 6.77901 44.5654 7.1959ZM43.9644 7.25898C43.9644 6.95542 43.8867 6.70925 43.7314 6.52046C43.5759 6.33168 43.3843 6.23738 43.1563 6.23738C42.9442 6.23738 42.7642 6.33249 42.6161 6.52269C42.4681 6.7129 42.3937 6.95321 42.3937 7.24378C42.3937 7.54571 42.4718 7.79148 42.6279 7.9811C42.784 8.17069 42.9753 8.26539 43.202 8.26539C43.4139 8.26539 43.5941 8.16988 43.7422 7.97885C43.8902 7.78803 43.9644 7.54793 43.9644 7.25898ZM45.7971 8.66627H45.1807C45.1995 8.2161 45.2091 7.72172 45.2091 7.18294C45.2091 6.65288 45.1996 6.2019 45.1807 5.8302H45.7971C45.7783 6.19622 45.7687 6.647 45.7687 7.18294C45.7687 7.73024 45.7783 8.22482 45.7971 8.66627ZM48.9544 7.15011C48.9544 7.56254 48.8222 7.9227 48.558 8.23051C48.2936 8.53853 47.9233 8.69224 47.4469 8.69224C47.232 8.69224 46.9357 8.68351 46.5581 8.66607C46.577 8.22747 46.5865 7.73288 46.5865 7.18276C46.5865 6.65431 46.577 6.20333 46.5581 5.83H46.9394C47.0018 5.83 47.0947 5.82777 47.2182 5.82351C47.3415 5.81925 47.4222 5.81702 47.4599 5.81702C47.9841 5.81702 48.3641 5.94782 48.6003 6.2092C48.8364 6.47058 48.9544 6.78408 48.9544 7.15011ZM48.3599 7.24376C48.3599 6.96494 48.2785 6.73012 48.1159 6.5389C47.9533 6.34808 47.7049 6.25259 47.3709 6.25259C47.3084 6.25259 47.2229 6.25908 47.1138 6.27226C47.1282 6.56283 47.1354 6.86618 47.1354 7.18274C47.1354 7.5299 47.1428 7.87401 47.1571 8.21529C47.2503 8.23406 47.3451 8.24357 47.4402 8.24368C47.7525 8.24368 47.9837 8.14656 48.1339 7.95269C48.2842 7.75883 48.3599 7.52258 48.3599 7.24376ZM53.143 8.66627H52.4458C52.4458 8.57035 52.3797 8.29883 52.2473 7.8515H51.2409C51.1045 8.29153 51.0361 8.56304 51.0361 8.66627H50.3807C50.3807 8.60968 50.5503 8.14491 50.8893 7.27216C51.2284 6.3994 51.3979 5.9186 51.3979 5.8302H52.2214C52.2214 5.91294 52.3751 6.38663 52.6821 7.25148C52.9891 8.11633 53.143 8.58779 53.143 8.66627ZM52.1366 7.4354C51.8882 6.68612 51.7639 6.28098 51.7639 6.21993H51.729C51.729 6.27652 51.6006 6.68166 51.3437 7.4354H52.1366ZM55.6838 6.57278C55.6838 6.91994 55.5548 7.17625 55.2971 7.34172C55.0394 7.50718 54.7232 7.59011 54.3485 7.59011C54.2802 7.59011 54.2317 7.58869 54.2025 7.58585C54.2025 7.85899 54.2104 8.21894 54.2264 8.66627H53.6142C53.6331 8.24672 53.6426 7.75212 53.6426 7.18294C53.6426 6.66018 53.6331 6.2092 53.6142 5.8302H53.9932C54.047 5.8302 54.1499 5.82797 54.3025 5.82372C54.455 5.81946 54.587 5.81721 54.6989 5.81721C54.9747 5.81721 55.2079 5.87967 55.3981 6.00458C55.5883 6.12951 55.6838 6.3187 55.6838 6.57278ZM55.1219 6.69262C55.1219 6.38195 54.9157 6.22643 54.5032 6.22643C54.4 6.22643 54.2911 6.23737 54.1766 6.25908C54.1926 6.53364 54.2005 6.8443 54.2005 7.19146C54.2368 7.1945 54.279 7.19572 54.3268 7.19572C54.8569 7.1959 55.1219 7.02822 55.1219 6.69262ZM58.2964 6.57278C58.2964 6.91994 58.1675 7.17625 57.9099 7.34172C57.6522 7.50718 57.3359 7.59011 56.9611 7.59011C56.8928 7.59011 56.8443 7.58869 56.8151 7.58585C56.8151 7.85899 56.823 8.21894 56.839 8.66627H56.2269C56.2457 8.24672 56.2553 7.75212 56.2553 7.18294C56.2553 6.66018 56.2457 6.2092 56.2269 5.8302H56.6059C56.6596 5.8302 56.7626 5.82797 56.9151 5.82372C57.0676 5.81946 57.1996 5.81721 57.3115 5.81721C57.5873 5.81721 57.8205 5.87967 58.0107 6.00458C58.2009 6.12951 58.2964 6.3187 58.2964 6.57278ZM57.7345 6.69262C57.7345 6.38195 57.5283 6.22643 57.1159 6.22643C57.0126 6.22643 56.9037 6.23737 56.7892 6.25908C56.8052 6.53364 56.8131 6.8443 56.8131 7.19146C56.8494 7.1945 56.8916 7.19572 56.9394 7.19572C57.4695 7.1959 57.7345 7.02822 57.7345 6.69262ZM62.568 7.1959C62.568 7.64163 62.4315 8.01128 62.1583 8.3047C61.8852 8.59812 61.5476 8.74473 61.1455 8.74473C60.762 8.74473 60.441 8.61008 60.1827 8.34059C59.9243 8.0713 59.795 7.72882 59.795 7.31372C59.795 6.86801 59.9314 6.49834 60.2046 6.20492C60.4777 5.9115 60.8154 5.76489 61.2174 5.76489C61.6009 5.76489 61.9219 5.89913 62.1802 6.16781C62.4386 6.43651 62.568 6.77901 62.568 7.1959ZM61.9667 7.25898C61.9667 6.95542 61.889 6.70925 61.7337 6.52046C61.5784 6.33168 61.3866 6.23738 61.1587 6.23738C60.9465 6.23738 60.7665 6.33249 60.6184 6.52269C60.4704 6.7129 60.3962 6.95321 60.3962 7.24378C60.3962 7.54571 60.4743 7.79148 60.6304 7.9811C60.7865 8.17069 60.9778 8.26539 61.2043 8.26539C61.4164 8.26539 61.5964 8.16988 61.7445 7.97887C61.8927 7.78803 61.9667 7.54793 61.9667 7.25898ZM65.5204 8.66627H64.9824C64.9824 8.60665 64.7829 8.29234 64.3834 7.72314C63.9653 7.12332 63.727 6.71331 63.669 6.4925H63.6342C63.6705 6.81044 63.6887 7.09798 63.6887 7.35512C63.6887 7.71383 63.6989 8.15103 63.7192 8.66649H63.1832C63.2049 8.21632 63.2159 7.72194 63.2159 7.18316C63.2159 6.65311 63.2049 6.20212 63.1832 5.83042H63.8301C63.8301 5.90748 64.0095 6.21469 64.368 6.75185C64.7501 7.32247 64.9693 7.70957 65.0259 7.91296H65.0585C65.0236 7.58912 65.0062 7.29873 65.0062 7.04162C65.0062 6.64825 64.9961 6.2443 64.9758 5.83042H65.5204C65.5 6.19056 65.49 6.64154 65.49 7.18316C65.49 7.72882 65.5001 8.2232 65.5204 8.66627Z" fill="#F9F9FA"/>
<defs>
<linearGradient id="paint0_linear_1_3069" x1="11.8785" y1="5.4617" x2="11.8785" y2="28.4372" gradientUnits="userSpaceOnUse">
<stop stop-color="#257CB0"/>
<stop offset="0.286" stop-color="#4A93B5"/>
<stop offset="0.767" stop-color="#78BCBB"/>
<stop offset="1" stop-color="#89CFBD"/>
</linearGradient>
<linearGradient id="paint1_linear_1_3069" x1="6.08591" y1="11.1632" x2="20.7831" y2="11.1632" gradientUnits="userSpaceOnUse">
<stop stop-color="#52C1AD"/>
<stop offset="1" stop-color="#DEE89A"/>
</linearGradient>
<linearGradient id="paint2_linear_1_3069" x1="13.4342" y1="16.9488" x2="13.4342" y2="28.5199" gradientUnits="userSpaceOnUse">
<stop stop-color="#EC413D"/>
<stop offset="0.167" stop-color="#DA4452"/>
<stop offset="0.575" stop-color="#B0487A"/>
<stop offset="0.862" stop-color="#954A92"/>
<stop offset="1" stop-color="#8A4A9D"/>
</linearGradient>
<linearGradient id="paint3_linear_1_3069" x1="21.8988" y1="13.8636" x2="21.8988" y2="20.0343" gradientUnits="userSpaceOnUse">
<stop stop-color="#F58879"/>
<stop offset="0.119" stop-color="#F69079"/>
<stop offset="0.713" stop-color="#FCB877"/>
<stop offset="1" stop-color="#FEC874"/>
</linearGradient>
</defs>
</svg>
