<svg width="104" height="35" viewBox="0 0 104 35" fill="none" xmlns="http://www.w3.org/2000/svg">
<path d="M103.467 30.203V30.2457C103.444 32.6199 101.513 34.5382 99.1335 34.5382H4.58483C2.19124 34.5384 0.25 32.597 0.25 30.203V5.44591C0.25 3.05229 2.19121 1.11108 4.58483 1.11108H99.1333C101.527 1.11108 103.467 3.05223 103.467 5.44591V30.203Z" stroke="white" stroke-width="0.5"/>
<mask id="mask0_1_3547" style="mask-type:luminance" maskUnits="userSpaceOnUse" x="6" y="6" width="20" height="24">
<path d="M20.7831 14.7247L16.1064 12.0247C16.1064 12.0247 7.58648 7.1051 7.0856 6.81594C6.58473 6.52678 6.08569 6.70198 6.08569 7.30626V28.5273C6.08569 28.9803 6.44236 29.1756 6.87753 28.9245C7.31249 28.6731 16.1064 23.5957 16.1064 23.5957L20.7829 20.8959C20.7829 20.8959 24.7509 18.6051 25.2783 18.3007C25.8057 17.9959 25.755 17.5782 25.3099 17.3386C24.865 17.0987 20.7831 14.7247 20.7831 14.7247Z" fill="white"/>
</mask>
<g mask="url(#mask0_1_3547)">
<path d="M6.08569 6.32274V29.2982L17.6713 17.8106L6.08569 6.32274Z" fill="url(#paint0_linear_1_3547)"/>
</g>
<mask id="mask1_1_3547" style="mask-type:luminance" maskUnits="userSpaceOnUse" x="6" y="6" width="20" height="24">
<path d="M20.7831 14.7247L16.1064 12.0247C16.1064 12.0247 7.58648 7.1051 7.0856 6.81594C6.58473 6.52678 6.08569 6.70198 6.08569 7.30626V28.5273C6.08569 28.9803 6.44236 29.1756 6.87753 28.9245C7.31249 28.6731 16.1064 23.5957 16.1064 23.5957L20.7829 20.8959C20.7829 20.8959 24.7509 18.6051 25.2783 18.3007C25.8057 17.9959 25.755 17.5782 25.3099 17.3386C24.865 17.0987 20.7831 14.7247 20.7831 14.7247Z" fill="white"/>
</mask>
<g mask="url(#mask1_1_3547)">
<path d="M20.7829 14.7243L16.1062 12.0243L6.08569 6.23866V6.32221L17.6713 17.81L20.7829 14.7243Z" fill="url(#paint1_linear_1_3547)"/>
</g>
<mask id="mask2_1_3547" style="mask-type:luminance" maskUnits="userSpaceOnUse" x="6" y="6" width="20" height="24">
<path d="M20.7831 14.7247L16.1064 12.0247C16.1064 12.0247 7.58648 7.1051 7.0856 6.81594C6.58473 6.52678 6.08569 6.70198 6.08569 7.30626V28.5273C6.08569 28.9803 6.44236 29.1756 6.87753 28.9245C7.31249 28.6731 16.1064 23.5957 16.1064 23.5957L20.7829 20.8959C20.7829 20.8959 24.7509 18.6051 25.2783 18.3007C25.8057 17.9959 25.755 17.5782 25.3099 17.3386C24.865 17.0987 20.7831 14.7247 20.7831 14.7247Z" fill="white"/>
</mask>
<g mask="url(#mask2_1_3547)">
<path d="M6.08569 29.2974V29.381L16.1062 23.5951L20.7827 20.8951L17.6713 17.8098L6.08569 29.2974Z" fill="url(#paint2_linear_1_3547)"/>
</g>
<mask id="mask3_1_3547" style="mask-type:luminance" maskUnits="userSpaceOnUse" x="6" y="6" width="20" height="24">
<path d="M20.7831 14.7247L16.1064 12.0247C16.1064 12.0247 7.58648 7.1051 7.0856 6.81594C6.58473 6.52678 6.08569 6.70198 6.08569 7.30626V28.5273C6.08569 28.9803 6.44236 29.1756 6.87753 28.9245C7.31249 28.6731 16.1064 23.5957 16.1064 23.5957L20.7829 20.8959C20.7829 20.8959 24.7509 18.6051 25.2783 18.3007C25.8057 17.9959 25.755 17.5782 25.3099 17.3386C24.865 17.0987 20.7831 14.7247 20.7831 14.7247Z" fill="white"/>
</mask>
<g mask="url(#mask3_1_3547)">
<path d="M20.7823 14.7245L17.6707 17.8102L20.7821 20.8955L26.1267 17.81L20.7823 14.7245Z" fill="url(#paint3_linear_1_3547)"/>
</g>
<path d="M79.0244 22.3012C78.5892 22.3012 78.1922 22.2209 77.8327 22.0605C77.4731 21.8999 77.171 21.6529 76.9271 21.32H76.8541C76.9027 21.7101 76.9271 22.08 76.9271 22.4294V25.1788H75.9156V15.4976H76.7385L76.8784 16.4121H76.9271C77.1874 16.0461 77.4904 15.7823 77.8357 15.6196C78.181 15.457 78.5774 15.3757 79.0242 15.3757C79.9103 15.3757 80.5943 15.6786 81.0757 16.2841C81.5573 16.8896 81.7982 17.7393 81.7982 18.8323C81.7982 19.9297 81.5532 20.782 81.0639 21.3901C80.5742 21.9976 79.8945 22.3012 79.0244 22.3012ZM78.878 16.2353C78.1952 16.2353 77.7015 16.4245 77.3967 16.8023C77.0919 17.1802 76.9354 17.7819 76.9271 18.607V18.8323C76.9271 19.7713 77.0836 20.4429 77.3967 20.8475C77.7098 21.2521 78.2119 21.4538 78.9023 21.4538C79.4798 21.4538 79.9321 21.2204 80.2593 20.753C80.5862 20.2858 80.7498 19.6416 80.7498 18.8201C80.7498 17.9873 80.5862 17.3477 80.2593 16.9028C79.9322 16.4575 79.4715 16.2353 78.878 16.2353ZM84.1415 22.1791H83.1296V12.6931H84.1415V22.1791ZM89.9599 22.1791L89.7585 21.2281H89.7098C89.3764 21.647 89.0443 21.9307 88.713 22.0786C88.3818 22.2272 87.9682 22.3012 87.4726 22.3012C86.8101 22.3012 86.291 22.1305 85.9148 21.7892C85.5387 21.4479 85.3509 20.9625 85.3509 20.3322C85.3509 18.9831 86.4301 18.2758 88.588 18.2105L89.7224 18.1738V17.7594C89.7224 17.235 89.6094 16.8477 89.3837 16.598C89.1585 16.3478 88.7971 16.2229 88.3017 16.2229C87.7447 16.2229 87.1147 16.3936 86.4118 16.7349L86.1008 15.9607C86.4303 15.7819 86.7906 15.6418 87.1832 15.5401C87.5754 15.4386 87.9684 15.3877 88.3628 15.3877C89.1593 15.3877 89.7496 15.5643 90.1339 15.9179C90.5177 16.2716 90.7097 16.8385 90.7097 17.6191V22.1789H89.9599L89.9599 22.1791ZM87.6737 21.4662C88.3033 21.4662 88.7981 21.2934 89.1581 20.9481C89.5174 20.6027 89.6977 20.1189 89.6977 19.4968V18.8933L88.6852 18.9357C87.8806 18.9647 87.3008 19.0892 86.9448 19.3112C86.5893 19.5327 86.4114 19.8772 86.4114 20.3446C86.4114 20.7102 86.5219 20.9888 86.7438 21.1794C86.9654 21.3707 87.2751 21.4662 87.6737 21.4662ZM91.2972 15.4976H92.382L93.8453 19.308C94.1663 20.1779 94.3656 20.8057 94.4431 21.192H94.4918C94.5447 20.9843 94.6556 20.6301 94.8239 20.1276C94.9926 19.6255 95.5446 18.0826 96.479 15.4976H97.5647L94.6929 23.106C94.4086 23.8579 94.0763 24.3914 93.6958 24.707C93.316 25.0217 92.8495 25.1788 92.2973 25.1788C91.9883 25.1788 91.6835 25.1444 91.3823 25.0754V24.2647C91.6058 24.3134 91.856 24.3379 92.1324 24.3379C92.8275 24.3379 93.3229 23.9477 93.62 23.1673L93.9917 22.2164L91.2972 15.4976ZM60.2777 16.1185C60.5989 16.3843 61.2697 16.9428 61.2697 18.0055C61.2697 19.0391 60.6826 19.5292 60.0956 19.9897C59.9139 20.1712 59.7042 20.3675 59.7042 20.6753C59.7042 20.9821 59.9137 21.15 60.068 21.276L60.5713 21.6665C61.1861 22.1838 61.7446 22.6593 61.7446 23.6239C61.7446 24.9375 60.4728 26.2647 58.0694 26.2647C56.0427 26.2647 55.0649 25.3007 55.0649 24.2659C55.0649 23.763 55.3153 23.0507 56.141 22.5609C57.0069 22.0299 58.1816 21.9607 58.8102 21.9177C58.6139 21.6665 58.3909 21.4009 58.3909 20.9683C58.3909 20.7311 58.461 20.5912 58.5306 20.4227C58.3763 20.4369 58.2227 20.4508 58.0828 20.4508C56.6019 20.4508 55.7635 19.3467 55.7635 18.2572C55.7635 17.6142 56.0573 16.901 56.6575 16.3845C57.4544 15.7277 58.4046 15.6156 59.16 15.6156H62.0382L61.1438 16.1187H60.2777L60.2777 16.1185ZM59.2851 22.3239C59.1734 22.3093 59.1032 22.3093 58.9641 22.3093C58.8384 22.3093 58.0826 22.3379 57.4964 22.534C57.189 22.6449 56.2943 22.9803 56.2943 23.9731C56.2943 24.9649 57.2591 25.6787 58.7546 25.6787C60.0954 25.6787 60.809 25.0345 60.809 24.1688C60.809 23.4546 60.3476 23.0789 59.2851 22.3239ZM59.6906 19.6681C60.0116 19.3463 60.0392 18.8996 60.0392 18.6477C60.0392 17.6417 59.4386 16.0765 58.2789 16.0765C57.9151 16.0765 57.5242 16.258 57.3005 16.5378C57.0632 16.8312 56.9927 17.2082 56.9927 17.572C56.9927 18.5082 57.5377 20.0597 58.7402 20.0597C59.0896 20.0597 59.4662 19.892 59.6906 19.6681ZM51.4793 22.1002C49.2611 22.1002 48.0751 20.3699 48.0751 18.8069C48.0751 16.9788 49.5677 15.4169 51.6894 15.4169C53.7395 15.4169 55.0233 17.0208 55.0233 18.7096C55.0235 20.3553 53.7543 22.1002 51.4793 22.1002ZM53.2232 20.9702C53.5586 20.5232 53.6424 19.9654 53.6424 19.4207C53.6424 18.1925 53.0563 15.8488 51.326 15.8488C50.8657 15.8488 50.4054 16.0305 50.0706 16.3241C49.5264 16.8118 49.4282 17.426 49.4282 18.0266C49.4282 19.407 50.112 21.6807 51.8007 21.6807C52.3448 21.6807 52.903 21.4161 53.2232 20.9702ZM43.9167 22.1002C41.6981 22.1002 40.5118 20.3699 40.5118 18.8069C40.5118 16.9788 42.0051 15.4169 44.1261 15.4169C46.1769 15.4169 47.4604 17.0208 47.4604 18.7096C47.4606 20.3553 46.1912 22.1002 43.9167 22.1002ZM45.661 20.9702C45.9958 20.5232 46.0797 19.9654 46.0797 19.4207C46.0797 18.1925 45.4933 15.8488 43.763 15.8488C43.3029 15.8488 42.8422 16.0305 42.5076 16.3241C41.9633 16.8118 41.8658 17.426 41.8658 18.0266C41.8658 19.407 42.5491 21.6807 44.2381 21.6807C44.7823 21.6807 45.3402 21.4161 45.661 20.9702ZM39.446 21.8814L37.4397 22.3444C36.6257 22.4709 35.8966 22.5823 35.1254 22.5823C31.2531 22.5823 29.7808 19.7344 29.7808 17.5039C29.7808 14.7828 31.8706 12.2584 35.4482 12.2584C36.206 12.2584 36.9348 12.3703 37.594 12.5528C38.6461 12.8475 39.137 13.2118 39.4458 13.4225L38.2811 14.5307L37.7903 14.6424L38.1409 14.0812C37.6642 13.6186 36.7937 12.7631 35.139 12.7631C32.9224 12.7631 31.2528 14.4472 31.2528 16.9018C31.2528 19.5383 33.1609 22.0214 36.2184 22.0214C37.1171 22.0214 37.579 21.8393 38.0002 21.6706V19.4126L35.8824 19.5248L37.0042 18.9209H39.9783L39.6139 19.2715C39.515 19.3561 39.5014 19.3844 39.4734 19.4956C39.4588 19.6221 39.4456 20.0293 39.4456 20.1694V21.8815H39.446V21.8814Z" fill="#F9F9F9"/>
<path d="M64.7111 21.478C64.2479 21.4358 64.151 21.3521 64.151 20.8044V12.8648C64.1538 12.8346 64.1556 12.8035 64.1585 12.7743C64.215 12.2836 64.3552 12.1994 64.7905 11.9466H62.7839L61.7314 12.4517H62.8039V12.458L62.8031 12.4529V21.1134C62.8031 21.3935 62.7478 21.436 62.4247 21.8564H64.908L65.4271 21.5486C65.1888 21.5196 64.9499 21.506 64.7111 21.478ZM70.4193 21.607C70.2666 21.6907 70.1133 21.7887 69.9606 21.8578C69.5001 22.0667 69.0266 22.1226 68.6078 22.1226C68.1631 22.1226 67.466 22.0938 66.7549 21.579C65.7665 20.8818 65.3346 19.6838 65.3346 18.6393C65.3346 16.4803 67.0898 15.4216 68.5247 15.4216C69.0264 15.4216 69.5425 15.5467 69.9604 15.812C70.6563 16.2709 70.8374 16.8699 70.9343 17.1905L67.6613 18.5144L66.5884 18.5979C66.9362 20.3672 68.1342 21.3973 69.4581 21.3973C70.1684 21.3973 70.6841 21.1471 71.1576 20.9106L70.4193 21.607ZM69.1101 17.4549C69.3744 17.3577 69.5137 17.2738 69.5137 17.0789C69.5137 16.5221 68.8871 15.8809 68.1342 15.8809C67.5763 15.8809 66.5322 16.313 66.5322 17.8173C66.5322 18.0541 66.5602 18.3047 66.5746 18.5564L69.1101 17.4549ZM71.7639 15.5169V16.4361H71.6522V15.5169H71.348V15.4216H72.0679V15.5169H71.7639ZM73.0171 16.4361V15.5084H73.012L72.7289 16.4361H72.6415L72.356 15.5084H72.3524V16.4361H72.251V15.4216H72.4247L72.6831 16.2417H72.6867L72.9412 15.4216H73.1175V16.4361H73.0171Z" fill="#F9F9F9"/>
<path d="M32.566 9.52714H31.8688C31.8688 9.43123 31.8027 9.1597 31.6705 8.71237H30.6641C30.5276 9.1524 30.4593 9.42391 30.4593 9.52714H29.8037C29.8037 9.47055 29.9732 9.00578 30.3123 8.13303C30.6513 7.26027 30.8208 6.77947 30.8208 6.69107H31.6443C31.6443 6.77381 31.7978 7.2475 32.105 8.11235C32.4123 8.9772 32.566 9.44866 32.566 9.52714ZM31.5596 8.29627C31.3112 7.54699 31.1871 7.14185 31.1871 7.0808H31.1522C31.1522 7.13739 31.0236 7.54253 30.7667 8.29627H31.5596ZM35.3749 9.52714H34.8369C34.8369 9.46752 34.6372 9.15322 34.2379 8.58402C33.8197 7.9842 33.5815 7.57418 33.5235 7.35337H33.4886C33.5249 7.67131 33.5432 7.95885 33.5432 8.21599C33.5432 8.5747 33.5533 9.0119 33.5736 9.52736H33.0377C33.0593 9.07719 33.0703 8.58282 33.0703 8.04403C33.0703 7.51398 33.0594 7.06299 33.0377 6.69129H33.6845C33.6845 6.76835 33.8638 7.07556 34.2225 7.61272C34.6043 8.18334 34.8237 8.57045 34.8803 8.77383H34.913C34.8781 8.44999 34.8606 8.1596 34.8606 7.90249C34.8606 7.50912 34.8505 7.10517 34.8302 6.69129H35.3749C35.3544 7.05143 35.3445 7.50241 35.3445 8.04403C35.3442 8.58969 35.3544 9.08407 35.3749 9.52714ZM38.5319 8.01098C38.5319 8.42341 38.3997 8.78357 38.1355 9.09138C37.8711 9.39941 37.5008 9.55311 37.0245 9.55311C36.8095 9.55311 36.5133 9.54438 36.1357 9.52694C36.1545 9.08834 36.1641 8.59375 36.1641 8.04363C36.1641 7.51518 36.1545 7.0642 36.1357 6.69087H36.5169C36.5794 6.69087 36.6722 6.68864 36.7957 6.68438C36.919 6.68012 36.9997 6.67789 37.0374 6.67789C37.5616 6.67789 37.9416 6.80869 38.1779 7.07007C38.4139 7.33145 38.5319 7.64495 38.5319 8.01098ZM37.9374 8.10463C37.9374 7.82581 37.856 7.59099 37.6934 7.39977C37.5308 7.20896 37.2824 7.11346 36.9484 7.11346C36.886 7.11346 36.8004 7.11995 36.6913 7.13313C36.7057 7.4237 36.713 7.72705 36.713 8.04361C36.713 8.39077 36.7203 8.73488 36.7347 9.07616C36.8278 9.09494 36.9227 9.10444 37.0177 9.10455C37.33 9.10455 37.5612 9.00743 37.7115 8.81356C37.8617 8.6197 37.9374 8.38345 37.9374 8.10463ZM41.4432 9.52714H40.7984C40.6299 9.0131 40.5007 8.69575 40.4107 8.5753C40.3207 8.45464 40.1755 8.39442 39.9751 8.39442C39.8908 8.39442 39.8102 8.39523 39.7334 8.39665C39.7334 8.76998 39.7399 9.14673 39.7531 9.52714H39.1476C39.1664 9.08853 39.176 8.59395 39.176 8.04381C39.176 7.51539 39.1664 7.06439 39.1476 6.69107H39.5243C39.5679 6.69107 39.659 6.68884 39.7977 6.68459C39.9364 6.68033 40.0645 6.67808 40.1822 6.67808C40.8487 6.67808 41.1821 6.906 41.1821 7.36207C41.1821 7.72362 40.9918 7.97548 40.6114 8.11803V8.15068C40.758 8.19123 40.8866 8.3058 40.9969 8.49358C41.107 8.68155 41.2558 9.02607 41.4432 9.52714ZM40.6264 7.52306C40.6264 7.2341 40.4405 7.08954 40.0688 7.08954C39.9323 7.08954 39.8116 7.09967 39.7072 7.11995C39.7232 7.34504 39.7312 7.63846 39.7312 8.00001C39.8111 8.00305 39.8786 8.00427 39.9337 8.00427C40.3955 8.00447 40.6264 7.84408 40.6264 7.52306ZM44.5656 8.05677C44.5656 8.5025 44.4291 8.87215 44.156 9.16557C43.8828 9.4588 43.5452 9.6056 43.1431 9.6056C42.7597 9.6056 42.4387 9.47095 42.1803 9.20146C41.9218 8.93217 41.7926 8.58969 41.7926 8.17459C41.7926 7.72888 41.9291 7.35921 42.2022 7.06579C42.4752 6.77257 42.8128 6.62576 43.2151 6.62576C43.5985 6.62576 43.9194 6.76 44.1779 7.02868C44.4364 7.29738 44.5656 7.63988 44.5656 8.05677ZM43.9646 8.11985C43.9646 7.81629 43.8869 7.57012 43.7316 7.38133C43.576 7.19255 43.3844 7.09825 43.1565 7.09825C42.9444 7.09825 42.7643 7.19336 42.6163 7.38356C42.4683 7.57377 42.3938 7.81408 42.3938 8.10465C42.3938 8.40658 42.4719 8.65235 42.628 8.84197C42.7842 9.03157 42.9754 9.12626 43.2021 9.12626C43.414 9.12626 43.5943 9.03075 43.7423 8.83972C43.8904 8.6489 43.9646 8.4088 43.9646 8.11985ZM45.7973 9.52714H45.1808C45.1997 9.07697 45.2092 8.5826 45.2092 8.04381C45.2092 7.51375 45.1997 7.06277 45.1808 6.69107H45.7973C45.7784 7.05709 45.7689 7.50787 45.7689 8.04381C45.7689 8.59111 45.7784 9.08569 45.7973 9.52714ZM48.9545 8.01098C48.9545 8.42341 48.8223 8.78357 48.5581 9.09138C48.2937 9.39941 47.9234 9.55311 47.4471 9.55311C47.2321 9.55311 46.9359 9.54438 46.5583 9.52694C46.5772 9.08834 46.5867 8.59375 46.5867 8.04363C46.5867 7.51518 46.5772 7.0642 46.5583 6.69087H46.9395C47.002 6.69087 47.0949 6.68864 47.2184 6.68438C47.3417 6.68012 47.4224 6.67789 47.4601 6.67789C47.9843 6.67789 48.3643 6.80869 48.6005 7.07007C48.8365 7.33145 48.9545 7.64495 48.9545 8.01098ZM48.36 8.10463C48.36 7.82581 48.2787 7.59099 48.116 7.39977C47.9534 7.20896 47.705 7.11346 47.371 7.11346C47.3086 7.11346 47.223 7.11995 47.1139 7.13313C47.1283 7.4237 47.1356 7.72705 47.1356 8.04361C47.1356 8.39077 47.1429 8.73488 47.1573 9.07616C47.2505 9.09493 47.3453 9.10444 47.4404 9.10455C47.7526 9.10455 47.9838 9.00743 48.1341 8.81356C48.2844 8.6197 48.36 8.38345 48.36 8.10463ZM53.1432 9.52714H52.446C52.446 9.43123 52.3799 9.1597 52.2475 8.71237H51.2411C51.1046 9.1524 51.0363 9.42391 51.0363 9.52714H50.3809C50.3809 9.47055 50.5504 9.00578 50.8895 8.13303C51.2285 7.26027 51.398 6.77947 51.398 6.69107H52.2215C52.2215 6.77381 52.3752 7.2475 52.6822 8.11235C52.9892 8.9772 53.1432 9.44866 53.1432 9.52714ZM52.1368 8.29627C51.8884 7.54699 51.764 7.14185 51.764 7.0808H51.7292C51.7292 7.13739 51.6008 7.54253 51.3439 8.29627H52.1368ZM55.684 7.43365C55.684 7.78081 55.555 8.03712 55.2973 8.20259C55.0395 8.36806 54.7234 8.45098 54.3486 8.45098C54.2803 8.45098 54.2319 8.44956 54.2027 8.44672C54.2027 8.71986 54.2105 9.07981 54.2266 9.52714H53.6144C53.6332 9.10759 53.6428 8.613 53.6428 8.04381C53.6428 7.52105 53.6333 7.07007 53.6144 6.69107H53.9934C54.0471 6.69107 54.1501 6.68884 54.3026 6.68459C54.4551 6.68033 54.5871 6.67808 54.699 6.67808C54.9748 6.67808 55.208 6.74054 55.3982 6.86545C55.5884 6.99038 55.684 7.17957 55.684 7.43365ZM55.1221 7.55349C55.1221 7.24282 54.9158 7.0873 54.5034 7.0873C54.4002 7.0873 54.2913 7.09824 54.1767 7.11995C54.1927 7.39451 54.2006 7.70517 54.2006 8.05233C54.2369 8.05537 54.2791 8.05659 54.327 8.05659C54.857 8.05677 55.1221 7.88909 55.1221 7.55349ZM58.2966 7.43365C58.2966 7.78081 58.1676 8.03712 57.9101 8.20259C57.6523 8.36806 57.336 8.45098 56.9613 8.45098C56.8929 8.45098 56.8445 8.44956 56.8153 8.44672C56.8153 8.71986 56.8232 9.07981 56.8392 9.52714H56.227C56.2459 9.10759 56.2554 8.613 56.2554 8.04381C56.2554 7.52105 56.2459 7.07007 56.227 6.69107H56.606C56.6598 6.69107 56.7628 6.68884 56.9152 6.68459C57.0677 6.68033 57.1997 6.67808 57.3117 6.67808C57.5874 6.67808 57.8207 6.74054 58.0109 6.86545C58.201 6.99038 58.2966 7.17957 58.2966 7.43365ZM57.7347 7.55349C57.7347 7.24282 57.5284 7.0873 57.116 7.0873C57.0128 7.0873 56.9039 7.09824 56.7893 7.11995C56.8053 7.39451 56.8133 7.70517 56.8133 8.05233C56.8495 8.05537 56.8917 8.05659 56.9396 8.05659C57.4696 8.05677 57.7347 7.88909 57.7347 7.55349ZM62.5681 8.05677C62.5681 8.5025 62.4316 8.87215 62.1585 9.16557C61.8854 9.45899 61.5477 9.6056 61.1456 9.6056C60.7622 9.6056 60.4412 9.47095 60.1828 9.20146C59.9245 8.93217 59.7951 8.58969 59.7951 8.17459C59.7951 7.72888 59.9316 7.35921 60.2047 7.06579C60.4779 6.77237 60.8155 6.62576 61.2176 6.62576C61.6011 6.62576 61.9221 6.76 62.1804 7.02868C62.4387 7.29738 62.5681 7.63988 62.5681 8.05677ZM61.9669 8.11985C61.9669 7.81629 61.8892 7.57012 61.7339 7.38133C61.5786 7.19255 61.3867 7.09825 61.1588 7.09825C60.9467 7.09825 60.7666 7.19336 60.6186 7.38356C60.4706 7.57377 60.3963 7.81408 60.3963 8.10465C60.3963 8.40658 60.4744 8.65235 60.6306 8.84197C60.7867 9.03157 60.9779 9.12626 61.2044 9.12626C61.4165 9.12626 61.5966 9.03075 61.7446 8.83974C61.8929 8.6489 61.9669 8.4088 61.9669 8.11985ZM65.5206 9.52714H64.9826C64.9826 9.46752 64.783 9.15322 64.3836 8.58402C63.9655 7.9842 63.7272 7.57418 63.6692 7.35337H63.6343C63.6706 7.67131 63.6889 7.95885 63.6889 8.21599C63.6889 8.5747 63.699 9.0119 63.7193 9.52736H63.1834C63.2051 9.07719 63.216 8.58282 63.216 8.04403C63.216 7.51398 63.2051 7.06299 63.1834 6.69129H63.8302C63.8302 6.76835 64.0097 7.07556 64.3682 7.61272C64.7502 8.18334 64.9694 8.57045 65.026 8.77383H65.0587C65.0238 8.44999 65.0064 8.1596 65.0064 7.90249C65.0064 7.50912 64.9962 7.10517 64.9759 6.69129H65.5206C65.5001 7.05143 65.4902 7.50241 65.4902 8.04403C65.4902 8.58969 65.5003 9.08407 65.5206 9.52714Z" fill="#F9F9FA"/>
<defs>
<linearGradient id="paint0_linear_1_3547" x1="11.8785" y1="6.32277" x2="11.8785" y2="29.2982" gradientUnits="userSpaceOnUse">
<stop stop-color="#257CB0"/>
<stop offset="0.286" stop-color="#4A93B5"/>
<stop offset="0.767" stop-color="#78BCBB"/>
<stop offset="1" stop-color="#89CFBD"/>
</linearGradient>
<linearGradient id="paint1_linear_1_3547" x1="6.08588" y1="12.0242" x2="20.7831" y2="12.0242" gradientUnits="userSpaceOnUse">
<stop stop-color="#52C1AD"/>
<stop offset="1" stop-color="#DEE89A"/>
</linearGradient>
<linearGradient id="paint2_linear_1_3547" x1="13.4342" y1="17.8098" x2="13.4342" y2="29.381" gradientUnits="userSpaceOnUse">
<stop stop-color="#EC413D"/>
<stop offset="0.167" stop-color="#DA4452"/>
<stop offset="0.575" stop-color="#B0487A"/>
<stop offset="0.862" stop-color="#954A92"/>
<stop offset="1" stop-color="#8A4A9D"/>
</linearGradient>
<linearGradient id="paint3_linear_1_3547" x1="21.8988" y1="14.7245" x2="21.8988" y2="20.8953" gradientUnits="userSpaceOnUse">
<stop stop-color="#F58879"/>
<stop offset="0.119" stop-color="#F69079"/>
<stop offset="0.713" stop-color="#FCB877"/>
<stop offset="1" stop-color="#FEC874"/>
</linearGradient>
</defs>
</svg>
