<svg width="104" height="34" viewBox="0 0 104 34" fill="none" xmlns="http://www.w3.org/2000/svg">
<path d="M103.467 29.3421V29.3848C103.444 31.7591 101.513 33.6774 99.1335 33.6774H4.58483C2.19124 33.6776 0.25 31.7362 0.25 29.3421V4.58507C0.25 2.19145 2.19121 0.250244 4.58483 0.250244H99.1333C101.527 0.250244 103.467 2.19139 103.467 4.58507V29.3421Z" stroke="white" stroke-width="0.5"/>
<mask id="mask0_1_3707" style="mask-type:luminance" maskUnits="userSpaceOnUse" x="6" y="5" width="20" height="24">
<path d="M20.7831 13.8639L16.1064 11.1639C16.1064 11.1639 7.58648 6.24426 7.0856 5.9551C6.58473 5.66594 6.08569 5.84114 6.08569 6.44542V27.6664C6.08569 28.1195 6.44236 28.3147 6.87753 28.0637C7.31249 27.8122 16.1064 22.7349 16.1064 22.7349L20.7829 20.035C20.7829 20.035 24.7509 17.7443 25.2783 17.4399C25.8057 17.1351 25.755 16.7174 25.3099 16.4777C24.865 16.2378 20.7831 13.8639 20.7831 13.8639Z" fill="white"/>
</mask>
<g mask="url(#mask0_1_3707)">
<path d="M6.08569 5.46191V28.4374L17.6713 16.9497L6.08569 5.46191Z" fill="url(#paint0_linear_1_3707)"/>
</g>
<mask id="mask1_1_3707" style="mask-type:luminance" maskUnits="userSpaceOnUse" x="6" y="5" width="20" height="24">
<path d="M20.7831 13.8639L16.1064 11.1639C16.1064 11.1639 7.58648 6.24426 7.0856 5.9551C6.58473 5.66594 6.08569 5.84114 6.08569 6.44542V27.6664C6.08569 28.1195 6.44236 28.3147 6.87753 28.0637C7.31249 27.8122 16.1064 22.7349 16.1064 22.7349L20.7829 20.035C20.7829 20.035 24.7509 17.7443 25.2783 17.4399C25.8057 17.1351 25.755 16.7174 25.3099 16.4777C24.865 16.2378 20.7831 13.8639 20.7831 13.8639Z" fill="white"/>
</mask>
<g mask="url(#mask1_1_3707)">
<path d="M20.7829 13.8635L16.1062 11.1635L6.08569 5.37781V5.46135L17.6713 16.9492L20.7829 13.8635Z" fill="url(#paint1_linear_1_3707)"/>
</g>
<mask id="mask2_1_3707" style="mask-type:luminance" maskUnits="userSpaceOnUse" x="6" y="5" width="20" height="24">
<path d="M20.7831 13.8639L16.1064 11.1639C16.1064 11.1639 7.58648 6.24426 7.0856 5.9551C6.58473 5.66594 6.08569 5.84114 6.08569 6.44542V27.6664C6.08569 28.1195 6.44236 28.3147 6.87753 28.0637C7.31249 27.8122 16.1064 22.7349 16.1064 22.7349L20.7829 20.035C20.7829 20.035 24.7509 17.7443 25.2783 17.4399C25.8057 17.1351 25.755 16.7174 25.3099 16.4777C24.865 16.2378 20.7831 13.8639 20.7831 13.8639Z" fill="white"/>
</mask>
<g mask="url(#mask2_1_3707)">
<path d="M6.08569 28.4366V28.5201L16.1062 22.7343L20.7827 20.0343L17.6713 16.949L6.08569 28.4366Z" fill="url(#paint2_linear_1_3707)"/>
</g>
<mask id="mask3_1_3707" style="mask-type:luminance" maskUnits="userSpaceOnUse" x="6" y="5" width="20" height="24">
<path d="M20.7831 13.8639L16.1064 11.1639C16.1064 11.1639 7.58648 6.24426 7.0856 5.9551C6.58473 5.66594 6.08569 5.84114 6.08569 6.44542V27.6664C6.08569 28.1195 6.44236 28.3147 6.87753 28.0637C7.31249 27.8122 16.1064 22.7349 16.1064 22.7349L20.7829 20.035C20.7829 20.035 24.7509 17.7443 25.2783 17.4399C25.8057 17.1351 25.755 16.7174 25.3099 16.4777C24.865 16.2378 20.7831 13.8639 20.7831 13.8639Z" fill="white"/>
</mask>
<g mask="url(#mask3_1_3707)">
<path d="M20.7823 13.8636L17.6707 16.9493L20.7821 20.0346L26.1267 16.9491L20.7823 13.8636Z" fill="url(#paint3_linear_1_3707)"/>
</g>
<path d="M79.0246 21.4403C78.5895 21.4403 78.1924 21.36 77.8329 21.1996C77.4734 21.039 77.1713 20.7921 76.9273 20.4591H76.8543C76.903 20.8492 76.9273 21.2191 76.9273 21.5685V24.318H75.9158V14.6367H76.7387L76.8786 15.5512H76.9273C77.1876 15.1852 77.4906 14.9214 77.8359 14.7588C78.1813 14.5962 78.5777 14.5148 79.0244 14.5148C79.9106 14.5148 80.5945 14.8178 81.0759 15.4233C81.5575 16.0288 81.7984 16.8784 81.7984 17.9714C81.7984 19.0688 81.5535 19.9211 81.0642 20.5293C80.5745 21.1368 79.8948 21.4403 79.0246 21.4403ZM78.8782 15.3744C78.1955 15.3744 77.7017 15.5636 77.3969 15.9414C77.0922 16.3194 76.9356 16.921 76.9273 17.7461V17.9714C76.9273 18.9105 77.0838 19.5821 77.3969 19.9866C77.71 20.3912 78.2121 20.5929 78.9026 20.5929C79.4801 20.5929 79.9323 20.3596 80.2596 19.8921C80.5865 19.4249 80.7501 18.7807 80.7501 17.9593C80.7501 17.1264 80.5864 16.4869 80.2596 16.042C79.9325 15.5967 79.4718 15.3744 78.8782 15.3744ZM84.1418 21.3183H83.1299V11.8323H84.1418V21.3183ZM89.9601 21.3183L89.7587 20.3673H89.7101C89.3767 20.7862 89.0445 21.0699 88.7132 21.2177C88.3821 21.3663 87.9684 21.4404 87.4728 21.4404C86.8103 21.4404 86.2912 21.2696 85.9151 20.9283C85.5389 20.5871 85.3511 20.1016 85.3511 19.4714C85.3511 18.1223 86.4303 17.415 88.5883 17.3497L89.7226 17.313V16.8985C89.7226 16.3741 89.6097 15.9868 89.384 15.7372C89.1587 15.4869 88.7973 15.3621 88.302 15.3621C87.7449 15.3621 87.1149 15.5328 86.4121 15.8741L86.101 15.0999C86.4305 14.921 86.7909 14.7809 87.1834 14.6793C87.5756 14.5777 87.9686 14.5268 88.363 14.5268C89.1595 14.5268 89.7498 14.7034 90.1341 15.0571C90.518 15.4107 90.71 15.9777 90.71 16.7582V21.3181H89.9601L89.9601 21.3183ZM87.674 20.6053C88.3036 20.6053 88.7984 20.4325 89.1583 20.0872C89.5177 19.7419 89.6979 19.258 89.6979 18.6359V18.0324L88.6854 18.0748C87.8808 18.1038 87.3011 18.2283 86.945 18.4504C86.5895 18.6718 86.4117 19.0163 86.4117 19.4837C86.4117 19.8493 86.5222 20.128 86.744 20.3186C86.9657 20.5098 87.2753 20.6053 87.674 20.6053ZM91.2974 14.6367H92.3823L93.8456 18.4471C94.1666 19.317 94.3659 19.9449 94.4433 20.3311H94.492C94.5449 20.1235 94.6558 19.7692 94.8242 19.2668C94.9929 18.7647 95.5448 17.2217 96.4792 14.6367H97.5649L94.6932 22.2452C94.4089 22.9971 94.0765 23.5306 93.6961 23.8461C93.3163 24.1608 92.8497 24.318 92.2975 24.318C91.9885 24.318 91.6837 24.2835 91.3826 24.2146V23.4038C91.606 23.4525 91.8563 23.477 92.1327 23.477C92.8278 23.477 93.3232 23.0869 93.6203 22.3064L93.992 21.3556L91.2974 14.6367ZM60.2779 15.2576C60.5991 15.5234 61.2699 16.0819 61.2699 17.1447C61.2699 18.1782 60.6829 18.6684 60.0958 19.1289C59.9142 19.3103 59.7045 19.5066 59.7045 19.8144C59.7045 20.1213 59.9139 20.2892 60.0683 20.4151L60.5716 20.8056C61.1864 21.3229 61.7448 21.7984 61.7448 22.7631C61.7448 24.0767 60.473 25.4038 58.0697 25.4038C56.0429 25.4038 55.0651 24.4398 55.0651 23.4051C55.0651 22.9022 55.3155 22.1898 56.1413 21.7001C57.0071 21.169 58.1818 21.0999 58.8104 21.0569C58.6141 20.8056 58.3911 20.54 58.3911 20.1075C58.3911 19.8702 58.4613 19.7303 58.5308 19.5618C58.3765 19.576 58.223 19.59 58.0831 19.59C56.6022 19.59 55.7637 18.4859 55.7637 17.3963C55.7637 16.7533 56.0575 16.0401 56.6578 15.5237C57.4547 14.8669 58.4049 14.7547 59.1602 14.7547H62.0385L61.144 15.2578H60.2779L60.2779 15.2576ZM59.2853 21.4631C59.1736 21.4485 59.1034 21.4485 58.9643 21.4485C58.8386 21.4485 58.0829 21.477 57.4966 21.6731C57.1892 21.7841 56.2945 22.1195 56.2945 23.1123C56.2945 24.104 57.2594 24.8178 58.7549 24.8178C60.0956 24.8178 60.8092 24.1736 60.8092 23.3079C60.8092 22.5938 60.3479 22.218 59.2853 21.4631ZM59.6909 18.8073C60.0119 18.4855 60.0395 18.0387 60.0395 17.7869C60.0395 16.7809 59.4388 15.2156 58.2791 15.2156C57.9153 15.2156 57.5244 15.3971 57.3007 15.677C57.0635 15.9704 56.9929 16.3474 56.9929 16.7111C56.9929 17.6474 57.538 19.1988 58.7404 19.1988C59.0899 19.1988 59.4664 19.0311 59.6909 18.8073ZM51.4796 21.2394C49.2614 21.2394 48.0753 19.5091 48.0753 17.9461C48.0753 16.118 49.568 14.556 51.6897 14.556C53.7397 14.556 55.0235 16.16 55.0235 17.8487C55.0237 19.4945 53.7545 21.2394 51.4796 21.2394ZM53.2235 20.1093C53.5589 19.6624 53.6426 19.1045 53.6426 18.5599C53.6426 17.3316 53.0566 14.9879 51.3263 14.9879C50.866 14.9879 50.4057 15.1696 50.0709 15.4633C49.5266 15.9509 49.4285 16.5652 49.4285 17.1658C49.4285 18.5461 50.1122 20.8198 51.801 20.8198C52.345 20.8198 52.9033 20.5552 53.2235 20.1093ZM43.9169 21.2394C41.6983 21.2394 40.5121 19.5091 40.5121 17.9461C40.5121 16.118 42.0053 14.556 44.1264 14.556C46.1771 14.556 47.4607 16.16 47.4607 17.8487C47.4609 19.4945 46.1915 21.2394 43.9169 21.2394ZM45.6612 20.1093C45.996 19.6624 46.08 19.1045 46.08 18.5599C46.08 17.3316 45.4935 14.9879 43.7632 14.9879C43.3031 14.9879 42.8424 15.1696 42.5078 15.4633C41.9635 15.9509 41.866 16.5652 41.866 17.1658C41.866 18.5461 42.5494 20.8198 44.2383 20.8198C44.7826 20.8198 45.3405 20.5552 45.6612 20.1093ZM39.4463 21.0206L37.4399 21.4835C36.626 21.6101 35.8968 21.7214 35.1256 21.7214C31.2534 21.7214 29.781 18.8736 29.781 16.643C29.781 13.9219 31.8708 11.3975 35.4485 11.3975C36.2063 11.3975 36.9351 11.5095 37.5943 11.692C38.6463 11.9866 39.1372 12.351 39.4461 12.5617L38.2813 13.6699L37.7906 13.7816L38.1412 13.2203C37.6644 12.7578 36.7939 11.9022 35.1392 11.9022C32.9227 11.9022 31.253 13.5863 31.253 16.041C31.253 18.6775 33.1611 21.1605 36.2186 21.1605C37.1173 21.1605 37.5793 20.9784 38.0004 20.8097V18.5518L35.8826 18.6639L37.0044 18.06H39.9786L39.6142 18.4106C39.5152 18.4952 39.5016 18.5236 39.4737 18.6347C39.4591 18.7613 39.4459 19.1684 39.4459 19.3085V21.0206H39.4463V21.0206Z" fill="#F9F9F9"/>
<path d="M64.7111 20.6172C64.2479 20.575 64.151 20.4912 64.151 19.9435V12.0039C64.1538 11.9737 64.1556 11.9427 64.1585 11.9135C64.215 11.4228 64.3552 11.3386 64.7905 11.0858H62.7839L61.7314 11.5909H62.8039V11.5972L62.8031 11.5921V20.2526C62.8031 20.5326 62.7478 20.5752 62.4247 20.9956H64.908L65.4271 20.6877C65.1888 20.6587 64.9499 20.6452 64.7111 20.6172ZM70.4193 20.7461C70.2666 20.8299 70.1133 20.9278 69.9606 20.997C69.5001 21.2058 69.0266 21.2618 68.6078 21.2618C68.1631 21.2618 67.466 21.233 66.7549 20.7182C65.7665 20.021 65.3346 18.823 65.3346 17.7785C65.3346 15.6195 67.0898 14.5608 68.5247 14.5608C69.0264 14.5608 69.5425 14.6859 69.9604 14.9511C70.6563 15.41 70.8374 16.009 70.9343 16.3296L67.6613 17.6536L66.5884 17.7371C66.9362 19.5063 68.1342 20.5365 69.4581 20.5365C70.1684 20.5365 70.6841 20.2862 71.1576 20.0498L70.4193 20.7461ZM69.1101 16.594C69.3744 16.4969 69.5137 16.413 69.5137 16.2181C69.5137 15.6613 68.8871 15.0201 68.1342 15.0201C67.5763 15.0201 66.5322 15.4522 66.5322 16.9564C66.5322 17.1933 66.5602 17.4439 66.5746 17.6955L69.1101 16.594ZM71.7639 14.6561V15.5753H71.6522V14.6561H71.348V14.5608H72.0679V14.6561H71.7639ZM73.0171 15.5753V14.6476H73.012L72.7289 15.5753H72.6415L72.356 14.6476H72.3524V15.5753H72.251V14.5608H72.4247L72.6831 15.3808H72.6867L72.9412 14.5608H73.1175V15.5753H73.0171Z" fill="#F9F9F9"/>
<path d="M32.5657 8.66627H31.8686C31.8686 8.57035 31.8025 8.29883 31.6702 7.8515H30.6638C30.5274 8.29153 30.4591 8.56304 30.4591 8.66627H29.8035C29.8035 8.60968 29.973 8.14491 30.312 7.27216C30.6511 6.3994 30.8206 5.9186 30.8206 5.8302H31.6441C31.6441 5.91294 31.7976 6.38663 32.1048 7.25148C32.412 8.11633 32.5657 8.58779 32.5657 8.66627ZM31.5593 7.4354C31.3109 6.68612 31.1868 6.28098 31.1868 6.21993H31.1519C31.1519 6.27652 31.0234 6.68166 30.7665 7.4354H31.5593ZM35.3746 8.66627H34.8366C34.8366 8.60665 34.6369 8.29234 34.2376 7.72314C33.8195 7.12332 33.5812 6.71331 33.5233 6.4925H33.4884C33.5247 6.81044 33.5429 7.09798 33.5429 7.35512C33.5429 7.71383 33.5531 8.15103 33.5734 8.66649H33.0374C33.0591 8.21632 33.0701 7.72194 33.0701 7.18316C33.0701 6.65311 33.0591 6.20212 33.0374 5.83042H33.6843C33.6843 5.90748 33.8635 6.21469 34.2222 6.75185C34.6041 7.32247 34.8235 7.70957 34.8801 7.91296H34.9127C34.8779 7.58912 34.8604 7.29873 34.8604 7.04162C34.8604 6.64825 34.8502 6.2443 34.83 5.83042H35.3746C35.3541 6.19056 35.3442 6.64154 35.3442 7.18316C35.344 7.72882 35.3541 8.2232 35.3746 8.66627ZM38.5317 7.15011C38.5317 7.56254 38.3995 7.9227 38.1352 8.23051C37.8708 8.53853 37.5005 8.69224 37.0242 8.69224C36.8093 8.69224 36.513 8.68351 36.1354 8.66607C36.1543 8.22747 36.1638 7.73288 36.1638 7.18276C36.1638 6.65431 36.1543 6.20333 36.1354 5.83H36.5167C36.5791 5.83 36.672 5.82777 36.7955 5.82351C36.9188 5.81925 36.9995 5.81702 37.0372 5.81702C37.5614 5.81702 37.9414 5.94782 38.1776 6.2092C38.4137 6.47058 38.5317 6.78408 38.5317 7.15011ZM37.9371 7.24376C37.9371 6.96494 37.8558 6.73012 37.6932 6.5389C37.5305 6.34808 37.2821 6.25259 36.9482 6.25259C36.8857 6.25259 36.8001 6.25908 36.691 6.27226C36.7054 6.56283 36.7127 6.86618 36.7127 7.18274C36.7127 7.5299 36.72 7.87401 36.7344 8.21529C36.8276 8.23406 36.9224 8.24357 37.0175 8.24368C37.3298 8.24368 37.5609 8.14656 37.7112 7.95269C37.8615 7.75883 37.9371 7.52258 37.9371 7.24376ZM41.443 8.66627H40.7981C40.6296 8.15223 40.5005 7.83488 40.4104 7.71443C40.3204 7.59377 40.1752 7.53355 39.9749 7.53355C39.8905 7.53355 39.81 7.53436 39.7332 7.53578C39.7332 7.90911 39.7396 8.28586 39.7528 8.66627H39.1473C39.1662 8.22766 39.1757 7.73308 39.1757 7.18294C39.1757 6.65452 39.1662 6.20352 39.1473 5.8302H39.5241C39.5677 5.8302 39.6587 5.82797 39.7974 5.82372C39.9361 5.81946 40.0643 5.81721 40.1819 5.81721C40.8484 5.81721 41.1818 6.04513 41.1818 6.5012C41.1818 6.86275 40.9916 7.11461 40.6112 7.25716V7.28981C40.7578 7.33036 40.8864 7.44493 40.9967 7.63271C41.1068 7.82068 41.2556 8.1652 41.443 8.66627ZM40.6262 6.66219C40.6262 6.37323 40.4402 6.22866 40.0685 6.22866C39.9321 6.22866 39.8114 6.2388 39.707 6.25908C39.723 6.48417 39.7309 6.77759 39.7309 7.13914C39.8108 7.14218 39.8783 7.1434 39.9335 7.1434C40.3952 7.1436 40.6262 6.9832 40.6262 6.66219ZM44.5653 7.1959C44.5653 7.64163 44.4289 8.01128 44.1557 8.3047C43.8826 8.59793 43.545 8.74473 43.1429 8.74473C42.7594 8.74473 42.4384 8.61008 42.1801 8.34059C41.9215 8.0713 41.7924 7.72882 41.7924 7.31372C41.7924 6.86801 41.9288 6.49834 42.202 6.20492C42.4749 5.9117 42.8125 5.76489 43.2148 5.76489C43.5983 5.76489 43.9191 5.89913 44.1776 6.16781C44.4362 6.43651 44.5653 6.77901 44.5653 7.1959ZM43.9643 7.25898C43.9643 6.95542 43.8866 6.70925 43.7313 6.52046C43.5758 6.33168 43.3842 6.23738 43.1563 6.23738C42.9441 6.23738 42.7641 6.33249 42.616 6.52269C42.468 6.7129 42.3936 6.95321 42.3936 7.24378C42.3936 7.54571 42.4717 7.79148 42.6278 7.9811C42.7839 8.17069 42.9752 8.26539 43.2019 8.26539C43.4138 8.26539 43.594 8.16988 43.7421 7.97885C43.8901 7.78803 43.9643 7.54793 43.9643 7.25898ZM45.797 8.66627H45.1806C45.1994 8.2161 45.209 7.72172 45.209 7.18294C45.209 6.65288 45.1995 6.2019 45.1806 5.8302H45.797C45.7782 6.19622 45.7687 6.647 45.7687 7.18294C45.7687 7.73024 45.7782 8.22482 45.797 8.66627ZM48.9543 7.15011C48.9543 7.56254 48.8221 7.9227 48.5579 8.23051C48.2935 8.53853 47.9232 8.69224 47.4468 8.69224C47.2319 8.69224 46.9356 8.68351 46.5581 8.66607C46.5769 8.22747 46.5865 7.73288 46.5865 7.18276C46.5865 6.65431 46.5769 6.20333 46.5581 5.83H46.9393C47.0018 5.83 47.0946 5.82777 47.2181 5.82351C47.3414 5.81925 47.4221 5.81702 47.4598 5.81702C47.984 5.81702 48.364 5.94782 48.6003 6.2092C48.8363 6.47058 48.9543 6.78408 48.9543 7.15011ZM48.3598 7.24376C48.3598 6.96494 48.2784 6.73012 48.1158 6.5389C47.9532 6.34808 47.7048 6.25259 47.3708 6.25259C47.3083 6.25259 47.2228 6.25908 47.1137 6.27226C47.1281 6.56283 47.1353 6.86618 47.1353 7.18274C47.1353 7.5299 47.1427 7.87401 47.157 8.21529C47.2502 8.23406 47.3451 8.24357 47.4401 8.24368C47.7524 8.24368 47.9836 8.14656 48.1338 7.95269C48.2841 7.75883 48.3598 7.52258 48.3598 7.24376ZM53.1429 8.66627H52.4458C52.4458 8.57035 52.3796 8.29883 52.2472 7.8515H51.2408C51.1044 8.29153 51.036 8.56304 51.036 8.66627H50.3807C50.3807 8.60968 50.5502 8.14491 50.8892 7.27216C51.2283 6.3994 51.3978 5.9186 51.3978 5.8302H52.2213C52.2213 5.91294 52.375 6.38663 52.682 7.25148C52.989 8.11633 53.1429 8.58779 53.1429 8.66627ZM52.1365 7.4354C51.8881 6.68612 51.7638 6.28098 51.7638 6.21993H51.7289C51.7289 6.27652 51.6006 6.68166 51.3436 7.4354H52.1365ZM55.6837 6.57278C55.6837 6.91994 55.5547 7.17625 55.297 7.34172C55.0393 7.50718 54.7231 7.59011 54.3484 7.59011C54.2801 7.59011 54.2316 7.58869 54.2024 7.58585C54.2024 7.85899 54.2103 8.21894 54.2263 8.66627H53.6141C53.633 8.24672 53.6425 7.75212 53.6425 7.18294C53.6425 6.66018 53.633 6.2092 53.6141 5.8302H53.9931C54.0469 5.8302 54.1499 5.82797 54.3024 5.82372C54.4549 5.81946 54.5869 5.81721 54.6988 5.81721C54.9746 5.81721 55.2078 5.87967 55.398 6.00458C55.5882 6.12951 55.6837 6.3187 55.6837 6.57278ZM55.1218 6.69262C55.1218 6.38195 54.9156 6.22643 54.5031 6.22643C54.3999 6.22643 54.291 6.23737 54.1765 6.25908C54.1925 6.53364 54.2004 6.8443 54.2004 7.19146C54.2367 7.1945 54.2789 7.19572 54.3267 7.19572C54.8568 7.1959 55.1218 7.02822 55.1218 6.69262ZM58.2963 6.57278C58.2963 6.91994 58.1674 7.17625 57.9098 7.34172C57.6521 7.50718 57.3358 7.59011 56.961 7.59011C56.8927 7.59011 56.8442 7.58869 56.815 7.58585C56.815 7.85899 56.823 8.21894 56.839 8.66627H56.2268C56.2456 8.24672 56.2552 7.75212 56.2552 7.18294C56.2552 6.66018 56.2456 6.2092 56.2268 5.8302H56.6058C56.6595 5.8302 56.7625 5.82797 56.915 5.82372C57.0675 5.81946 57.1995 5.81721 57.3114 5.81721C57.5872 5.81721 57.8204 5.87967 58.0106 6.00458C58.2008 6.12951 58.2963 6.3187 58.2963 6.57278ZM57.7344 6.69262C57.7344 6.38195 57.5282 6.22643 57.1158 6.22643C57.0126 6.22643 56.9036 6.23737 56.7891 6.25908C56.8051 6.53364 56.813 6.8443 56.813 7.19146C56.8493 7.1945 56.8915 7.19572 56.9394 7.19572C57.4694 7.1959 57.7344 7.02822 57.7344 6.69262ZM62.5679 7.1959C62.5679 7.64163 62.4314 8.01128 62.1583 8.3047C61.8851 8.59812 61.5475 8.74473 61.1454 8.74473C60.7619 8.74473 60.4409 8.61008 60.1826 8.34059C59.9242 8.0713 59.7949 7.72882 59.7949 7.31372C59.7949 6.86801 59.9314 6.49834 60.2045 6.20492C60.4776 5.9115 60.8153 5.76489 61.2174 5.76489C61.6008 5.76489 61.9218 5.89913 62.1801 6.16781C62.4385 6.43651 62.5679 6.77901 62.5679 7.1959ZM61.9666 7.25898C61.9666 6.95542 61.8889 6.70925 61.7336 6.52046C61.5783 6.33168 61.3865 6.23738 61.1586 6.23738C60.9464 6.23738 60.7664 6.33249 60.6183 6.52269C60.4703 6.7129 60.3961 6.95321 60.3961 7.24378C60.3961 7.54571 60.4742 7.79148 60.6303 7.9811C60.7864 8.17069 60.9777 8.26539 61.2042 8.26539C61.4163 8.26539 61.5963 8.16988 61.7444 7.97887C61.8926 7.78803 61.9666 7.54793 61.9666 7.25898ZM65.5203 8.66627H64.9824C64.9824 8.60665 64.7828 8.29234 64.3833 7.72314C63.9652 7.12332 63.7269 6.71331 63.669 6.4925H63.6341C63.6704 6.81044 63.6886 7.09798 63.6886 7.35512C63.6886 7.71383 63.6988 8.15103 63.7191 8.66649H63.1831C63.2048 8.21632 63.2158 7.72194 63.2158 7.18316C63.2158 6.65311 63.2048 6.20212 63.1831 5.83042H63.83C63.83 5.90748 64.0094 6.21469 64.368 6.75185C64.75 7.32247 64.9692 7.70957 65.0258 7.91296H65.0584C65.0236 7.58912 65.0061 7.29873 65.0061 7.04162C65.0061 6.64825 64.996 6.2443 64.9757 5.83042H65.5203C65.4999 6.19056 65.4899 6.64154 65.4899 7.18316C65.4899 7.72882 65.5 8.2232 65.5203 8.66627Z" fill="#F9F9FA"/>
<defs>
<linearGradient id="paint0_linear_1_3707" x1="11.8785" y1="5.46195" x2="11.8785" y2="28.4374" gradientUnits="userSpaceOnUse">
<stop stop-color="#257CB0"/>
<stop offset="0.286" stop-color="#4A93B5"/>
<stop offset="0.767" stop-color="#78BCBB"/>
<stop offset="1" stop-color="#89CFBD"/>
</linearGradient>
<linearGradient id="paint1_linear_1_3707" x1="6.08588" y1="11.1633" x2="20.7831" y2="11.1633" gradientUnits="userSpaceOnUse">
<stop stop-color="#52C1AD"/>
<stop offset="1" stop-color="#DEE89A"/>
</linearGradient>
<linearGradient id="paint2_linear_1_3707" x1="13.4342" y1="16.949" x2="13.4342" y2="28.5202" gradientUnits="userSpaceOnUse">
<stop stop-color="#EC413D"/>
<stop offset="0.167" stop-color="#DA4452"/>
<stop offset="0.575" stop-color="#B0487A"/>
<stop offset="0.862" stop-color="#954A92"/>
<stop offset="1" stop-color="#8A4A9D"/>
</linearGradient>
<linearGradient id="paint3_linear_1_3707" x1="21.8988" y1="13.8637" x2="21.8988" y2="20.0344" gradientUnits="userSpaceOnUse">
<stop stop-color="#F58879"/>
<stop offset="0.119" stop-color="#F69079"/>
<stop offset="0.713" stop-color="#FCB877"/>
<stop offset="1" stop-color="#FEC874"/>
</linearGradient>
</defs>
</svg>
