<svg width="104" height="116" viewBox="0 0 104 116" fill="none" xmlns="http://www.w3.org/2000/svg">
<path d="M72.9363 100.92H71.1394V104.483C71.1394 105.389 71.456 105.842 72.0907 105.842C72.382 105.842 72.6236 105.817 72.8148 105.766L72.8599 107.004C72.5387 107.124 72.1159 107.184 71.5921 107.184C70.9483 107.184 70.4451 106.988 70.0819 106.596C69.7203 106.203 69.5383 105.544 69.5383 104.618V100.919H68.4678V99.6955H69.5383V98.3521L71.1394 97.8688V99.6955H72.9363V100.92Z" fill="white"/>
<path d="M81.0433 103.306C81.0433 104.434 80.7207 105.36 80.0768 106.084C79.4016 106.829 78.5055 107.201 77.3883 107.201C76.3117 107.201 75.4545 106.844 74.8153 106.13C74.1761 105.415 73.8564 104.514 73.8564 103.427C73.8564 102.29 74.1852 101.359 74.8451 100.635C75.5035 99.91 76.392 99.5475 77.5091 99.5475C78.5858 99.5475 79.4521 99.9046 80.1059 100.62C80.7314 101.313 81.0433 102.208 81.0433 103.306ZM79.3519 103.359C79.3519 102.682 79.2074 102.101 78.9146 101.617C78.5728 101.032 78.0842 100.74 77.451 100.74C76.7957 100.74 76.298 101.032 75.9562 101.617C75.6633 102.102 75.5188 102.692 75.5188 103.389C75.5188 104.066 75.6633 104.646 75.9562 105.129C76.3087 105.715 76.8011 106.007 77.4365 106.007C78.0589 106.007 78.5475 105.709 78.9 105.114C79.2005 104.621 79.3519 104.034 79.3519 103.359Z" fill="white"/>
<path d="M86.3437 101.132C86.1823 101.102 86.0103 101.087 85.8298 101.087C85.2563 101.087 84.8128 101.303 84.5009 101.737C84.2294 102.119 84.0933 102.602 84.0933 103.186V107.036H82.4638L82.4791 102.009C82.4791 101.163 82.4585 100.393 82.418 99.699H83.8379L83.8976 101.103H83.9427C84.1147 100.62 84.3862 100.232 84.7578 99.9406C85.121 99.6784 85.5132 99.5476 85.9361 99.5476C86.0867 99.5476 86.2228 99.5583 86.3437 99.5774V101.132Z" fill="white"/>
<path d="M93.6342 103.019C93.6342 103.311 93.6151 103.557 93.5745 103.758H88.6839C88.703 104.483 88.9393 105.037 89.3935 105.42C89.8056 105.761 90.3386 105.933 90.9931 105.933C91.7172 105.933 92.3779 105.817 92.972 105.585L93.2274 106.717C92.5331 107.02 91.7134 107.171 90.7675 107.171C89.6297 107.171 88.7366 106.836 88.0867 106.167C87.4383 105.498 87.1133 104.599 87.1133 103.472C87.1133 102.366 87.4153 101.444 88.0202 100.709C88.6533 99.9248 89.5089 99.5325 90.5855 99.5325C91.643 99.5325 92.4436 99.9248 92.9873 100.709C93.4178 101.333 93.6342 102.103 93.6342 103.019ZM92.0796 102.596C92.0904 102.112 91.9841 101.695 91.7631 101.342C91.4809 100.889 91.0474 100.663 90.464 100.663C89.931 100.663 89.4974 100.884 89.1664 101.327C88.8949 101.68 88.7336 102.103 88.6839 102.595L92.0796 102.596Z" fill="white"/>
<path d="M5.625 20.8611H1.58523V7.77017H5.80398C7.07386 7.77017 8.16051 8.03225 9.06392 8.5564C9.96733 9.07628 10.6598 9.82415 11.1413 10.8C11.6229 11.7716 11.8636 12.9349 11.8636 14.2901C11.8636 15.6537 11.6207 16.8277 11.1349 17.8121C10.6491 18.7922 9.94176 19.5465 9.01278 20.0749C8.08381 20.599 6.95455 20.8611 5.625 20.8611ZM3.17045 19.4548H5.52273C6.60511 19.4548 7.50213 19.246 8.21378 18.8284C8.92543 18.4108 9.45597 17.8163 9.8054 17.045C10.1548 16.2737 10.3295 15.3554 10.3295 14.2901C10.3295 13.2332 10.157 12.3234 9.81179 11.5607C9.46662 10.7936 8.95099 10.2055 8.26491 9.79645C7.57884 9.3831 6.72443 9.17642 5.7017 9.17642H3.17045V19.4548ZM18.3068 21.0656C17.4205 21.0656 16.6428 20.8547 15.9737 20.4328C15.3089 20.0109 14.7891 19.4207 14.4141 18.6622C14.0433 17.9037 13.858 17.0173 13.858 16.0031C13.858 14.9804 14.0433 14.0876 14.4141 13.3249C14.7891 12.5621 15.3089 11.9697 15.9737 11.5479C16.6428 11.126 17.4205 10.9151 18.3068 10.9151C19.1932 10.9151 19.9688 11.126 20.6335 11.5479C21.3026 11.9697 21.8224 12.5621 22.1932 13.3249C22.5682 14.0876 22.7557 14.9804 22.7557 16.0031C22.7557 17.0173 22.5682 17.9037 22.1932 18.6622C21.8224 19.4207 21.3026 20.0109 20.6335 20.4328C19.9688 20.8547 19.1932 21.0656 18.3068 21.0656ZM18.3068 19.7105C18.9801 19.7105 19.5341 19.5379 19.9688 19.1928C20.4034 18.8476 20.7251 18.3938 20.9339 17.8313C21.1428 17.2688 21.2472 16.6594 21.2472 16.0031C21.2472 15.3469 21.1428 14.7354 20.9339 14.1686C20.7251 13.6019 20.4034 13.1438 19.9688 12.7943C19.5341 12.4449 18.9801 12.2702 18.3068 12.2702C17.6335 12.2702 17.0795 12.4449 16.6449 12.7943C16.2102 13.1438 15.8885 13.6019 15.6797 14.1686C15.4709 14.7354 15.3665 15.3469 15.3665 16.0031C15.3665 16.6594 15.4709 17.2688 15.6797 17.8313C15.8885 18.3938 16.2102 18.8476 16.6449 19.1928C17.0795 19.5379 17.6335 19.7105 18.3068 19.7105ZM26.9489 20.8611L23.9574 11.0429H25.5426L27.6648 18.5599H27.767L29.8636 11.0429H31.4744L33.5455 18.5344H33.6477L35.7699 11.0429H37.3551L34.3636 20.8611H32.8807L30.733 13.3185H30.5795L28.4318 20.8611H26.9489ZM40.858 14.9548V20.8611H39.3494V11.0429H40.8068V12.577H40.9347C41.1648 12.0784 41.5142 11.6778 41.983 11.3753C42.4517 11.0685 43.0568 10.9151 43.7983 10.9151C44.4631 10.9151 45.0447 11.0514 45.5433 11.3242C46.0419 11.5926 46.4297 12.0017 46.7067 12.5514C46.9837 13.0969 47.1222 13.7872 47.1222 14.6224V20.8611H45.6136V14.7247C45.6136 13.9534 45.4134 13.3526 45.0128 12.9222C44.6122 12.4875 44.0625 12.2702 43.3636 12.2702C42.8821 12.2702 42.4517 12.3746 42.0724 12.5834C41.6974 12.7922 41.4013 13.0969 41.1839 13.4974C40.9666 13.898 40.858 14.3838 40.858 14.9548ZM51.3873 7.77017V20.8611H49.8787V7.77017H51.3873ZM58.1388 21.0656C57.2525 21.0656 56.4748 20.8547 55.8058 20.4328C55.141 20.0109 54.6211 19.4207 54.2461 18.6622C53.8754 17.9037 53.69 17.0173 53.69 16.0031C53.69 14.9804 53.8754 14.0876 54.2461 13.3249C54.6211 12.5621 55.141 11.9697 55.8058 11.5479C56.4748 11.126 57.2525 10.9151 58.1388 10.9151C59.0252 10.9151 59.8008 11.126 60.4656 11.5479C61.1346 11.9697 61.6545 12.5621 62.0252 13.3249C62.4002 14.0876 62.5877 14.9804 62.5877 16.0031C62.5877 17.0173 62.4002 17.9037 62.0252 18.6622C61.6545 19.4207 61.1346 20.0109 60.4656 20.4328C59.8008 20.8547 59.0252 21.0656 58.1388 21.0656ZM58.1388 19.7105C58.8121 19.7105 59.3661 19.5379 59.8008 19.1928C60.2354 18.8476 60.5572 18.3938 60.766 17.8313C60.9748 17.2688 61.0792 16.6594 61.0792 16.0031C61.0792 15.3469 60.9748 14.7354 60.766 14.1686C60.5572 13.6019 60.2354 13.1438 59.8008 12.7943C59.3661 12.4449 58.8121 12.2702 58.1388 12.2702C57.4656 12.2702 56.9116 12.4449 56.4769 12.7943C56.0423 13.1438 55.7205 13.6019 55.5117 14.1686C55.3029 14.7354 55.1985 15.3469 55.1985 16.0031C55.1985 16.6594 55.3029 17.2688 55.5117 17.8313C55.7205 18.3938 56.0423 18.8476 56.4769 19.1928C56.9116 19.5379 57.4656 19.7105 58.1388 19.7105ZM67.7797 21.0912C67.1575 21.0912 66.5929 20.974 66.0858 20.7396C65.5787 20.501 65.176 20.158 64.8777 19.7105C64.5794 19.2588 64.4302 18.7134 64.4302 18.0742C64.4302 17.5117 64.541 17.0557 64.7626 16.7063C64.9842 16.3526 65.2804 16.0756 65.6511 15.8753C66.0218 15.675 66.4309 15.5259 66.8784 15.4278C67.3301 15.3256 67.7839 15.2446 68.2399 15.1849C68.8365 15.1082 69.3201 15.0507 69.6909 15.0124C70.0659 14.9697 70.3386 14.8994 70.5091 14.8014C70.6838 14.7034 70.7711 14.533 70.7711 14.2901V14.2389C70.7711 13.6082 70.5985 13.1182 70.2534 12.7688C69.9125 12.4193 69.3947 12.2446 68.7001 12.2446C67.9799 12.2446 67.4153 12.4023 67.0062 12.7176C66.5971 13.033 66.3095 13.3696 66.1433 13.7276L64.7115 13.2162C64.9672 12.6196 65.3081 12.1551 65.7342 11.8227C66.1646 11.4861 66.6333 11.2517 67.1404 11.1196C67.6518 10.9832 68.1547 10.9151 68.649 10.9151C68.9643 10.9151 69.3265 10.9534 69.7356 11.0301C70.149 11.1026 70.5474 11.2538 70.9309 11.484C71.3187 11.7141 71.6404 12.0614 71.8961 12.5259C72.1518 12.9903 72.2797 13.6125 72.2797 14.3923V20.8611H70.7711V19.5315H70.6944C70.5922 19.7446 70.4217 19.9726 70.1831 20.2155C69.9444 20.4584 69.627 20.6651 69.2306 20.8355C68.8343 21.006 68.3507 21.0912 67.7797 21.0912ZM68.0098 19.7361C68.6064 19.7361 69.1092 19.6189 69.5183 19.3845C69.9316 19.1501 70.2427 18.8476 70.4515 18.4769C70.6646 18.1061 70.7711 17.7162 70.7711 17.3071V15.9264C70.7072 16.0031 70.5666 16.0734 70.3493 16.1374C70.1362 16.197 69.889 16.2503 69.6078 16.2972C69.3308 16.3398 69.0602 16.3781 68.796 16.4122C68.536 16.442 68.3251 16.4676 68.1632 16.4889C67.7711 16.5401 67.4047 16.6232 67.0637 16.7382C66.7271 16.849 66.4544 17.0173 66.2456 17.2432C66.041 17.4648 65.9387 17.7673 65.9387 18.1509C65.9387 18.675 66.1326 19.0713 66.5204 19.3398C66.9125 19.604 67.4089 19.7361 68.0098 19.7361ZM78.7404 21.0656C77.9222 21.0656 77.1999 20.859 76.5735 20.4456C75.9471 20.028 75.457 19.4399 75.1033 18.6814C74.7496 17.9186 74.5728 17.0173 74.5728 15.9776C74.5728 14.9463 74.7496 14.0514 75.1033 13.2929C75.457 12.5344 75.9492 11.9484 76.5799 11.5351C77.2106 11.1217 77.9393 10.9151 78.766 10.9151C79.4052 10.9151 79.9102 11.0216 80.2809 11.2347C80.6559 11.4435 80.9414 11.6821 81.1374 11.9506C81.3377 12.2148 81.4933 12.4321 81.604 12.6026H81.7319V7.77017H83.2404V20.8611H81.783V19.3526H81.604C81.4933 19.5315 81.3356 19.7574 81.131 20.0301C80.9265 20.2986 80.6346 20.5394 80.2553 20.7524C79.8761 20.9612 79.3711 21.0656 78.7404 21.0656ZM78.945 19.7105C79.5501 19.7105 80.0614 19.5528 80.479 19.2375C80.8967 18.9179 81.2141 18.4769 81.4315 17.9144C81.6488 17.3476 81.7575 16.6935 81.7575 15.952C81.7575 15.219 81.6509 14.5777 81.4379 14.028C81.2248 13.474 80.9094 13.0436 80.4918 12.7368C80.0742 12.4257 79.5586 12.2702 78.945 12.2702C78.3058 12.2702 77.7731 12.4342 77.3469 12.7624C76.9251 13.0862 76.6076 13.5273 76.3945 14.0855C76.1857 14.6395 76.0813 15.2617 76.0813 15.952C76.0813 16.6509 76.1879 17.2858 76.4009 17.8568C76.6183 18.4236 76.9379 18.8753 77.3597 19.2119C77.7859 19.5443 78.3143 19.7105 78.945 19.7105Z" fill="#CDD4F0"/>
<path d="M103.467 72.203V72.2457C103.444 74.6199 101.513 76.5382 99.1335 76.5382H4.58483C2.19124 76.5384 0.25 74.597 0.25 72.203V47.4459C0.25 45.0523 2.19121 43.1111 4.58483 43.1111H99.1333C101.527 43.1111 103.467 45.0522 103.467 47.4459V72.203Z" stroke="white" stroke-width="0.5"/>
<mask id="mask0_1_3535" style="mask-type:luminance" maskUnits="userSpaceOnUse" x="6" y="48" width="20" height="24">
<path d="M20.7831 56.7247L16.1064 54.0247C16.1064 54.0247 7.58648 49.1051 7.0856 48.8159C6.58473 48.5268 6.08569 48.702 6.08569 49.3063V70.5273C6.08569 70.9803 6.44236 71.1756 6.87753 70.9245C7.31249 70.6731 16.1064 65.5957 16.1064 65.5957L20.7829 62.8959C20.7829 62.8959 24.7509 60.6051 25.2783 60.3007C25.8057 59.9959 25.755 59.5782 25.3099 59.3386C24.865 59.0987 20.7831 56.7247 20.7831 56.7247Z" fill="white"/>
</mask>
<g mask="url(#mask0_1_3535)">
<path d="M6.08569 48.3227V71.2982L17.6713 59.8106L6.08569 48.3227Z" fill="url(#paint0_linear_1_3535)"/>
</g>
<mask id="mask1_1_3535" style="mask-type:luminance" maskUnits="userSpaceOnUse" x="6" y="48" width="20" height="24">
<path d="M20.7831 56.7247L16.1064 54.0247C16.1064 54.0247 7.58648 49.1051 7.0856 48.8159C6.58473 48.5268 6.08569 48.702 6.08569 49.3063V70.5273C6.08569 70.9803 6.44236 71.1756 6.87753 70.9245C7.31249 70.6731 16.1064 65.5957 16.1064 65.5957L20.7829 62.8959C20.7829 62.8959 24.7509 60.6051 25.2783 60.3007C25.8057 59.9959 25.755 59.5782 25.3099 59.3386C24.865 59.0987 20.7831 56.7247 20.7831 56.7247Z" fill="white"/>
</mask>
<g mask="url(#mask1_1_3535)">
<path d="M20.7829 56.7243L16.1062 54.0243L6.08569 48.2387V48.3222L17.6713 59.81L20.7829 56.7243Z" fill="url(#paint1_linear_1_3535)"/>
</g>
<mask id="mask2_1_3535" style="mask-type:luminance" maskUnits="userSpaceOnUse" x="6" y="48" width="20" height="24">
<path d="M20.7831 56.7247L16.1064 54.0247C16.1064 54.0247 7.58648 49.1051 7.0856 48.8159C6.58473 48.5268 6.08569 48.702 6.08569 49.3063V70.5273C6.08569 70.9803 6.44236 71.1756 6.87753 70.9245C7.31249 70.6731 16.1064 65.5957 16.1064 65.5957L20.7829 62.8959C20.7829 62.8959 24.7509 60.6051 25.2783 60.3007C25.8057 59.9959 25.755 59.5782 25.3099 59.3386C24.865 59.0987 20.7831 56.7247 20.7831 56.7247Z" fill="white"/>
</mask>
<g mask="url(#mask2_1_3535)">
<path d="M6.08569 71.2974V71.381L16.1062 65.5951L20.7827 62.8951L17.6713 59.8098L6.08569 71.2974Z" fill="url(#paint2_linear_1_3535)"/>
</g>
<mask id="mask3_1_3535" style="mask-type:luminance" maskUnits="userSpaceOnUse" x="6" y="48" width="20" height="24">
<path d="M20.7831 56.7247L16.1064 54.0247C16.1064 54.0247 7.58648 49.1051 7.0856 48.8159C6.58473 48.5268 6.08569 48.702 6.08569 49.3063V70.5273C6.08569 70.9803 6.44236 71.1756 6.87753 70.9245C7.31249 70.6731 16.1064 65.5957 16.1064 65.5957L20.7829 62.8959C20.7829 62.8959 24.7509 60.6051 25.2783 60.3007C25.8057 59.9959 25.755 59.5782 25.3099 59.3386C24.865 59.0987 20.7831 56.7247 20.7831 56.7247Z" fill="white"/>
</mask>
<g mask="url(#mask3_1_3535)">
<path d="M20.7823 56.7245L17.6707 59.8102L20.7821 62.8955L26.1267 59.81L20.7823 56.7245Z" fill="url(#paint3_linear_1_3535)"/>
</g>
<path d="M79.0244 64.3012C78.5892 64.3012 78.1922 64.2209 77.8327 64.0605C77.4731 63.8999 77.171 63.6529 76.9271 63.32H76.8541C76.9027 63.7101 76.9271 64.08 76.9271 64.4294V67.1788H75.9156V57.4976H76.7385L76.8784 58.4121H76.9271C77.1874 58.0461 77.4904 57.7823 77.8357 57.6196C78.181 57.457 78.5774 57.3757 79.0242 57.3757C79.9103 57.3757 80.5943 57.6786 81.0757 58.2841C81.5573 58.8896 81.7982 59.7393 81.7982 60.8323C81.7982 61.9297 81.5532 62.782 81.0639 63.3901C80.5742 63.9976 79.8945 64.3012 79.0244 64.3012ZM78.878 58.2353C78.1952 58.2353 77.7015 58.4245 77.3967 58.8023C77.0919 59.1802 76.9354 59.7819 76.9271 60.607V60.8323C76.9271 61.7713 77.0836 62.4429 77.3967 62.8475C77.7098 63.2521 78.2119 63.4538 78.9023 63.4538C79.4798 63.4538 79.9321 63.2204 80.2593 62.753C80.5862 62.2858 80.7498 61.6416 80.7498 60.8201C80.7498 59.9873 80.5862 59.3477 80.2593 58.9028C79.9322 58.4575 79.4715 58.2353 78.878 58.2353ZM84.1415 64.1791H83.1296V54.6931H84.1415V64.1791ZM89.9599 64.1791L89.7585 63.2281H89.7098C89.3764 63.647 89.0443 63.9307 88.713 64.0786C88.3818 64.2272 87.9682 64.3012 87.4726 64.3012C86.8101 64.3012 86.291 64.1305 85.9148 63.7892C85.5387 63.4479 85.3509 62.9625 85.3509 62.3322C85.3509 60.9831 86.4301 60.2758 88.588 60.2105L89.7224 60.1738V59.7594C89.7224 59.235 89.6094 58.8477 89.3837 58.598C89.1585 58.3478 88.7971 58.2229 88.3017 58.2229C87.7447 58.2229 87.1147 58.3936 86.4118 58.7349L86.1008 57.9607C86.4303 57.7819 86.7906 57.6418 87.1832 57.5401C87.5754 57.4386 87.9684 57.3877 88.3628 57.3877C89.1593 57.3877 89.7496 57.5643 90.1339 57.9179C90.5177 58.2716 90.7097 58.8385 90.7097 59.6191V64.1789H89.9599L89.9599 64.1791ZM87.6737 63.4662C88.3033 63.4662 88.7981 63.2934 89.1581 62.9481C89.5174 62.6027 89.6977 62.1189 89.6977 61.4968V60.8933L88.6852 60.9357C87.8806 60.9647 87.3008 61.0892 86.9448 61.3112C86.5893 61.5327 86.4114 61.8772 86.4114 62.3446C86.4114 62.7102 86.5219 62.9888 86.7438 63.1794C86.9654 63.3707 87.2751 63.4662 87.6737 63.4662ZM91.2972 57.4976H92.382L93.8453 61.308C94.1663 62.1779 94.3656 62.8057 94.4431 63.192H94.4918C94.5447 62.9843 94.6556 62.6301 94.8239 62.1276C94.9926 61.6255 95.5446 60.0826 96.479 57.4976H97.5647L94.6929 65.106C94.4086 65.8579 94.0763 66.3914 93.6958 66.707C93.316 67.0217 92.8495 67.1788 92.2973 67.1788C91.9883 67.1788 91.6835 67.1444 91.3823 67.0754V66.2647C91.6058 66.3134 91.856 66.3379 92.1324 66.3379C92.8275 66.3379 93.3229 65.9477 93.62 65.1673L93.9917 64.2164L91.2972 57.4976ZM60.2777 58.1185C60.5989 58.3843 61.2697 58.9428 61.2697 60.0055C61.2697 61.0391 60.6826 61.5292 60.0956 61.9897C59.9139 62.1712 59.7042 62.3675 59.7042 62.6753C59.7042 62.9821 59.9137 63.15 60.068 63.276L60.5713 63.6665C61.1861 64.1838 61.7446 64.6593 61.7446 65.6239C61.7446 66.9375 60.4728 68.2647 58.0694 68.2647C56.0427 68.2647 55.0649 67.3007 55.0649 66.2659C55.0649 65.763 55.3153 65.0507 56.141 64.5609C57.0069 64.0299 58.1816 63.9607 58.8102 63.9177C58.6139 63.6665 58.3909 63.4009 58.3909 62.9683C58.3909 62.7311 58.461 62.5912 58.5306 62.4227C58.3763 62.4369 58.2227 62.4508 58.0828 62.4508C56.6019 62.4508 55.7635 61.3467 55.7635 60.2572C55.7635 59.6142 56.0573 58.901 56.6575 58.3845C57.4544 57.7277 58.4046 57.6156 59.16 57.6156H62.0382L61.1438 58.1187H60.2777L60.2777 58.1185ZM59.2851 64.3239C59.1734 64.3093 59.1032 64.3093 58.9641 64.3093C58.8384 64.3093 58.0826 64.3379 57.4964 64.534C57.189 64.6449 56.2943 64.9803 56.2943 65.9731C56.2943 66.9649 57.2591 67.6787 58.7546 67.6787C60.0954 67.6787 60.809 67.0345 60.809 66.1688C60.809 65.4546 60.3476 65.0789 59.2851 64.3239ZM59.6906 61.6681C60.0116 61.3463 60.0392 60.8996 60.0392 60.6477C60.0392 59.6417 59.4386 58.0765 58.2789 58.0765C57.9151 58.0765 57.5242 58.258 57.3005 58.5378C57.0632 58.8312 56.9927 59.2082 56.9927 59.572C56.9927 60.5082 57.5377 62.0597 58.7402 62.0597C59.0896 62.0597 59.4662 61.892 59.6906 61.6681ZM51.4793 64.1002C49.2611 64.1002 48.0751 62.3699 48.0751 60.8069C48.0751 58.9788 49.5677 57.4169 51.6894 57.4169C53.7395 57.4169 55.0233 59.0208 55.0233 60.7096C55.0235 62.3553 53.7543 64.1002 51.4793 64.1002ZM53.2232 62.9702C53.5586 62.5232 53.6424 61.9654 53.6424 61.4207C53.6424 60.1925 53.0563 57.8488 51.326 57.8488C50.8657 57.8488 50.4054 58.0305 50.0706 58.3241C49.5264 58.8118 49.4282 59.426 49.4282 60.0266C49.4282 61.407 50.112 63.6807 51.8007 63.6807C52.3448 63.6807 52.903 63.4161 53.2232 62.9702ZM43.9167 64.1002C41.6981 64.1002 40.5118 62.3699 40.5118 60.8069C40.5118 58.9788 42.0051 57.4169 44.1261 57.4169C46.1769 57.4169 47.4604 59.0208 47.4604 60.7096C47.4606 62.3553 46.1912 64.1002 43.9167 64.1002ZM45.661 62.9702C45.9958 62.5232 46.0797 61.9654 46.0797 61.4207C46.0797 60.1925 45.4933 57.8488 43.763 57.8488C43.3029 57.8488 42.8422 58.0305 42.5076 58.3241C41.9633 58.8118 41.8658 59.426 41.8658 60.0266C41.8658 61.407 42.5491 63.6807 44.2381 63.6807C44.7823 63.6807 45.3402 63.4161 45.661 62.9702ZM39.446 63.8814L37.4397 64.3444C36.6257 64.4709 35.8966 64.5823 35.1254 64.5823C31.2531 64.5823 29.7808 61.7344 29.7808 59.5039C29.7808 56.7828 31.8706 54.2584 35.4482 54.2584C36.206 54.2584 36.9348 54.3703 37.594 54.5528C38.6461 54.8475 39.137 55.2118 39.4458 55.4225L38.2811 56.5307L37.7903 56.6424L38.1409 56.0812C37.6642 55.6186 36.7937 54.7631 35.139 54.7631C32.9224 54.7631 31.2528 56.4472 31.2528 58.9018C31.2528 61.5383 33.1609 64.0214 36.2184 64.0214C37.1171 64.0214 37.579 63.8393 38.0002 63.6706V61.4126L35.8824 61.5248L37.0042 60.9209H39.9783L39.6139 61.2715C39.515 61.3561 39.5014 61.3844 39.4734 61.4956C39.4588 61.6221 39.4456 62.0293 39.4456 62.1694V63.8815H39.446V63.8814Z" fill="#F9F9F9"/>
<path d="M64.7111 63.478C64.2479 63.4358 64.151 63.3521 64.151 62.8044V54.8648C64.1538 54.8346 64.1556 54.8035 64.1585 54.7743C64.215 54.2836 64.3552 54.1994 64.7905 53.9466H62.7839L61.7314 54.4517H62.8039V54.458L62.8031 54.4529V63.1134C62.8031 63.3935 62.7478 63.436 62.4247 63.8564H64.908L65.4271 63.5486C65.1888 63.5196 64.9499 63.506 64.7111 63.478ZM70.4193 63.607C70.2666 63.6907 70.1133 63.7887 69.9606 63.8578C69.5001 64.0667 69.0266 64.1226 68.6078 64.1226C68.1631 64.1226 67.466 64.0938 66.7549 63.579C65.7665 62.8818 65.3346 61.6838 65.3346 60.6393C65.3346 58.4803 67.0898 57.4216 68.5247 57.4216C69.0264 57.4216 69.5425 57.5467 69.9604 57.812C70.6563 58.2709 70.8374 58.8699 70.9343 59.1905L67.6613 60.5144L66.5884 60.5979C66.9362 62.3672 68.1342 63.3973 69.4581 63.3973C70.1684 63.3973 70.6841 63.1471 71.1576 62.9106L70.4193 63.607ZM69.1101 59.4549C69.3744 59.3577 69.5137 59.2738 69.5137 59.0789C69.5137 58.5221 68.8871 57.8809 68.1342 57.8809C67.5763 57.8809 66.5322 58.313 66.5322 59.8173C66.5322 60.0541 66.5602 60.3047 66.5746 60.5564L69.1101 59.4549ZM71.7639 57.5169V58.4361H71.6522V57.5169H71.348V57.4216H72.0679V57.5169H71.7639ZM73.0171 58.4361V57.5084H73.012L72.7289 58.4361H72.6415L72.356 57.5084H72.3524V58.4361H72.251V57.4216H72.4247L72.6831 58.2417H72.6867L72.9412 57.4216H73.1175V58.4361H73.0171Z" fill="#F9F9F9"/>
<path d="M32.566 51.5271H31.8688C31.8688 51.4312 31.8027 51.1597 31.6705 50.7124H30.6641C30.5276 51.1524 30.4593 51.4239 30.4593 51.5271H29.8037C29.8037 51.4705 29.9732 51.0058 30.3123 50.133C30.6513 49.2603 30.8208 48.7795 30.8208 48.6911H31.6443C31.6443 48.7738 31.7978 49.2475 32.105 50.1124C32.4123 50.9772 32.566 51.4487 32.566 51.5271ZM31.5596 50.2963C31.3112 49.547 31.1871 49.1419 31.1871 49.0808H31.1522C31.1522 49.1374 31.0236 49.5425 30.7667 50.2963H31.5596ZM35.3749 51.5271H34.8369C34.8369 51.4675 34.6372 51.1532 34.2379 50.584C33.8197 49.9842 33.5815 49.5742 33.5235 49.3534H33.4886C33.5249 49.6713 33.5432 49.9588 33.5432 50.216C33.5432 50.5747 33.5533 51.0119 33.5736 51.5274H33.0377C33.0593 51.0772 33.0703 50.5828 33.0703 50.044C33.0703 49.514 33.0594 49.063 33.0377 48.6913H33.6845C33.6845 48.7684 33.8638 49.0756 34.2225 49.6127C34.6043 50.1833 34.8237 50.5704 34.8803 50.7738H34.913C34.8781 50.45 34.8606 50.1596 34.8606 49.9025C34.8606 49.5091 34.8505 49.1052 34.8302 48.6913H35.3749C35.3544 49.0514 35.3445 49.5024 35.3445 50.044C35.3442 50.5897 35.3544 51.0841 35.3749 51.5271ZM38.5319 50.011C38.5319 50.4234 38.3997 50.7836 38.1355 51.0914C37.8711 51.3994 37.5008 51.5531 37.0245 51.5531C36.8095 51.5531 36.5133 51.5444 36.1357 51.5269C36.1545 51.0883 36.1641 50.5937 36.1641 50.0436C36.1641 49.5152 36.1545 49.0642 36.1357 48.6909H36.5169C36.5794 48.6909 36.6722 48.6886 36.7957 48.6844C36.919 48.6801 36.9997 48.6779 37.0374 48.6779C37.5616 48.6779 37.9416 48.8087 38.1779 49.0701C38.4139 49.3315 38.5319 49.6449 38.5319 50.011ZM37.9374 50.1046C37.9374 49.8258 37.856 49.591 37.6934 49.3998C37.5308 49.209 37.2824 49.1135 36.9484 49.1135C36.886 49.1135 36.8004 49.12 36.6913 49.1331C36.7057 49.4237 36.713 49.7271 36.713 50.0436C36.713 50.3908 36.7203 50.7349 36.7347 51.0762C36.8278 51.0949 36.9227 51.1044 37.0177 51.1045C37.33 51.1045 37.5612 51.0074 37.7115 50.8136C37.8617 50.6197 37.9374 50.3834 37.9374 50.1046ZM41.4432 51.5271H40.7984C40.6299 51.0131 40.5007 50.6957 40.4107 50.5753C40.3207 50.4546 40.1755 50.3944 39.9751 50.3944C39.8908 50.3944 39.8102 50.3952 39.7334 50.3966C39.7334 50.77 39.7399 51.1467 39.7531 51.5271H39.1476C39.1664 51.0885 39.176 50.594 39.176 50.0438C39.176 49.5154 39.1664 49.0644 39.1476 48.6911H39.5243C39.5679 48.6911 39.659 48.6888 39.7977 48.6846C39.9364 48.6803 40.0645 48.6781 40.1822 48.6781C40.8487 48.6781 41.1821 48.906 41.1821 49.3621C41.1821 49.7236 40.9918 49.9755 40.6114 50.118V50.1507C40.758 50.1912 40.8866 50.3058 40.9969 50.4936C41.107 50.6816 41.2558 51.0261 41.4432 51.5271ZM40.6264 49.5231C40.6264 49.2341 40.4405 49.0895 40.0688 49.0895C39.9323 49.0895 39.8116 49.0997 39.7072 49.12C39.7232 49.345 39.7312 49.6385 39.7312 50C39.8111 50.0031 39.8786 50.0043 39.9337 50.0043C40.3955 50.0045 40.6264 49.8441 40.6264 49.5231ZM44.5656 50.0568C44.5656 50.5025 44.4291 50.8721 44.156 51.1656C43.8828 51.4588 43.5452 51.6056 43.1431 51.6056C42.7597 51.6056 42.4387 51.471 42.1803 51.2015C41.9218 50.9322 41.7926 50.5897 41.7926 50.1746C41.7926 49.7289 41.9291 49.3592 42.2022 49.0658C42.4752 48.7726 42.8128 48.6258 43.2151 48.6258C43.5985 48.6258 43.9194 48.76 44.1779 49.0287C44.4364 49.2974 44.5656 49.6399 44.5656 50.0568ZM43.9646 50.1199C43.9646 49.8163 43.8869 49.5701 43.7316 49.3813C43.576 49.1925 43.3844 49.0983 43.1565 49.0983C42.9444 49.0983 42.7643 49.1934 42.6163 49.3836C42.4683 49.5738 42.3938 49.8141 42.3938 50.1046C42.3938 50.4066 42.4719 50.6524 42.628 50.842C42.7842 51.0316 42.9754 51.1263 43.2021 51.1263C43.414 51.1263 43.5943 51.0308 43.7423 50.8397C43.8904 50.6489 43.9646 50.4088 43.9646 50.1199ZM45.7973 51.5271H45.1808C45.1997 51.077 45.2092 50.5826 45.2092 50.0438C45.2092 49.5137 45.1997 49.0628 45.1808 48.6911H45.7973C45.7784 49.0571 45.7689 49.5079 45.7689 50.0438C45.7689 50.5911 45.7784 51.0857 45.7973 51.5271ZM48.9545 50.011C48.9545 50.4234 48.8223 50.7836 48.5581 51.0914C48.2937 51.3994 47.9234 51.5531 47.4471 51.5531C47.2321 51.5531 46.9359 51.5444 46.5583 51.5269C46.5772 51.0883 46.5867 50.5937 46.5867 50.0436C46.5867 49.5152 46.5772 49.0642 46.5583 48.6909H46.9395C47.002 48.6909 47.0949 48.6886 47.2184 48.6844C47.3417 48.6801 47.4224 48.6779 47.4601 48.6779C47.9843 48.6779 48.3643 48.8087 48.6005 49.0701C48.8365 49.3315 48.9545 49.6449 48.9545 50.011ZM48.36 50.1046C48.36 49.8258 48.2787 49.591 48.116 49.3998C47.9534 49.209 47.705 49.1135 47.371 49.1135C47.3086 49.1135 47.223 49.12 47.1139 49.1331C47.1283 49.4237 47.1356 49.7271 47.1356 50.0436C47.1356 50.3908 47.1429 50.7349 47.1573 51.0762C47.2505 51.0949 47.3453 51.1044 47.4404 51.1045C47.7526 51.1045 47.9838 51.0074 48.1341 50.8136C48.2844 50.6197 48.36 50.3834 48.36 50.1046ZM53.1432 51.5271H52.446C52.446 51.4312 52.3799 51.1597 52.2475 50.7124H51.2411C51.1046 51.1524 51.0363 51.4239 51.0363 51.5271H50.3809C50.3809 51.4705 50.5504 51.0058 50.8895 50.133C51.2285 49.2603 51.398 48.7795 51.398 48.6911H52.2215C52.2215 48.7738 52.3752 49.2475 52.6822 50.1124C52.9892 50.9772 53.1432 51.4487 53.1432 51.5271ZM52.1368 50.2963C51.8884 49.547 51.764 49.1419 51.764 49.0808H51.7292C51.7292 49.1374 51.6008 49.5425 51.3439 50.2963H52.1368ZM55.684 49.4337C55.684 49.7808 55.555 50.0371 55.2973 50.2026C55.0395 50.3681 54.7234 50.451 54.3486 50.451C54.2803 50.451 54.2319 50.4496 54.2027 50.4467C54.2027 50.7199 54.2105 51.0798 54.2266 51.5271H53.6144C53.6332 51.1076 53.6428 50.613 53.6428 50.0438C53.6428 49.521 53.6333 49.0701 53.6144 48.6911H53.9934C54.0471 48.6911 54.1501 48.6888 54.3026 48.6846C54.4551 48.6803 54.5871 48.6781 54.699 48.6781C54.9748 48.6781 55.208 48.7405 55.3982 48.8654C55.5884 48.9904 55.684 49.1796 55.684 49.4337ZM55.1221 49.5535C55.1221 49.2428 54.9158 49.0873 54.5034 49.0873C54.4002 49.0873 54.2913 49.0982 54.1767 49.12C54.1927 49.3945 54.2006 49.7052 54.2006 50.0523C54.2369 50.0554 54.2791 50.0566 54.327 50.0566C54.857 50.0568 55.1221 49.8891 55.1221 49.5535ZM58.2966 49.4337C58.2966 49.7808 58.1676 50.0371 57.9101 50.2026C57.6523 50.3681 57.336 50.451 56.9613 50.451C56.8929 50.451 56.8445 50.4496 56.8153 50.4467C56.8153 50.7199 56.8232 51.0798 56.8392 51.5271H56.227C56.2459 51.1076 56.2554 50.613 56.2554 50.0438C56.2554 49.521 56.2459 49.0701 56.227 48.6911H56.606C56.6598 48.6911 56.7628 48.6888 56.9152 48.6846C57.0677 48.6803 57.1997 48.6781 57.3117 48.6781C57.5874 48.6781 57.8207 48.7405 58.0109 48.8654C58.201 48.9904 58.2966 49.1796 58.2966 49.4337ZM57.7347 49.5535C57.7347 49.2428 57.5284 49.0873 57.116 49.0873C57.0128 49.0873 56.9039 49.0982 56.7893 49.12C56.8053 49.3945 56.8133 49.7052 56.8133 50.0523C56.8495 50.0554 56.8917 50.0566 56.9396 50.0566C57.4696 50.0568 57.7347 49.8891 57.7347 49.5535ZM62.5681 50.0568C62.5681 50.5025 62.4316 50.8721 62.1585 51.1656C61.8854 51.459 61.5477 51.6056 61.1456 51.6056C60.7622 51.6056 60.4412 51.471 60.1828 51.2015C59.9245 50.9322 59.7951 50.5897 59.7951 50.1746C59.7951 49.7289 59.9316 49.3592 60.2047 49.0658C60.4779 48.7724 60.8155 48.6258 61.2176 48.6258C61.6011 48.6258 61.9221 48.76 62.1804 49.0287C62.4387 49.2974 62.5681 49.6399 62.5681 50.0568ZM61.9669 50.1199C61.9669 49.8163 61.8892 49.5701 61.7339 49.3813C61.5786 49.1925 61.3867 49.0983 61.1588 49.0983C60.9467 49.0983 60.7666 49.1934 60.6186 49.3836C60.4706 49.5738 60.3963 49.8141 60.3963 50.1046C60.3963 50.4066 60.4744 50.6524 60.6306 50.842C60.7867 51.0316 60.9779 51.1263 61.2044 51.1263C61.4165 51.1263 61.5966 51.0308 61.7446 50.8397C61.8929 50.6489 61.9669 50.4088 61.9669 50.1199ZM65.5206 51.5271H64.9826C64.9826 51.4675 64.783 51.1532 64.3836 50.584C63.9655 49.9842 63.7272 49.5742 63.6692 49.3534H63.6343C63.6706 49.6713 63.6889 49.9588 63.6889 50.216C63.6889 50.5747 63.699 51.0119 63.7193 51.5274H63.1834C63.2051 51.0772 63.216 50.5828 63.216 50.044C63.216 49.514 63.2051 49.063 63.1834 48.6913H63.8302C63.8302 48.7684 64.0097 49.0756 64.3682 49.6127C64.7502 50.1833 64.9694 50.5704 65.026 50.7738H65.0587C65.0238 50.45 65.0064 50.1596 65.0064 49.9025C65.0064 49.5091 64.9962 49.1052 64.9759 48.6913H65.5206C65.5001 49.0514 65.4902 49.5024 65.4902 50.044C65.4902 50.5897 65.5003 51.0841 65.5206 51.5271Z" fill="#F9F9FA"/>
<path d="M103.467 111.276V111.318C103.444 113.693 101.513 115.611 99.1335 115.611H4.58483C2.19124 115.611 0.25 113.67 0.25 111.276V86.5187C0.25 84.125 2.19121 82.1838 4.58483 82.1838H99.1333C101.527 82.1838 103.467 84.125 103.467 86.5187V111.276Z" stroke="white" stroke-width="0.5"/>
<path d="M23.2638 98.0743C23.2416 95.6098 25.2816 94.4108 25.3749 94.355C24.2196 92.6705 22.4288 92.4404 21.7995 92.422C20.2954 92.2637 18.8365 93.322 18.0703 93.322C17.2888 93.322 16.109 92.4373 14.8374 92.4633C13.201 92.4885 11.6702 93.4359 10.8306 94.9071C9.09796 97.9068 10.3902 102.315 12.0502 104.74C12.8807 105.927 13.851 107.253 15.1211 107.206C16.3636 107.155 16.8277 106.414 18.3272 106.414C19.8129 106.414 20.2488 107.206 21.5441 107.177C22.8776 107.155 23.7172 105.984 24.5185 104.786C25.4782 103.424 25.8635 102.084 25.8788 102.015C25.8475 102.005 23.289 101.028 23.2638 98.0743Z" fill="white"/>
<path d="M20.8177 90.8266C21.486 89.9908 21.9432 88.8538 21.8163 87.7C20.849 87.7428 19.6394 88.369 18.9428 89.1864C18.3265 89.9067 17.7759 91.0873 17.9181 92.1976C19.0047 92.2786 20.1203 91.6493 20.8177 90.8266Z" fill="white"/>
<path d="M41.248 107.035H39.5115L38.5603 104.047H35.254L34.3479 107.035H32.6572L35.933 96.8596H37.9562L41.248 107.035ZM38.2735 102.792L37.4133 100.135C37.3223 99.8639 37.1518 99.2247 36.9002 98.2184H36.8696C36.7695 98.6512 36.6081 99.2904 36.3864 100.135L35.5415 102.792H38.2735Z" fill="white"/>
<path d="M49.6725 103.277C49.6725 104.525 49.3353 105.511 48.6609 106.235C48.0568 106.88 47.3067 107.202 46.4113 107.202C45.4448 107.202 44.7505 106.855 44.3277 106.16H44.2971V110.026H42.6669V102.114C42.6669 101.329 42.6462 100.524 42.6064 99.6985H44.0402L44.1311 100.862H44.1617C44.7054 99.9852 45.5304 99.5479 46.6376 99.5479C47.5032 99.5479 48.2258 99.8896 48.8039 100.574C49.3835 101.259 49.6725 102.16 49.6725 103.277ZM48.0117 103.337C48.0117 102.622 47.8511 102.034 47.5285 101.57C47.176 101.087 46.7026 100.845 46.1093 100.845C45.7071 100.845 45.3416 100.98 45.0151 101.245C44.6878 101.513 44.4737 101.862 44.3735 102.295C44.3231 102.497 44.2978 102.662 44.2978 102.792V104.016C44.2978 104.549 44.4615 105 44.7887 105.368C45.116 105.735 45.5411 105.919 46.0642 105.919C46.6782 105.919 47.1561 105.682 47.4979 105.209C47.8404 104.736 48.0117 104.112 48.0117 103.337Z" fill="white"/>
<path d="M58.1112 103.277C58.1112 104.525 57.774 105.511 57.0988 106.235C56.4955 106.88 55.7454 107.202 54.85 107.202C53.8835 107.202 53.1892 106.855 52.7671 106.16H52.7365V110.026H51.1063V102.114C51.1063 101.329 51.0857 100.524 51.0459 99.6985H52.4796L52.5706 100.862H52.6012C53.1441 99.9852 53.9691 99.5479 55.0771 99.5479C55.9419 99.5479 56.6645 99.8896 57.2441 100.574C57.8214 101.259 58.1112 102.16 58.1112 103.277ZM56.4504 103.337C56.4504 102.622 56.2891 102.034 55.9664 101.57C55.6139 101.087 55.1421 100.845 54.548 100.845C54.145 100.845 53.7803 100.98 53.453 101.245C53.1257 101.513 52.9124 101.862 52.8122 102.295C52.7625 102.497 52.7365 102.662 52.7365 102.792V104.016C52.7365 104.549 52.9002 105 53.2259 105.368C53.5532 105.735 53.9783 105.919 54.5029 105.919C55.1169 105.919 55.5948 105.682 55.9366 105.209C56.2791 104.736 56.4504 104.112 56.4504 103.337Z" fill="white"/>
<path d="M67.5473 104.182C67.5473 105.047 67.2468 105.751 66.6435 106.295C65.9805 106.889 65.0576 107.186 63.8716 107.186C62.7767 107.186 61.8989 106.975 61.2344 106.552L61.6121 105.193C62.3278 105.626 63.1131 105.843 63.9687 105.843C64.5828 105.843 65.0607 105.704 65.404 105.427C65.7458 105.15 65.9163 104.779 65.9163 104.315C65.9163 103.902 65.7756 103.555 65.4934 103.272C65.2128 102.99 64.7441 102.728 64.0896 102.486C62.3079 101.821 61.4179 100.848 61.4179 99.5677C61.4179 98.7312 61.7299 98.0453 62.3546 97.5116C62.977 96.9771 63.8074 96.7102 64.8458 96.7102C65.7718 96.7102 66.541 96.8715 67.155 97.1935L66.7475 98.5224C66.174 98.2104 65.5256 98.0544 64.7999 98.0544C64.2264 98.0544 63.7783 98.1959 63.4572 98.4773C63.1858 98.7289 63.0496 99.0355 63.0496 99.3987C63.0496 99.8009 63.2049 100.134 63.5168 100.395C63.7883 100.637 64.2815 100.898 64.9972 101.18C65.8727 101.533 66.5158 101.945 66.9294 102.418C67.3416 102.889 67.5473 103.478 67.5473 104.182Z" fill="white"/>
<path d="M37.7332 90.5975C37.7332 91.4975 37.4633 92.175 36.9242 92.6299C36.4249 93.0497 35.7153 93.26 34.7962 93.26C34.3405 93.26 33.9505 93.2401 33.624 93.2004V88.2829C34.0499 88.2141 34.5087 88.179 35.0042 88.179C35.8797 88.179 36.5396 88.3694 36.9846 88.7501C37.4832 89.1806 37.7332 89.7962 37.7332 90.5975ZM36.8883 90.6197C36.8883 90.0363 36.7338 89.589 36.4249 89.277C36.116 88.9658 35.6649 88.8098 35.0707 88.8098C34.8184 88.8098 34.6035 88.8266 34.4254 88.8618V92.6001C34.524 92.6154 34.7045 92.6223 34.9667 92.6223C35.58 92.6223 36.0533 92.4518 36.3867 92.1108C36.7201 91.7697 36.8883 91.2727 36.8883 90.6197Z" fill="white"/>
<path d="M42.214 91.3839C42.214 91.9383 42.0557 92.3925 41.7391 92.7488C41.4073 93.1151 40.9676 93.2978 40.4186 93.2978C39.8894 93.2978 39.4681 93.1227 39.1539 92.771C38.8403 92.42 38.6836 91.9773 38.6836 91.4436C38.6836 90.8854 38.8449 90.4274 39.1691 90.0718C39.4934 89.7162 39.9292 89.5381 40.4782 89.5381C41.0073 89.5381 41.4325 89.7132 41.7544 90.0642C42.0603 90.4052 42.214 90.8456 42.214 91.3839ZM41.3828 91.4099C41.3828 91.0773 41.3109 90.7921 41.1679 90.5543C40.9997 90.2668 40.7604 90.123 40.4492 90.123C40.1272 90.123 39.8826 90.2668 39.7143 90.5543C39.5706 90.7921 39.4995 91.0819 39.4995 91.4245C39.4995 91.7571 39.5713 92.0423 39.7143 92.2801C39.8879 92.5676 40.1295 92.7114 40.4415 92.7114C40.7474 92.7114 40.9875 92.5653 41.1603 92.2725C41.3086 92.0301 41.3828 91.7426 41.3828 91.4099Z" fill="white"/>
<path d="M48.2196 89.6108L47.0917 93.2154H46.3577L45.8905 91.6501C45.772 91.2594 45.6756 90.871 45.6007 90.4856H45.5862C45.5166 90.8817 45.4202 91.2694 45.2964 91.6501L44.8001 93.2154H44.0576L42.9971 89.6108H43.8206L44.2281 91.3244C44.3268 91.7297 44.4078 92.1158 44.4728 92.4813H44.4874C44.547 92.18 44.6456 91.7962 44.7848 91.3321L45.2964 89.6116H45.9494L46.4395 91.2954C46.558 91.706 46.6544 92.1013 46.7285 92.4821H46.7507C46.805 92.1112 46.8868 91.7159 46.9954 91.2954L47.4328 89.6116H48.2196V89.6108Z" fill="white"/>
<path d="M52.3743 93.2164H51.573V91.1518C51.573 90.5156 51.3314 90.1975 50.8466 90.1975C50.6088 90.1975 50.4169 90.2847 50.2678 90.4598C50.1202 90.6349 50.0452 90.8414 50.0452 91.0777V93.2156H49.2439V90.6418C49.2439 90.3252 49.234 89.9819 49.2148 89.6103H49.9191L49.9565 90.1738H49.9787C50.072 89.9987 50.2112 89.8542 50.3939 89.7388C50.6111 89.6042 50.8542 89.5361 51.1203 89.5361C51.4568 89.5361 51.7366 89.6447 51.9591 89.8626C52.2359 90.1295 52.3743 90.5279 52.3743 91.057V93.2164Z" fill="white"/>
<path d="M54.5848 93.2162H53.7842V87.9578H54.5848V93.2162Z" fill="white"/>
<path d="M59.3028 91.3839C59.3028 91.9383 59.1445 92.3925 58.828 92.7488C58.4961 93.1151 58.0557 93.2978 57.5074 93.2978C56.9775 93.2978 56.5562 93.1227 56.2427 92.771C55.9292 92.42 55.7725 91.9773 55.7725 91.4436C55.7725 90.8854 55.9338 90.4274 56.258 90.0718C56.5822 89.7162 57.0181 89.5381 57.5663 89.5381C58.0962 89.5381 58.5206 89.7132 58.8433 90.0642C59.1491 90.4052 59.3028 90.8456 59.3028 91.3839ZM58.4709 91.4099C58.4709 91.0773 58.399 90.7921 58.256 90.5543C58.0886 90.2668 57.8485 90.123 57.538 90.123C57.2153 90.123 56.9707 90.2668 56.8032 90.5543C56.6594 90.7921 56.5883 91.0819 56.5883 91.4245C56.5883 91.7571 56.6602 92.0423 56.8032 92.2801C56.9768 92.5676 57.2184 92.7114 57.5304 92.7114C57.8362 92.7114 58.0756 92.5653 58.2484 92.2725C58.3975 92.0301 58.4709 91.7426 58.4709 91.4099Z" fill="white"/>
<path d="M63.1809 93.216H62.4613L62.4017 92.8008H62.3795C62.1333 93.1319 61.7823 93.2978 61.3266 93.2978C60.9863 93.2978 60.7111 93.1885 60.5038 92.9713C60.3157 92.7741 60.2217 92.5286 60.2217 92.2373C60.2217 91.7968 60.4052 91.4612 60.7745 91.2287C61.1431 90.9963 61.6615 90.8823 62.329 90.8877V90.8204C62.329 90.3455 62.0798 90.1085 61.5805 90.1085C61.2249 90.1085 60.9114 90.198 60.6407 90.3754L60.4778 89.8493C60.8127 89.6421 61.2264 89.5381 61.7143 89.5381C62.6563 89.5381 63.1289 90.0351 63.1289 91.0291V92.3566C63.1289 92.7167 63.1464 93.0035 63.1809 93.216ZM62.3489 91.9773V91.4214C61.465 91.4061 61.023 91.6485 61.023 92.1478C61.023 92.3359 61.0735 92.4766 61.1767 92.5707C61.2799 92.6647 61.4115 92.7114 61.5682 92.7114C61.7441 92.7114 61.9085 92.6555 62.0584 92.5447C62.209 92.433 62.3015 92.2916 62.3359 92.118C62.3443 92.079 62.3489 92.0316 62.3489 91.9773Z" fill="white"/>
<path d="M67.7339 93.2163H67.0227L66.9853 92.6374H66.9631C66.736 93.0779 66.3491 93.2981 65.8054 93.2981C65.3711 93.2981 65.0094 93.1276 64.7227 92.7865C64.436 92.4455 64.293 92.0028 64.293 91.4591C64.293 90.8757 64.4482 90.4031 64.7602 90.0422C65.0622 89.7058 65.4323 89.5376 65.8727 89.5376C66.3567 89.5376 66.6955 89.7004 66.8882 90.0269H66.9035V87.9578H67.7056V92.2452C67.7056 92.5961 67.7147 92.9196 67.7339 93.2163ZM66.9035 91.6962V91.0951C66.9035 90.9912 66.8958 90.907 66.8813 90.8428C66.8362 90.6501 66.7391 90.488 66.5915 90.3573C66.4424 90.2265 66.2627 90.1607 66.0555 90.1607C65.7565 90.1607 65.5225 90.2793 65.3505 90.5171C65.18 90.7549 65.0935 91.0584 65.0935 91.4293C65.0935 91.7856 65.1754 92.0747 65.3398 92.2972C65.5133 92.5342 65.7473 92.6527 66.0402 92.6527C66.3032 92.6527 66.5135 92.5541 66.6733 92.356C66.8278 92.1733 66.9035 91.9531 66.9035 91.6962Z" fill="white"/>
<path d="M74.587 91.3839C74.587 91.9383 74.4287 92.3925 74.1122 92.7488C73.7803 93.1151 73.3414 93.2978 72.7916 93.2978C72.2633 93.2978 71.8419 93.1227 71.5269 92.771C71.2134 92.42 71.0566 91.9773 71.0566 91.4436C71.0566 90.8854 71.218 90.4274 71.5422 90.0718C71.8664 89.7162 72.3022 89.5381 72.852 89.5381C73.3804 89.5381 73.8063 89.7132 74.1275 90.0642C74.4333 90.4052 74.587 90.8456 74.587 91.3839ZM73.7566 91.4099C73.7566 91.0773 73.6847 90.7921 73.5417 90.5543C73.3727 90.2668 73.1342 90.123 72.8222 90.123C72.5011 90.123 72.2564 90.2668 72.0874 90.5543C71.9436 90.7921 71.8725 91.0819 71.8725 91.4245C71.8725 91.7571 71.9444 92.0423 72.0874 92.2801C72.261 92.5676 72.5026 92.7114 72.8146 92.7114C73.1204 92.7114 73.3613 92.5653 73.5341 92.2725C73.6817 92.0301 73.7566 91.7426 73.7566 91.4099Z" fill="white"/>
<path d="M78.8961 93.2164H78.0955V91.1518C78.0955 90.5156 77.8538 90.1975 77.3683 90.1975C77.1305 90.1975 76.9386 90.2847 76.7902 90.4598C76.6419 90.6349 76.5677 90.8414 76.5677 91.0777V93.2156H75.7656V90.6418C75.7656 90.3252 75.7564 89.9819 75.7373 89.6103H76.4408L76.4782 90.1738H76.5004C76.5945 89.9987 76.7336 89.8542 76.9156 89.7388C77.1335 89.6042 77.3759 89.5361 77.6428 89.5361C77.9785 89.5361 78.2583 89.6447 78.4808 89.8626C78.7584 90.1295 78.8961 90.5279 78.8961 91.057V93.2164Z" fill="white"/>
<path d="M84.289 90.2115H83.4066V91.9625C83.4066 92.4076 83.5634 92.6301 83.8738 92.6301C84.0176 92.6301 84.1369 92.6178 84.2309 92.5926L84.2516 93.2005C84.0933 93.2601 83.8853 93.29 83.6292 93.29C83.3126 93.29 83.0664 93.1936 82.8882 93.0009C82.7093 92.8082 82.6206 92.484 82.6206 92.0291V90.2115H82.0938V89.6113H82.6206V88.9506L83.4059 88.7136V89.6105H84.2883L84.289 90.2115Z" fill="white"/>
<path d="M88.5308 93.2162H87.7287V91.167C87.7287 90.5208 87.4871 90.1974 87.0031 90.1974C86.6315 90.1974 86.3776 90.3847 86.2384 90.7594C86.2147 90.8382 86.201 90.9345 86.201 91.0477V93.2155H85.4004V87.9578H86.201V90.1301H86.2163C86.4686 89.7348 86.8303 89.5375 87.299 89.5375C87.6309 89.5375 87.9054 89.6461 88.1233 89.864C88.3947 90.1355 88.5308 90.5392 88.5308 91.0729V93.2162Z" fill="white"/>
<path d="M92.9087 91.2438C92.9087 91.3875 92.898 91.5083 92.8789 91.607H90.4756C90.4863 91.9633 90.601 92.2348 90.8235 92.4229C91.0269 92.5911 91.2892 92.6752 91.6104 92.6752C91.9659 92.6752 92.2901 92.6186 92.5822 92.5047L92.7076 93.0613C92.3658 93.2097 91.9636 93.2838 91.498 93.2838C90.9398 93.2838 90.5001 93.1194 90.182 92.7907C89.8624 92.4619 89.7041 92.0207 89.7041 91.4671C89.7041 90.9234 89.8517 90.4707 90.1491 90.1098C90.4596 89.7244 90.8794 89.5317 91.4093 89.5317C91.9277 89.5317 92.3215 89.7244 92.5876 90.1098C92.8024 90.4157 92.9087 90.7942 92.9087 91.2438ZM92.1441 91.0366C92.1502 90.7988 92.0974 90.5938 91.9889 90.421C91.8497 90.1985 91.6379 90.0869 91.3511 90.0869C91.0896 90.0869 90.8763 90.1954 90.7134 90.4134C90.5804 90.5869 90.5016 90.7942 90.4756 91.0366H92.1441Z" fill="white"/>
<defs>
<linearGradient id="paint0_linear_1_3535" x1="11.8785" y1="48.3228" x2="11.8785" y2="71.2982" gradientUnits="userSpaceOnUse">
<stop stop-color="#257CB0"/>
<stop offset="0.286" stop-color="#4A93B5"/>
<stop offset="0.767" stop-color="#78BCBB"/>
<stop offset="1" stop-color="#89CFBD"/>
</linearGradient>
<linearGradient id="paint1_linear_1_3535" x1="6.08588" y1="54.0242" x2="20.7831" y2="54.0242" gradientUnits="userSpaceOnUse">
<stop stop-color="#52C1AD"/>
<stop offset="1" stop-color="#DEE89A"/>
</linearGradient>
<linearGradient id="paint2_linear_1_3535" x1="13.4342" y1="59.8098" x2="13.4342" y2="71.381" gradientUnits="userSpaceOnUse">
<stop stop-color="#EC413D"/>
<stop offset="0.167" stop-color="#DA4452"/>
<stop offset="0.575" stop-color="#B0487A"/>
<stop offset="0.862" stop-color="#954A92"/>
<stop offset="1" stop-color="#8A4A9D"/>
</linearGradient>
<linearGradient id="paint3_linear_1_3535" x1="21.8988" y1="56.7245" x2="21.8988" y2="62.8953" gradientUnits="userSpaceOnUse">
<stop stop-color="#F58879"/>
<stop offset="0.119" stop-color="#F69079"/>
<stop offset="0.713" stop-color="#FCB877"/>
<stop offset="1" stop-color="#FEC874"/>
</linearGradient>
</defs>
</svg>
