<svg width="67" height="20" viewBox="0 0 67 20" fill="none" xmlns="http://www.w3.org/2000/svg">
<path d="M0 18.8976V1.10411H4.83066V15.0053H12.0245V18.8976H0Z" fill="white"/>
<path d="M29.7878 10.0009C29.7878 11.9818 29.4026 13.6528 28.6323 15.014C27.8619 16.3694 26.8222 17.3975 25.5132 18.0983C24.2042 18.7934 22.7445 19.1409 21.1343 19.1409C19.5125 19.1409 18.0471 18.7905 16.7381 18.0896C15.4348 17.383 14.398 16.352 13.6277 14.9966C12.8631 13.6355 12.4808 11.9702 12.4808 10.0009C12.4808 8.01995 12.8631 6.35181 13.6277 4.99644C14.398 3.63528 15.4348 2.60718 16.7381 1.91212C18.0471 1.21127 19.5125 0.86084 21.1343 0.86084C22.7445 0.86084 24.2042 1.21127 25.5132 1.91212C26.8222 2.60718 27.8619 3.63528 28.6323 4.99644C29.4026 6.35181 29.7878 8.01995 29.7878 10.0009ZM24.8181 10.0009C24.8181 8.93511 24.6762 8.03733 24.3924 7.30752C24.1144 6.57191 23.7002 6.01586 23.15 5.63937C22.6055 5.25709 21.9336 5.06595 21.1343 5.06595C20.335 5.06595 19.6602 5.25709 19.11 5.63937C18.5655 6.01586 18.1514 6.57191 17.8675 7.30752C17.5895 8.03733 17.4505 8.93511 17.4505 10.0009C17.4505 11.0666 17.5895 11.9673 17.8675 12.7029C18.1514 13.4327 18.5655 13.9888 19.11 14.3711C19.6602 14.7475 20.335 14.9358 21.1343 14.9358C21.9336 14.9358 22.6055 14.7475 23.15 14.3711C23.7002 13.9888 24.1144 13.4327 24.3924 12.7029C24.6762 11.9673 24.8181 11.0666 24.8181 10.0009Z" fill="white"/>
<path d="M42.8442 6.97736C42.7689 6.67038 42.6502 6.40104 42.488 6.16936C42.3258 5.93188 42.1231 5.73205 41.8798 5.56987C41.6424 5.40189 41.3643 5.27736 41.0458 5.19627C40.733 5.10939 40.3884 5.06595 40.0119 5.06595C39.201 5.06595 38.5088 5.25999 37.9354 5.64806C37.3678 6.03614 36.9333 6.59508 36.6321 7.32489C36.3367 8.0547 36.189 8.93511 36.189 9.96612C36.189 11.0087 36.331 11.9007 36.6148 12.6421C36.8986 13.3835 37.3214 13.9511 37.8833 14.345C38.4451 14.7389 39.143 14.9358 39.9771 14.9358C40.7127 14.9358 41.3238 14.8286 41.8103 14.6143C42.3027 14.4 42.6705 14.0959 42.9137 13.7021C43.157 13.3082 43.2786 12.8448 43.2786 12.3119L44.1127 12.3988H40.0466V8.95828H47.9355V11.4257C47.9355 13.0475 47.5909 14.4348 46.9016 15.5874C46.2182 16.7343 45.2741 17.6147 44.0693 18.2286C42.8703 18.8368 41.4947 19.1409 39.9424 19.1409C38.2105 19.1409 36.6901 18.7731 35.381 18.0375C34.072 17.3019 33.0497 16.2535 32.3141 14.8924C31.5843 13.5312 31.2194 11.9123 31.2194 10.0356C31.2194 8.56441 31.4424 7.26118 31.8884 6.12591C32.3402 4.99065 32.9657 4.03205 33.765 3.25011C34.5643 2.46237 35.4882 1.86868 36.5366 1.46902C37.585 1.06357 38.7086 0.86084 39.9076 0.86084C40.9618 0.86084 41.9407 1.01144 42.8442 1.31263C43.7536 1.60803 44.5558 2.03086 45.2509 2.58111C45.9517 3.12557 46.5165 3.7714 46.9451 4.51859C47.3737 5.26578 47.6344 6.08537 47.727 6.97736H42.8442Z" fill="white"/>
<path d="M66.6915 10.0009C66.6915 11.9818 66.3063 13.6528 65.5359 15.014C64.7656 16.3694 63.7259 17.3975 62.4168 18.0983C61.1078 18.7934 59.6482 19.1409 58.038 19.1409C56.4162 19.1409 54.9508 18.7905 53.6417 18.0896C52.3385 17.383 51.3017 16.352 50.5313 14.9966C49.7668 13.6355 49.3845 11.9702 49.3845 10.0009C49.3845 8.01995 49.7668 6.35181 50.5313 4.99644C51.3017 3.63528 52.3385 2.60718 53.6417 1.91212C54.9508 1.21127 56.4162 0.86084 58.038 0.86084C59.6482 0.86084 61.1078 1.21127 62.4168 1.91212C63.7259 2.60718 64.7656 3.63528 65.5359 4.99644C66.3063 6.35181 66.6915 8.01995 66.6915 10.0009ZM61.7218 10.0009C61.7218 8.93511 61.5799 8.03733 61.2961 7.30752C61.018 6.57191 60.6039 6.01586 60.0536 5.63937C59.5092 5.25709 58.8373 5.06595 58.038 5.06595C57.2387 5.06595 56.5639 5.25709 56.0136 5.63937C55.4692 6.01586 55.055 6.57191 54.7712 7.30752C54.4932 8.03733 54.3542 8.93511 54.3542 10.0009C54.3542 11.0666 54.4932 11.9673 54.7712 12.7029C55.055 13.4327 55.4692 13.9888 56.0136 14.3711C56.5639 14.7475 57.2387 14.9358 58.038 14.9358C58.8373 14.9358 59.5092 14.7475 60.0536 14.3711C60.6039 13.9888 61.018 13.4327 61.2961 12.7029C61.5799 11.9673 61.7218 11.0666 61.7218 10.0009Z" fill="white"/>
</svg>
