<svg width="67" height="19" viewBox="0 0 67 19" fill="none" xmlns="http://www.w3.org/2000/svg">
<path d="M0 18.0368V0.243271H4.83066V14.1445H12.0245V18.0368H0Z" fill="white"/>
<path d="M29.7878 9.14003C29.7878 11.1209 29.4026 12.792 28.6323 14.1531C27.8619 15.5085 26.8222 16.5366 25.5132 17.2375C24.2042 17.9325 22.7445 18.2801 21.1343 18.2801C19.5125 18.2801 18.0471 17.9296 16.7381 17.2288C15.4348 16.5221 14.398 15.4911 13.6277 14.1358C12.8631 12.7746 12.4808 11.1094 12.4808 9.14003C12.4808 7.15911 12.8631 5.49097 13.6277 4.1356C14.398 2.77445 15.4348 1.74634 16.7381 1.05128C18.0471 0.350426 19.5125 0 21.1343 0C22.7445 0 24.2042 0.350426 25.5132 1.05128C26.8222 1.74634 27.8619 2.77445 28.6323 4.1356C29.4026 5.49097 29.7878 7.15911 29.7878 9.14003ZM24.8181 9.14003C24.8181 8.07427 24.6762 7.17649 24.3924 6.44668C24.1144 5.71107 23.7002 5.15502 23.15 4.77853C22.6055 4.39625 21.9336 4.20511 21.1343 4.20511C20.335 4.20511 19.6602 4.39625 19.11 4.77853C18.5655 5.15502 18.1514 5.71107 17.8675 6.44668C17.5895 7.17649 17.4505 8.07427 17.4505 9.14003C17.4505 10.2058 17.5895 11.1065 17.8675 11.8421C18.1514 12.5719 18.5655 13.1279 19.11 13.5102C19.6602 13.8867 20.335 14.075 21.1343 14.075C21.9336 14.075 22.6055 13.8867 23.15 13.5102C23.7002 13.1279 24.1144 12.5719 24.3924 11.8421C24.6762 11.1065 24.8181 10.2058 24.8181 9.14003Z" fill="white"/>
<path d="M42.8442 6.11652C42.7689 5.80954 42.6502 5.5402 42.488 5.30852C42.3258 5.07104 42.1231 4.87121 41.8798 4.70903C41.6424 4.54105 41.3643 4.41652 41.0458 4.33543C40.733 4.24855 40.3884 4.20511 40.0119 4.20511C39.201 4.20511 38.5088 4.39915 37.9354 4.78722C37.3678 5.1753 36.9333 5.73424 36.6321 6.46405C36.3367 7.19386 36.189 8.07427 36.189 9.10528C36.189 10.1479 36.331 11.0399 36.6148 11.7813C36.8986 12.5227 37.3214 13.0903 37.8833 13.4842C38.4451 13.878 39.143 14.075 39.9771 14.075C40.7127 14.075 41.3238 13.9678 41.8103 13.7535C42.3027 13.5392 42.6705 13.2351 42.9137 12.8412C43.157 12.4474 43.2786 11.984 43.2786 11.4511L44.1127 11.538H40.0466V8.09744H47.9355V10.5649C47.9355 12.1867 47.5909 13.5739 46.9016 14.7266C46.2182 15.8734 45.2741 16.7538 44.0693 17.3678C42.8703 17.976 41.4947 18.2801 39.9424 18.2801C38.2105 18.2801 36.6901 17.9123 35.381 17.1767C34.072 16.441 33.0497 15.3927 32.3141 14.0315C31.5843 12.6704 31.2194 11.0514 31.2194 9.17478C31.2194 7.70357 31.4424 6.40034 31.8884 5.26507C32.3402 4.12981 32.9657 3.17121 33.765 2.38927C34.5643 1.60153 35.4882 1.00784 36.5366 0.608176C37.585 0.202725 38.7086 0 39.9076 0C40.9618 0 41.9407 0.150596 42.8442 0.451789C43.7536 0.747189 44.5558 1.17002 45.2509 1.72027C45.9517 2.26473 46.5165 2.91056 46.9451 3.65775C47.3737 4.40494 47.6344 5.22453 47.727 6.11652H42.8442Z" fill="white"/>
<path d="M66.6915 9.14003C66.6915 11.1209 66.3063 12.792 65.5359 14.1531C64.7656 15.5085 63.7259 16.5366 62.4168 17.2375C61.1078 17.9325 59.6482 18.2801 58.038 18.2801C56.4162 18.2801 54.9508 17.9296 53.6417 17.2288C52.3385 16.5221 51.3017 15.4911 50.5313 14.1358C49.7668 12.7746 49.3845 11.1094 49.3845 9.14003C49.3845 7.15911 49.7668 5.49097 50.5313 4.1356C51.3017 2.77445 52.3385 1.74634 53.6417 1.05128C54.9508 0.350426 56.4162 0 58.038 0C59.6482 0 61.1078 0.350426 62.4168 1.05128C63.7259 1.74634 64.7656 2.77445 65.5359 4.1356C66.3063 5.49097 66.6915 7.15911 66.6915 9.14003ZM61.7218 9.14003C61.7218 8.07427 61.5799 7.17649 61.2961 6.44668C61.018 5.71107 60.6039 5.15502 60.0536 4.77853C59.5092 4.39625 58.8373 4.20511 58.038 4.20511C57.2387 4.20511 56.5639 4.39625 56.0136 4.77853C55.4692 5.15502 55.055 5.71107 54.7712 6.44668C54.4932 7.17649 54.3542 8.07427 54.3542 9.14003C54.3542 10.2058 54.4932 11.1065 54.7712 11.8421C55.055 12.5719 55.4692 13.1279 56.0136 13.5102C56.5639 13.8867 57.2387 14.075 58.038 14.075C58.8373 14.075 59.5092 13.8867 60.0536 13.5102C60.6039 13.1279 61.018 12.5719 61.2961 11.8421C61.5799 11.1065 61.7218 10.2058 61.7218 9.14003Z" fill="white"/>
</svg>
