<svg width="120" height="34" viewBox="0 0 120 34" fill="none" xmlns="http://www.w3.org/2000/svg">
<path d="M0 32.8417V0.442952H8.69196V25.7545H21.6361V32.8417H0Z" fill="white"/>
<path d="M53.5981 16.6423C53.5981 20.2492 52.9051 23.2919 51.5189 25.7703C50.1328 28.2382 48.2621 30.1102 45.9067 31.3863C43.5513 32.6519 40.925 33.2847 38.0276 33.2847C35.1095 33.2847 32.4727 32.6466 30.1173 31.3705C27.7724 30.0838 25.9068 28.2065 24.5207 25.7387C23.145 23.2602 22.4571 20.2281 22.4571 16.6423C22.4571 13.0354 23.145 9.99806 24.5207 7.53018C25.9068 5.05176 27.7724 3.17976 30.1173 1.91419C32.4727 0.638062 35.1095 0 38.0276 0C40.925 0 43.5513 0.638062 45.9067 1.91419C48.2621 3.17976 50.1328 5.05176 51.5189 7.53018C52.9051 9.99806 53.5981 13.0354 53.5981 16.6423ZM44.656 16.6423C44.656 14.7018 44.4007 13.0671 43.89 11.7382C43.3898 10.3988 42.6446 9.38636 41.6545 8.70084C40.6748 8.00477 39.4659 7.65674 38.0276 7.65674C36.5894 7.65674 35.3752 8.00477 34.3851 8.70084C33.4055 9.38636 32.6603 10.3988 32.1496 11.7382C31.6494 13.0671 31.3992 14.7018 31.3992 16.6423C31.3992 18.5829 31.6494 20.2229 32.1496 21.5623C32.6603 22.8911 33.4055 23.9036 34.3851 24.5997C35.3752 25.2852 36.5894 25.6279 38.0276 25.6279C39.4659 25.6279 40.6748 25.2852 41.6545 24.5997C42.6446 23.9036 43.3898 22.8911 43.89 21.5623C44.4007 20.2229 44.656 18.5829 44.656 16.6423Z" fill="white"/>
<path d="M77.091 11.1371C76.9555 10.5781 76.7418 10.0877 76.45 9.66584C76.1582 9.23344 75.7934 8.86959 75.3557 8.57428C74.9284 8.26844 74.4281 8.04169 73.8549 7.89403C73.2921 7.73584 72.672 7.65674 71.9946 7.65674C70.5355 7.65674 69.2901 8.01005 68.2583 8.71666C67.237 9.42327 66.4553 10.441 65.9134 11.7699C65.3818 13.0987 65.1161 14.7018 65.1161 16.5791C65.1161 18.4774 65.3714 20.1016 65.8821 21.4515C66.3928 22.8015 67.1536 23.835 68.1645 24.5522C69.1754 25.2694 70.4313 25.6279 71.9321 25.6279C73.2557 25.6279 74.3552 25.4328 75.2306 25.0426C76.1165 24.6524 76.7783 24.0987 77.216 23.3815C77.6537 22.6644 77.8726 21.8207 77.8726 20.8504L79.3734 21.0086H72.0571V14.744H86.2519V19.2368C86.2519 22.1898 85.6318 24.7157 84.3916 26.8144C83.1618 28.9026 81.463 30.5057 79.2952 31.6236C77.1379 32.731 74.6626 33.2847 71.8695 33.2847C68.7534 33.2847 66.0176 32.615 63.6622 31.2756C61.3068 29.9362 59.4673 28.0273 58.1437 25.5488C56.8306 23.0704 56.174 20.1227 56.174 16.7056C56.174 14.0268 56.5752 11.6539 57.3777 9.58675C58.1906 7.51964 59.3162 5.7742 60.7545 4.35042C62.1927 2.9161 63.855 1.83509 65.7414 1.10738C67.6278 0.369126 69.6496 0 71.807 0C73.7038 0 75.4651 0.274209 77.091 0.822626C78.7272 1.3605 80.1707 2.13039 81.4213 3.1323C82.6824 4.12367 83.6985 5.2996 84.4697 6.6601C85.241 8.02059 85.71 9.51292 85.8767 11.1371H77.091Z" fill="white"/>
<path d="M120 16.6423C120 20.2492 119.307 23.2919 117.921 25.7703C116.535 28.2382 114.664 30.1102 112.309 31.3863C109.953 32.6519 107.327 33.2847 104.43 33.2847C101.511 33.2847 98.8746 32.6466 96.5192 31.3705C94.1743 30.0838 92.3087 28.2065 90.9226 25.7387C89.5469 23.2602 88.859 20.2281 88.859 16.6423C88.859 13.0354 89.5469 9.99806 90.9226 7.53018C92.3087 5.05176 94.1743 3.17976 96.5192 1.91419C98.8746 0.638062 101.511 0 104.43 0C107.327 0 109.953 0.638062 112.309 1.91419C114.664 3.17976 116.535 5.05176 117.921 7.53018C119.307 9.99806 120 13.0354 120 16.6423ZM111.058 16.6423C111.058 14.7018 110.803 13.0671 110.292 11.7382C109.792 10.3988 109.046 9.38636 108.056 8.70084C107.077 8.00477 105.868 7.65674 104.43 7.65674C102.991 7.65674 101.777 8.00477 100.787 8.70084C99.8074 9.38636 99.0622 10.3988 98.5515 11.7382C98.0512 13.0671 97.8011 14.7018 97.8011 16.6423C97.8011 18.5829 98.0512 20.2229 98.5515 21.5623C99.0622 22.8911 99.8074 23.9036 100.787 24.5997C101.777 25.2852 102.991 25.6279 104.43 25.6279C105.868 25.6279 107.077 25.2852 108.056 24.5997C109.046 23.9036 109.792 22.8911 110.292 21.5623C110.803 20.2229 111.058 18.5829 111.058 16.6423Z" fill="white"/>
</svg>
