<svg width="18" height="10" viewBox="0 0 18 10" fill="none" xmlns="http://www.w3.org/2000/svg">
<path d="M18 9.16667C18 9.6269 17.656 10 17.2317 10L4.93902 10C4.51471 10 4.17073 9.6269 4.17073 9.16667C4.17073 8.70643 4.51471 8.33333 4.93902 8.33333L17.2317 8.33333C17.656 8.33333 18 8.70643 18 9.16667Z" fill="#CDD4F0"/>
<path d="M13.8293 5C13.8293 5.46024 13.4853 5.83333 13.061 5.83333L0.768294 5.83333C0.343977 5.83333 3.96879e-07 5.46024 4.37114e-07 5C4.77349e-07 4.53976 0.343977 4.16666 0.768294 4.16667L13.061 4.16667C13.4853 4.16667 13.8293 4.53976 13.8293 5Z" fill="#CDD4F0"/>
<path d="M18 0.833333C18 1.29357 17.656 1.66667 17.2317 1.66667L4.93902 1.66667C4.51471 1.66667 4.17073 1.29357 4.17073 0.833332C4.17073 0.373095 4.51471 -1.17892e-06 4.93902 -1.14183e-06L17.2317 -6.71663e-08C17.656 -3.00714e-08 18 0.373096 18 0.833333Z" fill="#CDD4F0"/>
</svg>
