<svg width="141" height="36" viewBox="0 0 141 36" fill="none" xmlns="http://www.w3.org/2000/svg">
<path fill-rule="evenodd" clip-rule="evenodd" d="M11.3633 0.981718C10.686 1.05521 9.85346 1.2119 9.2246 1.38431C4.97428 2.54914 1.57671 5.94672 0.411873 10.197C-0.0137367 11.7499 5.10494e-05 11.473 5.10494e-05 18.4701C5.10494e-05 25.4672 -0.0137367 25.1904 0.411873 26.7432C1.57671 30.9935 4.97428 34.3911 9.2246 35.5559C10.7774 35.9815 10.5006 35.9677 17.4977 35.9677C24.4948 35.9677 24.2179 35.9815 25.7707 35.5559C30.0211 34.3911 33.4186 30.9935 34.5835 26.7432C35.0091 25.1904 34.9953 25.4672 34.9953 18.4701C34.9953 12.6522 34.9874 12.1429 34.8883 11.5541C34.5393 9.4817 33.7333 7.60785 32.4605 5.90991C32.051 5.36354 31.047 4.31848 30.4679 3.83567C28.8215 2.46303 26.8271 1.53557 24.596 1.10493C23.9683 0.983763 23.8093 0.980608 17.7606 0.970209C14.3545 0.964308 11.4757 0.969508 11.3633 0.981718ZM104.343 5.5786C103.653 5.80791 103.133 6.25969 102.835 6.88832C102.666 7.2454 102.649 7.33403 102.649 7.83839C102.649 8.34737 102.665 8.42729 102.838 8.77853C103.067 9.24486 103.519 9.7106 103.942 9.91771C104.615 10.2468 105.598 10.2389 106.3 9.8989C106.701 9.70482 107.225 9.18591 107.409 8.80114C107.598 8.40369 107.645 7.52039 107.5 7.08263C107.304 6.49449 106.72 5.90898 106.067 5.64736C105.723 5.50966 104.676 5.46789 104.343 5.5786ZM11.4217 14.2331V20.6175L10.5308 20.6474C9.51881 20.6813 9.12347 20.7731 8.35159 21.1536C7.68241 21.4833 7.16245 21.9756 6.8805 22.5464C6.6717 22.9691 6.66031 23.0212 6.66182 23.5501C6.66323 24.0372 6.68449 24.154 6.82973 24.4714C7.23215 25.351 8.08167 25.8119 9.55983 25.9528C11.0345 26.0934 12.0417 25.7404 13.0644 24.7245C13.5382 24.2538 13.6634 24.0884 13.8625 23.6697C13.9924 23.3966 14.1273 23.0338 14.1623 22.8636C14.2046 22.6581 14.226 21.2335 14.226 18.6287V14.7034L15.406 15.9295C16.055 16.6038 16.9616 17.5368 17.4207 18.0027L18.2553 18.8499L20.3595 16.7469L22.4636 14.644V22.0196V29.3952H23.8658H25.2679V18.6309V7.86672L21.7631 11.3712L18.2583 14.8756L18.1211 14.7303C17.7801 14.3694 13.5069 9.97257 12.5202 8.96758L11.4217 7.84873V14.2331ZM48.3137 12.7708C46.8625 12.9964 45.6803 13.8104 44.863 15.147L44.635 15.5198L44.6193 14.3075L44.6034 13.0952H42.7643H40.9252V20.8654V28.6357H42.8801H44.835L44.8536 23.8888L44.8722 19.142L45.0059 18.7047C45.3951 17.432 46.2431 16.5849 47.4101 16.303C47.8683 16.1923 48.883 16.2034 49.2797 16.3234C50.1711 16.5931 50.7072 17.3056 50.9137 18.4955C50.9518 18.7147 50.9739 20.642 50.9739 23.7397V28.6372L52.9165 28.6218L54.859 28.6065L54.8894 23.9034C54.9193 19.2732 54.9218 19.1933 55.049 18.7422C55.4811 17.2111 56.4457 16.3485 57.8678 16.2217C58.7269 16.1451 59.5455 16.3754 60.0487 16.8353C60.4167 17.1717 60.6845 17.6463 60.8619 18.2765C60.9889 18.7278 60.9906 18.7892 61.009 23.6851L61.0276 28.6372L62.9676 28.6218L64.9077 28.6065L64.9073 23.4068C64.9068 18.2296 64.9062 18.204 64.7717 17.4572C64.4265 15.5404 63.7083 14.3006 62.4851 13.51C61.7079 13.0076 60.8383 12.7577 59.6789 12.7035C57.4071 12.5973 55.6987 13.3856 54.546 15.0719L54.2531 15.5005L54.1242 15.2472C53.6196 14.2548 52.8278 13.5102 51.8629 13.1205C50.872 12.7201 49.5054 12.5855 48.3137 12.7708ZM118.024 12.744C113.886 13.2661 111.059 16.1272 110.745 20.1104C110.548 22.6243 111.285 24.802 112.907 26.499C114.016 27.659 115.47 28.4402 117.225 28.8189C117.741 28.93 118.021 28.9517 118.978 28.9541C119.963 28.9566 120.199 28.9387 120.722 28.8217C122.059 28.5222 123.371 27.9365 124.235 27.2534C124.497 27.0462 124.703 26.8531 124.693 26.8243C124.683 26.7955 124.105 26.1568 123.409 25.4051L122.143 24.0384L121.731 24.4346C119.673 26.4126 116.028 25.4621 114.947 22.6653C114.696 22.0165 114.575 21.2512 114.617 20.5733C114.663 19.8257 114.785 19.3743 115.134 18.6477C115.393 18.1091 115.492 17.9736 115.962 17.5053C116.41 17.0592 116.584 16.9303 117.05 16.7012C117.651 16.4056 118.118 16.277 118.803 16.2185C119.793 16.1338 120.815 16.5716 121.754 17.483L122.048 17.7677L123.41 16.4041L124.773 15.0406L124.336 14.6453C123.31 13.7161 122.215 13.1739 120.718 12.8542C120.1 12.7222 118.663 12.6634 118.024 12.744ZM132.357 12.7467C130.233 13.0048 128.512 13.7272 127.293 14.8723L126.953 15.1919L127.98 16.222L129.007 17.2521L129.323 16.9794C129.97 16.423 130.946 15.9575 131.917 15.7435C132.509 15.6129 133.67 15.6142 134.256 15.7463C135.854 16.1065 136.672 17.0999 136.679 18.6892L136.68 18.9375L135.38 18.938C130.536 18.9399 127.788 19.8648 126.578 21.9012C126.119 22.674 125.958 23.4173 126.002 24.5557C126.038 25.4515 126.204 26.0115 126.628 26.6571C127.406 27.8414 128.731 28.6256 130.421 28.9022C131.285 29.0437 132.582 28.9954 133.357 28.7931C134.651 28.4553 135.736 27.7312 136.392 26.768C136.502 26.6065 136.612 26.4742 136.636 26.4741C136.66 26.4741 136.68 26.9608 136.68 27.5557V28.6374L138.418 28.6219L140.156 28.6065L140.173 24.1371C140.192 19.1732 140.149 17.9106 139.928 16.9511C139.606 15.5555 138.956 14.5273 137.975 13.8611C137.235 13.3593 136.34 13.007 135.346 12.8272C134.745 12.7183 132.981 12.6708 132.357 12.7467ZM69.0992 18.4847C69.1224 24.4638 69.1161 24.358 69.52 25.5546C70.0976 27.2659 71.4157 28.4501 73.1959 28.8569C73.8276 29.0012 75.6816 28.9951 76.271 28.8467C77.5597 28.5222 78.5552 27.741 79.3392 26.439L79.5426 26.1012V27.3684V28.6357H81.383H83.2233V20.8654V13.0952H81.2986H79.3738L79.3525 17.7252C79.3317 22.2563 79.3285 22.3655 79.2043 22.8366C78.7606 24.5191 77.5572 25.4758 75.8795 25.4798C75.0481 25.4818 74.4609 25.2626 73.9942 24.7759C73.6424 24.4089 73.451 24.0528 73.2699 23.4276C73.0314 22.6049 72.9997 21.8912 72.9995 17.3455L72.9993 13.0952H71.0388H69.0783L69.0992 18.4847ZM86.9039 14.6434V16.1916H90.8182C92.9711 16.1916 94.7326 16.2121 94.7326 16.2371C94.7326 16.2621 92.8802 18.2405 90.6162 20.6334L86.4998 24.9842L86.4974 26.8102L86.495 28.6361L93.1698 28.6213L99.8446 28.6065L99.8601 27.044L99.8757 25.4816L95.5135 25.4666L91.1513 25.4516L95.3079 21.0407L99.4645 16.6298L99.4646 14.8625L99.4648 13.0952H93.1844H86.9039V14.6434ZM103.16 20.8508L103.175 28.6065L105.117 28.6218L107.06 28.6372V20.8662V13.0952H105.102H103.145L103.16 20.8508ZM133.644 21.7485C132.238 21.8733 131.029 22.2721 130.384 22.8245C129.894 23.2436 129.729 24.1116 130.016 24.7631C130.399 25.635 131.469 26.1133 132.883 26.0444C134.085 25.9858 134.906 25.6798 135.515 25.0633C136.121 24.4492 136.376 23.7304 136.429 22.4867L136.464 21.6834L135.33 21.6914C134.707 21.6958 133.948 21.7215 133.644 21.7485Z" fill="#CDD4F0"/>
</svg>
