<svg width="88" height="36" viewBox="0 0 88 36" fill="none" xmlns="http://www.w3.org/2000/svg">
<path fill-rule="evenodd" clip-rule="evenodd" d="M21.2715 1.06152C18.862 1.49662 16.8177 3.25321 16.0511 5.54717C15.7007 6.59589 15.695 6.68911 15.695 11.3879V15.6678H19.9748C24.6737 15.6678 24.7669 15.6621 25.8156 15.3116C27.7635 14.6607 29.3879 13.0362 30.0389 11.0884C30.3893 10.0397 30.395 9.94644 30.395 5.24763V0.967773L26.0637 0.973023C22.584 0.977223 21.6418 0.994607 21.2715 1.06152ZM3.44499 7.75287C3.44499 9.79075 3.46827 11.1695 3.5063 11.3841C3.88803 13.5392 5.57358 15.2247 7.72864 15.6065C7.94331 15.6445 9.32202 15.6678 11.3599 15.6678H14.645V12.3827C14.645 10.3448 14.6217 8.96609 14.5837 8.75142C14.202 6.59636 12.5164 4.91082 10.3613 4.52908C10.1467 4.49105 8.76797 4.46777 6.73009 4.46777H3.44499V7.75287ZM43.8408 7.03211C43.0387 7.18313 42.2841 7.32535 42.1637 7.34816L41.945 7.38975V17.3353C41.945 28.3721 41.9238 27.7518 42.3308 28.6036C42.5709 29.1061 43.0971 29.6949 43.5014 29.9135C43.656 29.9971 43.9794 30.127 44.22 30.202C44.6101 30.3238 44.768 30.3384 45.6783 30.3366C46.2398 30.3354 46.9066 30.3002 47.1602 30.2583C47.6704 30.1739 48.8308 29.862 48.9045 29.7893C48.9304 29.7638 48.8516 29.2255 48.7295 28.5932C48.5078 27.445 48.5073 27.4435 48.3617 27.4691C48.2815 27.4831 47.9664 27.5401 47.6617 27.5958C47.0002 27.7165 46.4157 27.6917 46.1351 27.5312C46.0153 27.4626 45.8849 27.3085 45.795 27.1293L45.6492 26.8386L45.6331 16.7907L45.6171 6.74277L45.4581 6.75018C45.3707 6.75426 44.6429 6.88114 43.8408 7.03211ZM51.209 6.99996C50.5573 7.18791 50.0753 7.67045 49.8634 8.34694C49.5615 9.31125 49.7791 10.2771 50.433 10.8748C50.7935 11.2042 51.1302 11.3418 51.6982 11.3916C52.7384 11.4828 53.517 11.0658 53.9491 10.1862C54.0958 9.88747 54.1075 9.80959 54.1075 9.13444C54.1075 8.46851 54.0941 8.37686 53.9538 8.07744C53.7463 7.63498 53.4339 7.30353 53.0447 7.11313C52.7658 6.97669 52.6368 6.95271 52.1021 6.93807C51.706 6.92722 51.3839 6.94956 51.209 6.99996ZM78.2053 13.9531C75.498 14.442 73.3241 16.3901 72.4022 19.1532C71.9933 20.3789 71.8377 21.7629 71.9318 23.3392C71.9921 24.3507 71.9965 24.3862 72.1725 25.2928C72.6888 27.9517 74.0955 29.6618 76.2404 30.238C76.7359 30.3712 76.9147 30.3886 77.82 30.3922C78.8963 30.3964 79.3771 30.3287 80.0437 30.0794C81.2384 29.6324 82.1761 28.5913 82.7523 27.0723C82.8992 26.6847 82.9083 26.6948 83.0104 27.3607C83.1704 28.4043 83.8329 29.8044 84.4287 30.3579L84.5751 30.4939L85.9624 29.935C86.7254 29.6276 87.3706 29.3761 87.396 29.3761C87.4214 29.3761 87.4501 29.8289 87.4597 30.3824C87.4693 30.9358 87.4767 29.4199 87.4761 27.0136C87.4754 23.6958 87.4714 23.4421 87.4594 25.9636L87.4437 29.2886L87.3246 29.1136C86.8043 28.3487 86.3432 26.9054 86.0629 25.1647C85.9805 24.6531 85.9611 23.8339 85.9326 19.6652L85.8992 14.7668L85.345 14.6328C84.5656 14.4442 82.6798 14.1106 81.624 13.9745C80.5511 13.8361 78.9099 13.8258 78.2053 13.9531ZM50.1248 20.9032L50.1408 27.7136L50.2966 28.1398C50.5742 28.8999 51.0353 29.4969 51.6408 29.8803C52.4659 30.4028 54.1403 30.5164 55.3786 30.134C55.9978 29.9427 55.9711 30.043 55.752 28.7344L55.5615 27.5969H54.9488C54.2448 27.5969 54.0753 27.527 53.913 27.1695C53.8245 26.9744 53.8144 26.3803 53.7998 20.524L53.7837 14.0928H51.9463H50.1089L50.1248 20.9032ZM57.0533 19.8547C57.0533 23.4843 57.0758 25.7996 57.1139 26.111C57.2896 27.5438 57.821 28.7259 58.6026 29.4224C59.4523 30.1798 60.6532 30.4602 62.6126 30.3587C63.9447 30.2897 65.2405 29.9829 66.1533 29.5205C68.4126 28.3761 69.7772 25.9707 70.3225 22.1719C70.5868 20.3304 70.7051 17.792 70.5929 16.3678C70.5248 15.5034 70.3649 14.217 70.3155 14.1372C70.3005 14.1127 69.4374 14.0928 68.3975 14.0928C66.9099 14.0928 66.5126 14.1083 66.5334 14.1657C66.548 14.2058 66.616 14.6192 66.6846 15.0844C66.7796 15.7285 66.8162 16.3182 66.838 17.5563C66.9222 22.3245 66.1333 25.6715 64.5838 27.1198C63.8979 27.7609 62.8536 27.9509 61.9674 27.5959C61.4496 27.3884 61.0117 26.6749 60.8445 25.7661C60.8088 25.5724 60.7867 23.2733 60.7867 19.7723V14.0928H58.92H57.0533V19.8547ZM79.4242 16.4857C77.8482 16.6542 76.7981 17.5392 76.276 19.1387C76.0017 19.9788 75.9235 20.7315 75.9305 22.4636C75.9393 24.6553 76.0717 25.5876 76.5038 26.4995C76.8983 27.3323 77.463 27.7414 78.2835 27.7889C79.0992 27.8361 79.6552 27.591 80.3392 26.8825C80.9904 26.2079 81.4588 25.3508 81.7816 24.2428C82.1378 23.0203 82.1485 22.898 82.178 19.7177L82.205 16.7968L81.6313 16.6678C81.0739 16.5425 80.1856 16.4193 79.9492 16.4344C79.885 16.4386 79.6487 16.4616 79.4242 16.4857ZM5.52148 16.8115C3.00288 17.2663 0.982742 19.0804 0.195242 21.5944L0.0326667 22.1136L0.0163333 26.7657L0 31.4178H4.25232C8.92097 31.4178 9.01758 31.4119 10.0656 31.0616C12.0135 30.4107 13.6379 28.7862 14.2889 26.8384C14.6393 25.7897 14.645 25.6964 14.645 20.9976V16.7178L10.3137 16.723C6.83404 16.7272 5.89184 16.7446 5.52148 16.8115ZM15.695 22.2666C15.695 26.9674 15.7088 27.908 15.785 28.4217C16.3507 32.2309 19.4319 35.3121 23.2411 35.8778C23.7548 35.954 24.6954 35.9678 29.3962 35.9678H34.945V30.419C34.945 25.7181 34.9312 24.7776 34.855 24.2639C34.2893 20.4547 31.2081 17.3734 27.3989 16.8078C26.8852 16.7315 25.9446 16.7178 21.2438 16.7178H15.695V22.2666Z" fill="#CDD4F0"/>
</svg>
