<svg width="137" height="36" viewBox="0 0 137 36" fill="none" xmlns="http://www.w3.org/2000/svg">
<path fill-rule="evenodd" clip-rule="evenodd" d="M116.907 1.00759C110.417 1.67085 104.8 5.8912 102.381 11.9209C101.703 13.6122 101.323 15.2453 101.173 17.1168C101.13 17.6438 101.115 20.3321 101.127 25.2317L101.144 32.5585L101.283 32.9672C101.689 34.1717 102.404 35.0088 103.48 35.5412C104.414 36.0038 103.897 35.9803 112.637 35.9582C121.057 35.9369 120.575 35.954 122.247 35.6174C125.441 34.9744 128.621 33.2575 130.994 30.8955C133.726 28.1751 135.453 24.7409 135.999 20.9407C136.116 20.1281 136.116 16.791 135.999 15.9784C135.196 10.393 131.751 5.52755 126.744 2.90876C125.006 1.99948 123.14 1.40511 121.023 1.08646C120.294 0.976707 117.697 0.926908 116.907 1.00759ZM30.9415 16.534V27.4521L32.474 27.4366L34.0065 27.421L34.0213 16.5184L34.036 5.61576H32.4888H30.9415V16.534ZM69.2594 5.73252C68.7142 5.84578 68.1923 6.23512 67.9547 6.70573C67.7669 7.07756 67.7273 7.70445 67.8653 8.12001C67.9958 8.51285 68.4005 8.95403 68.8188 9.15948C69.1042 9.29959 69.2226 9.32294 69.648 9.32294C70.0734 9.32294 70.1918 9.29959 70.4772 9.15948C70.9252 8.93944 71.3132 8.50269 71.436 8.08007C71.635 7.39567 71.4309 6.61944 70.9381 6.18684C70.508 5.80918 69.8055 5.61903 69.2594 5.73252ZM75.5445 9.4397V11.3955H74.4352H73.326V12.6506V13.9058H74.406H75.4861L75.4865 18.7368C75.4868 21.6204 75.5109 23.7797 75.5463 24.0933C75.8005 26.3448 76.8154 27.272 79.289 27.5122C79.9695 27.5783 81.3459 27.5546 81.6598 27.4714C81.7906 27.4367 81.7912 27.4311 81.7912 26.2537V25.0708L80.9009 25.0421C80.2592 25.0216 79.9242 24.9842 79.7012 24.9085C79.2674 24.7612 78.9101 24.4289 78.7443 24.0184L78.6094 23.6846L78.5929 18.7952L78.5765 13.9058H80.1546H81.7328V12.6506V11.3955H80.1565H78.5803V9.4397V7.48395H77.0624H75.5445V9.4397ZM117.345 8.15346C115.721 8.42364 114.431 9.07844 113.213 10.2513C111.897 11.5196 111.159 12.8733 110.894 14.5088C110.78 15.2109 110.781 16.5491 110.897 17.2111C111.365 19.8958 113.501 22.2674 116.054 22.9377C116.696 23.1064 117.969 23.1799 118.644 23.0873C118.861 23.0575 119.038 23.0444 119.038 23.0582C119.038 23.0719 117.79 24.7756 116.265 26.8442C114.74 28.9128 113.492 30.6182 113.492 30.6339C113.492 30.6497 114.06 31.0848 114.755 31.6009C115.785 32.3664 116.031 32.5248 116.089 32.4612C116.183 32.3578 124.193 21.5157 124.535 21.0283C125.704 19.3637 126.398 17.5679 126.49 15.9733C126.605 13.9877 125.913 12.1912 124.438 10.6455C123.244 9.39347 121.934 8.6243 120.381 8.26275C119.597 8.08025 118.107 8.02665 117.345 8.15346ZM20.1949 11.2525C17.5587 11.7299 15.733 13.5001 15.0921 16.2C14.8859 17.0687 14.8284 17.7569 14.8289 19.3476C14.8295 21.2794 14.9377 22.1651 15.3086 23.2759C16.0404 25.4675 17.5685 26.8983 19.8005 27.4818C20.6194 27.6958 22.2084 27.751 23.1295 27.5974C25.554 27.1929 27.2443 25.821 27.9608 23.676C28.2487 22.8143 28.385 22.8961 26.6651 22.8985L25.191 22.9005L24.9884 23.3509C24.8336 23.6949 24.6888 23.8992 24.3754 24.2154C23.7084 24.8884 22.9227 25.185 21.8049 25.1857C20.7122 25.1864 19.9717 24.8898 19.2295 24.1542C18.8362 23.7644 18.7101 23.5904 18.4872 23.13C18.1405 22.4144 17.9837 21.7653 17.9402 20.8677L17.9056 20.1526H23.1465H28.3873L28.3575 18.766C28.3379 17.851 28.2951 17.2008 28.2316 16.8541C27.9352 15.236 27.358 14.017 26.4301 13.0499C25.5031 12.0836 24.4153 11.5119 23.0099 11.2521C22.3999 11.1394 20.8184 11.1396 20.1949 11.2525ZM42.2045 11.2525C39.2782 11.7824 37.3425 13.8228 36.7713 16.9792C36.663 17.5775 36.6456 17.8971 36.6428 19.3352C36.6394 21.1031 36.6811 21.5718 36.9301 22.5686C37.6212 25.3347 39.5534 27.1531 42.2694 27.5936C42.9945 27.7112 44.4284 27.7113 45.1058 27.5937C48.1501 27.0657 50.0848 24.9639 50.5857 21.6407C50.7094 20.8194 50.7084 17.9753 50.5842 17.1379C50.1055 13.9145 48.1095 11.7698 45.1058 11.2514C44.4567 11.1394 42.8258 11.14 42.2045 11.2525ZM57.9981 11.2472C55.2784 11.7413 53.3814 13.6669 52.7751 16.549C52.5213 17.7551 52.4794 20.2829 52.6895 21.6983C52.936 23.3586 53.5724 24.7237 54.5974 25.7914C55.4117 26.6396 56.3162 27.1604 57.5589 27.4965C58.0781 27.637 58.209 27.648 59.4022 27.6511C60.7716 27.6547 61.1866 27.6009 62.0466 27.3081C63.8867 26.6818 65.1405 25.3249 65.6232 23.4374C65.6855 23.1939 65.7365 22.9326 65.7365 22.857V22.7193L64.2743 22.7349L62.8121 22.7505L62.6774 23.1362C62.228 24.4225 61.0379 25.1138 59.4022 25.0383C58.375 24.991 57.6481 24.6725 56.9928 23.9827C56.355 23.3111 55.954 22.4286 55.7744 21.3014C55.6528 20.5374 55.6919 17.6444 55.8319 17.0584C56.255 15.2875 57.1547 14.247 58.5848 13.8748C59.0718 13.748 59.9588 13.7476 60.396 13.8738C61.43 14.1724 62.3212 15.04 62.6145 16.0336L62.6843 16.2703L64.1812 16.2858C65.5795 16.3004 65.678 16.2946 65.6773 16.1983C65.6769 16.1415 65.6275 15.8587 65.5676 15.5697C65.1046 13.3377 63.2526 11.6765 60.7519 11.2503C60.1192 11.1425 58.5843 11.1407 57.9981 11.2472ZM117.958 11.2581C116.705 11.4597 115.601 12.1859 114.868 13.2911C114.049 14.5244 113.977 16.3818 114.698 17.6977C115.727 19.5787 117.741 20.4484 119.835 19.9161C121.334 19.535 122.647 18.1791 122.984 16.6633C123.133 15.9942 123.078 14.8402 122.868 14.2269C122.407 12.8796 121.254 11.7773 119.905 11.3939C119.48 11.2732 118.353 11.1945 117.958 11.2581ZM3.1361e-08 11.4392C0.000175174 11.4633 1.23213 15.0691 2.73771 19.452L5.47513 27.421H7.18008H8.88503L11.6829 19.5396C13.2218 15.2048 14.4964 11.5986 14.5153 11.5258L14.5497 11.3935L12.9814 11.4091L11.4132 11.4247L9.3181 17.7189C8.16578 21.1807 7.20145 23.9916 7.17517 23.9653C7.14884 23.939 6.28428 21.1854 5.25392 17.8462C4.22356 14.507 3.35339 11.6895 3.32029 11.5852L3.25998 11.3955H1.62982C0.733263 11.3955 -0.000175111 11.4152 3.1361e-08 11.4392ZM68.0861 19.4082L68.1009 27.421L69.6334 27.4366L71.1659 27.4521V19.4238V11.3955H69.6186H68.0713L68.0861 19.4082ZM82.9004 11.4594C82.9004 11.4955 84.1925 15.1364 85.7717 19.5503L88.6429 27.5755L88.5104 28.082C88.1321 29.5274 87.6484 30.2154 86.7831 30.5392C86.3009 30.7196 85.4929 30.8001 84.7832 30.7385L84.1848 30.6865V31.8956V33.1047L84.5205 33.1526C85.148 33.2423 86.9138 33.2093 87.4133 33.0986C89.4829 32.6401 90.705 31.3159 91.8256 28.3176C92.1055 27.5689 97.6553 11.7188 97.7154 11.4967C97.7416 11.3997 97.6461 11.3945 96.0943 11.4091L94.4454 11.4247L92.4505 17.759C90.2993 24.5898 90.384 24.3279 90.3416 24.2855C90.3257 24.2696 89.4106 21.3695 88.308 17.8406L86.3032 11.4247L84.6018 11.4092C83.3714 11.398 82.9004 11.4119 82.9004 11.4594ZM20.7784 13.699C19.5461 14.0127 18.6018 14.9163 18.1907 16.1753C18.0178 16.7048 17.9226 17.2087 17.9226 17.5946V17.8757H21.6348H25.347L25.3056 17.4233C25.1397 15.6093 24.215 14.3094 22.7111 13.7761C22.2831 13.6243 21.2359 13.5825 20.7784 13.699ZM42.9824 13.7331C41.2357 14.0468 40.1259 15.4076 39.8194 17.6111C39.7387 18.1909 39.7387 20.5963 39.8194 21.1762C39.9197 21.8976 40.0913 22.4786 40.3793 23.0716C40.6027 23.5318 40.7292 23.7061 41.1223 24.095C41.8619 24.827 42.5849 25.1127 43.6977 25.1131C45.1845 25.1135 46.2863 24.4339 46.9361 23.116C47.4492 22.0749 47.5801 21.3146 47.5801 19.3735C47.5801 17.9459 47.4891 17.13 47.2504 16.4162C46.7937 15.0502 45.9082 14.1322 44.7486 13.8225C44.3139 13.7064 43.3911 13.6597 42.9824 13.7331Z" fill="#CDD4F0"/>
</svg>
