<svg width="88" height="36" viewBox="0 0 88 36" fill="none" xmlns="http://www.w3.org/2000/svg">
<path fill-rule="evenodd" clip-rule="evenodd" d="M35.7416 1.99921C33.3345 2.56379 31.3605 3.02782 31.355 3.03033C31.3437 3.03558 30.3438 8.39871 30.3438 8.45433C30.3438 8.47428 29.6353 8.49062 28.7694 8.49062H27.1949L27.1648 8.62192C27.1483 8.69416 26.8837 10.145 26.577 11.846C26.2703 13.547 26.0059 14.9843 25.9896 15.04C25.9621 15.1339 26.0717 15.1423 27.5256 15.1567L29.0912 15.1722L28.1157 20.3366C27.0879 25.7777 26.886 26.9489 26.7871 28.0394C26.6998 29.0021 26.7115 30.4281 26.8117 31.046C27.2353 33.6573 28.9776 35.2925 31.9186 35.8386C32.2207 35.8948 32.9006 35.9424 33.6533 35.9604C35.4162 36.0023 36.9647 35.8659 38.2335 35.557C38.6908 35.4457 38.7445 35.4182 38.773 35.2814C38.834 34.9889 39.8554 28.6512 39.8555 28.5646C39.8556 28.4903 39.7738 28.4828 39.3158 28.5153C38.4626 28.5758 37.6308 28.5701 37.2573 28.501C36.2073 28.3069 35.7124 27.6204 35.7124 26.358C35.7124 25.4578 35.8437 24.6527 36.7843 19.7822L37.6746 15.1722L40.2778 15.157L42.8811 15.1419L42.9138 14.982C42.9318 14.894 43.1967 13.4697 43.5025 11.8168C43.8082 10.1639 44.0733 8.73962 44.0915 8.65168L44.1245 8.49185L41.537 8.47662L38.9495 8.46144L39.6245 4.71217C40.1869 1.58874 40.2844 0.963708 40.2089 0.967793C40.159 0.970536 38.1487 1.43469 35.7416 1.99921ZM55.7572 7.97325C48.4355 8.6022 42.9582 14.5289 41.9855 22.875C41.471 27.2892 42.3949 30.6428 44.7835 33.0318C46.8151 35.0638 49.4435 35.9916 52.9159 35.9025C55.1698 35.8446 56.9343 35.4244 58.85 34.489C63.4183 32.2585 66.5259 27.6255 67.3644 21.7954C67.5746 20.3338 67.6391 18.3034 67.5122 17.1394C67.3274 15.4425 66.7276 13.6575 65.9101 12.3712C63.8638 9.15184 60.2517 7.58718 55.7572 7.97325ZM79.4836 7.96584C76.5116 8.21519 73.9457 9.20424 72.1098 10.8079C70.7018 12.0379 69.7162 13.7204 69.3138 15.5807C69.1644 16.2715 69.1051 17.8833 69.2059 18.5127C69.4209 19.8544 70.0645 21.0908 71.1388 22.2259C72.0124 23.149 72.8046 23.7396 74.493 24.7263C76.4896 25.8931 77.111 26.5623 77.1091 27.5434C77.1056 29.313 74.9529 29.8469 71.4837 28.9384C70.6334 28.7158 69.4757 28.3007 68.6647 27.9278C68.3858 27.7995 68.157 27.7131 68.1564 27.7357C68.1558 27.7583 67.6993 29.162 67.142 30.8551L66.1288 33.9334L66.5508 34.1964C67.5966 34.8482 69.3051 35.3981 71.192 35.6901C72.3163 35.8641 74.7244 35.907 75.977 35.7752C79.2678 35.4291 81.7827 34.3755 83.5687 32.5946C84.8246 31.3424 85.5107 30.0575 85.8986 28.2312C86.0715 27.4174 86.1188 25.8633 85.9927 25.1421C85.701 23.4741 84.681 21.9235 82.9587 20.5302C82.3925 20.0722 80.8622 19.0548 80.2077 18.7013C78.474 17.765 77.7194 16.9063 77.898 16.0734C78.0299 15.458 78.3493 15.0739 78.95 14.8079C79.4649 14.5799 79.9535 14.5032 80.9005 14.5021C82.2654 14.5006 83.616 14.7495 84.8519 15.2307C85.154 15.3483 85.4526 15.4489 85.5154 15.4542C85.6166 15.4629 85.7334 15.1272 86.5485 12.4879C87.054 10.8511 87.484 9.43947 87.5041 9.351C87.5387 9.19887 87.5192 9.18055 87.1421 9.00974C86.1586 8.56456 84.8095 8.22651 83.3297 8.0546C82.3741 7.94355 80.3154 7.89605 79.4836 7.96584ZM5.68939 8.56356C5.65432 8.66533 4.31771 15.6931 4.31771 15.7759C4.31771 15.8262 5.48322 15.8433 8.93256 15.8433C11.4707 15.8433 13.5387 15.8635 13.528 15.8882C13.5173 15.9128 13.154 16.2589 12.7208 16.6573C11.5118 17.7688 9.45594 19.8501 8.51001 20.9201C8.04189 21.4497 6.14164 23.6793 4.28719 25.8748L0.915524 29.8668L0.458025 32.5856C0.2064 34.081 0.000291832 35.3374 5.97874e-08 35.3775C-0.000408422 35.4355 2.09218 35.4504 10.2699 35.4504C15.9186 35.4504 20.5403 35.4361 20.5403 35.4186C20.5403 35.374 21.8824 28.3313 21.9215 28.1707L21.9534 28.0394H16.807C13.9765 28.0394 11.6694 28.0184 11.6801 27.9928C11.6908 27.9671 12.0936 27.591 12.5752 27.1569C14.6284 25.3063 15.5743 24.2721 20.3346 18.6735C22.1902 16.491 23.7736 14.6348 23.8532 14.5486C23.9849 14.406 24.0415 14.139 24.4842 11.5726C24.7517 10.0219 24.9811 8.69416 24.9939 8.62192L25.0174 8.49062H15.366C7.69713 8.49062 5.7094 8.50562 5.68939 8.56356ZM55.4946 14.7355C53.9873 14.9976 52.6872 16.5867 51.7716 19.2862C51.0709 21.3521 50.7203 23.5219 50.7834 25.4013C50.8189 26.4563 50.9349 26.9975 51.2739 27.6885C51.9459 29.0585 53.4593 29.5302 54.8819 28.8129C55.2443 28.6302 56.0867 27.7917 56.4211 27.2808C57.7052 25.3188 58.6443 21.6483 58.6607 18.5276C58.6652 17.6673 58.6463 17.4262 58.5406 16.9971C58.2142 15.6721 57.4616 14.8995 56.3389 14.7373C55.8845 14.6716 55.8629 14.6716 55.4946 14.7355Z" fill="#CDD4F0"/>
</svg>
