<svg width="150" height="36" viewBox="0 0 150 36" fill="none" xmlns="http://www.w3.org/2000/svg">
<path fill-rule="evenodd" clip-rule="evenodd" d="M0 9.94692C0 16.4165 0.0179817 18.9441 0.0643953 18.9905C0.0998332 19.0259 3.97412 21.1789 8.67393 23.7749L17.219 28.4949L15.338 30.3794L13.457 32.264L15.3495 34.1159C16.3903 35.1344 17.2595 35.9678 17.2811 35.9678C17.3026 35.9678 18.1718 35.1344 19.2126 34.1159L21.1051 32.264L19.2241 30.3794L17.3432 28.4949L25.8882 23.7749C30.588 21.1789 34.4623 19.0259 34.4977 18.9905C34.5442 18.9441 34.5621 16.4165 34.5621 9.94692C34.5621 5.00839 34.5488 0.967773 34.5325 0.967773C34.5161 0.967773 30.6483 3.45607 25.9371 6.49736C21.226 9.53866 17.3308 12.027 17.2811 12.027C17.2314 12.027 13.3361 9.53866 8.625 6.49736C3.91387 3.45607 0.046005 0.967773 0.029658 0.967773C0.0133695 0.967773 0 5.00839 0 9.94692ZM62.0892 8.88881C61.0091 9.02437 59.8663 9.40012 59.0534 9.88691C56.9686 11.1353 55.6529 13.3387 55.1932 16.3514C55.043 17.3355 55.0435 19.6752 55.1942 20.6717C55.9214 25.4826 58.7569 28.1169 63.206 28.115C64.5727 28.1145 65.7295 27.8779 66.7735 27.3855C68.968 26.3503 70.4532 24.269 71.0204 21.4341C71.2243 20.4148 71.2844 19.7404 71.2844 18.4697C71.2844 16.1858 70.9562 14.5644 70.1701 12.9653C68.8385 10.2565 66.3863 8.82529 63.1326 8.8581C62.6551 8.86289 62.1856 8.87672 62.0892 8.88881ZM40.9258 18.4824V27.7067H42.8816H44.8374V23.9411V20.1754H47.5813H50.3253V18.7451V17.3147H47.5813H44.8374V14.7167V12.1187H47.99C49.8841 12.1187 51.1426 12.0971 51.1426 12.0647C51.1426 12.035 51.2346 11.3988 51.347 10.6509C51.4593 9.90308 51.5513 9.2837 51.5513 9.2746C51.5513 9.26549 49.1606 9.25802 46.2385 9.25802H40.9258V18.4824ZM74.9041 9.30577C74.9041 9.33204 75.9687 11.2763 77.27 13.6264L79.636 17.8993L77.0582 22.7592C75.6403 25.4322 74.469 27.6389 74.4552 27.6629C74.4414 27.687 75.3709 27.7062 76.5207 27.7056L78.6113 27.7044L80.2703 24.0859C81.1828 22.0956 81.9431 20.4811 81.96 20.498C81.977 20.5149 82.7417 22.1373 83.6594 24.1032L85.3281 27.6775L87.4788 27.6928C89.1921 27.7051 89.6234 27.6932 89.5996 27.6344C89.5833 27.5939 88.3861 25.3562 86.9392 22.6617C85.4924 19.9672 84.3177 17.7472 84.3289 17.7284C84.7074 17.0935 89.0909 9.34203 89.0909 9.3077C89.0909 9.28038 88.1706 9.25802 87.0457 9.25802H85.0005L83.9086 11.4911C83.3081 12.7193 82.6325 14.0995 82.4072 14.5582L81.9975 15.3921L80.5671 12.3259L79.1368 9.25977L77.0204 9.25889C75.8565 9.25842 74.9041 9.2795 74.9041 9.30577ZM97.9066 18.5699V27.7067H98.6944H99.4822L99.4971 23.2551L99.5121 18.8035L103.818 18.7885L108.123 18.7735V23.2418V27.71L108.926 27.6938L109.729 27.6775V18.5699V9.46235L108.926 9.44612L108.123 9.42989V13.431V17.4323L103.818 17.4172L99.5121 17.4023L99.4971 13.4177L99.4821 9.43316H98.6943H97.9066V18.5699ZM117.99 16.1394C117.99 21.8602 118.003 22.9219 118.078 23.3642C118.335 24.8677 119.008 26.0692 120.033 26.8546C120.964 27.5671 122.014 27.9068 123.507 27.9784C125.439 28.0711 127 27.5915 128.074 26.575C128.86 25.8307 129.343 25.0074 129.651 23.8827L129.812 23.2989L129.828 16.3644L129.845 9.42983L129.04 9.44612L128.236 9.46235L128.206 16.293L128.176 23.1237L128.046 23.5908C127.975 23.8477 127.797 24.2997 127.652 24.5952C127.162 25.5907 126.366 26.1961 125.2 26.46C124.51 26.6161 123.215 26.6026 122.522 26.4319C121.014 26.0605 120.106 25.0827 119.722 23.4172C119.604 22.9025 119.6 22.7332 119.581 16.1617L119.562 9.43316H118.776H117.99V16.1394ZM138.1 9.50614C138.085 9.54631 138.079 13.6513 138.088 18.6283L138.103 27.6775L140.817 27.6948C142.458 27.7051 143.796 27.6869 144.2 27.6487C147.022 27.3818 148.757 26.219 149.344 24.2022C149.506 23.6458 149.567 22.2566 149.459 21.5871C149.304 20.6274 148.931 19.88 148.321 19.3098C147.677 18.7077 146.703 18.2251 145.882 18.1021C145.55 18.0523 145.566 17.9952 145.939 17.9014C146.474 17.7665 147.123 17.3761 147.59 16.9077C148.088 16.4092 148.338 15.9821 148.534 15.2985C148.708 14.6879 148.722 13.41 148.561 12.8193C148.363 12.097 148.082 11.6104 147.567 11.097C146.637 10.1712 145.284 9.66581 143.269 9.49207C142.24 9.40333 138.135 9.41448 138.1 9.50614ZM139.708 14.1329V17.4315H141.888C143.878 17.4315 144.108 17.4213 144.53 17.3144C146.398 16.8406 147.355 15.2838 146.981 13.327C146.713 11.9289 145.705 11.1661 143.768 10.8967C143.521 10.8624 142.507 10.8343 141.514 10.8343H139.708V14.1329ZM62.6439 11.8226C60.8448 12.0747 59.8054 13.3338 59.3641 15.7956C59.192 16.756 59.1465 19.3329 59.2812 20.4965C59.5504 22.8231 60.2792 24.2015 61.5638 24.8137C62.1258 25.0815 62.5108 25.1609 63.2277 25.1571C65.2012 25.1465 66.3975 24.0165 66.8951 21.6931C67.105 20.7131 67.1625 20.0225 67.1625 18.4824C67.1625 16.9423 67.105 16.2516 66.8951 15.2717C66.4162 13.0352 65.3015 11.9197 63.432 11.806C63.1751 11.7903 62.8205 11.7978 62.6439 11.8226ZM139.708 22.5647V26.3639L141.474 26.3634C144.158 26.3627 145.09 26.244 146.048 25.7809C146.883 25.377 147.381 24.8145 147.687 23.931C147.83 23.5201 147.846 23.3917 147.848 22.6567C147.849 22.0589 147.822 21.7374 147.748 21.4599C147.405 20.1801 146.522 19.3456 145.079 18.9382C144.672 18.8231 144.468 18.8127 142.175 18.7899L139.708 18.7654V22.5647Z" fill="#CDD4F0"/>
</svg>
